<?xml version="1.0" encoding="UTF-8" standalone="no"?>
<!DOCTYPE svg PUBLIC "-//W3C//DTD SVG 1.1//EN"
 "http://www.w3.org/Graphics/SVG/1.1/DTD/svg11.dtd">
<!-- Generated by graphviz version 2.43.0 (0)
 -->
<!-- Title: D Pages: 1 -->
<svg width="1746pt" height="617pt"
 viewBox="0.00 0.00 1746.00 617.00" xmlns="http://www.w3.org/2000/svg" xmlns:xlink="http://www.w3.org/1999/xlink">
<g id="graph0" class="graph" transform="scale(1 1) rotate(0) translate(4 613)">
<title>D</title>
<polygon fill="white" stroke="transparent" points="-4,4 -4,-613 1742,-613 1742,4 -4,4"/>
<text text-anchor="middle" x="869" y="-7.8" font-family="Times,serif" font-size="14.00" fill="white">Orthogonal edges</text>
<g id="clust1" class="cluster">
<title>cluster_1</title>
<polygon fill="red" stroke="white" points="8,-147 8,-553 103,-553 103,-147 8,-147"/>
<text text-anchor="start" x="39.5" y="-534" font-family="Times,serif" font-weight="bold" font-size="20.00" fill="white">OS</text>
</g>
<g id="clust2" class="cluster">
<title>cluster_2</title>
<polygon fill="red" stroke="white" points="159,-255 159,-553 380,-553 380,-255 159,-255"/>
<text text-anchor="start" x="167" y="-534" font-family="Times,serif" font-weight="bold" font-size="20.00" fill="white">Peripheral Add&#45;on</text>
</g>
<g id="clust3" class="cluster">
<title>cluster_3</title>
<polygon fill="red" stroke="white" points="436,-255 436,-553 616,-553 616,-255 436,-255"/>
<text text-anchor="start" x="444" y="-534" font-family="Times,serif" font-weight="bold" font-size="20.00" fill="white">Peripheral API</text>
</g>
<g id="clust4" class="cluster">
<title>cluster_4</title>
<polygon fill="red" stroke="white" points="671.5,-31 671.5,-601 940.5,-601 940.5,-31 671.5,-31"/>
<text text-anchor="start" x="705" y="-582" font-family="Times,serif" font-weight="bold" font-size="20.00" fill="white">Peripheral Busses</text>
</g>
<g id="clust5" class="cluster">
<title>cluster_4_1</title>
<polygon fill="white" stroke="white" points="702,-363 702,-563 911,-563 911,-363 702,-363"/>
<text text-anchor="start" x="710" y="-545.6" font-family="Times,serif" font-weight="bold" font-size="18.00">Virtual Add&#45;on Bus</text>
<text text-anchor="start" x="728" y="-530.8" font-family="Times,serif" font-style="italic" font-size="14.00" fill="#777777">CPeripheralBusAddon</text>
</g>
<g id="clust6" class="cluster">
<title>cluster_4_2</title>
<polygon fill="red" stroke="red" points="771,-255 771,-307 841,-307 841,-255 771,-255"/>
</g>
<g id="clust7" class="cluster">
<title>cluster_4_3</title>
<polygon fill="white" stroke="white" points="679.5,-39 679.5,-239 932.5,-239 932.5,-39 679.5,-39"/>
<text text-anchor="start" x="687.5" y="-221.6" font-family="Times,serif" font-weight="bold" font-size="18.00">Virtual Application Bus</text>
<text text-anchor="start" x="709.5" y="-206.8" font-family="Times,serif" font-style="italic" font-size="14.00" fill="#777777">CPeripheralBusApplication</text>
</g>
<g id="clust12" class="cluster">
<title>cluster_9</title>
<polygon fill="red" stroke="white" points="1282,-363 1282,-445 1730,-445 1730,-363 1282,-363"/>
<text text-anchor="start" x="1403.5" y="-426" font-family="Times,serif" font-weight="bold" font-size="20.00" fill="white">Configuration GUI</text>
</g>
<g id="clust8" class="cluster">
<title>cluster_7</title>
<polygon fill="red" stroke="white" points="988,-31 988,-561 1234,-561 1234,-31 988,-31"/>
<text text-anchor="start" x="1036.5" y="-542" font-family="Times,serif" font-weight="bold" font-size="20.00" fill="white">Input Library</text>
</g>
<g id="clust9" class="cluster">
<title>cluster_7_1</title>
<polygon fill="red" stroke="red" points="996,-363 996,-523 1226,-523 1226,-363 996,-363"/>
</g>
<g id="clust10" class="cluster">
<title>cluster_7_2</title>
<polygon fill="red" stroke="red" points="1076,-255 1076,-307 1146,-307 1146,-255 1076,-255"/>
</g>
<g id="clust11" class="cluster">
<title>cluster_7_3</title>
<polygon fill="red" stroke="red" points="1013.5,-39 1013.5,-199 1208.5,-199 1208.5,-39 1013.5,-39"/>
</g>
<!-- _1 -->
<g id="node1" class="node">
<title>_1</title>
<polygon fill="white" stroke="black" points="91,-515 20,-515 20,-479 91,-479 91,-515"/>
<text text-anchor="start" x="28" y="-494.3" font-family="Arial" font-weight="bold" font-size="14.00">Joystick</text>
</g>
<!-- _2 -->
<g id="node2" class="node">
<title>_2</title>
<polygon fill="white" stroke="black" points="91,-407 20,-407 20,-371 91,-371 91,-407"/>
<text text-anchor="start" x="28" y="-392.8" font-family="Arial" font-weight="bold" font-size="14.00">Joystick</text>
<text text-anchor="start" x="37" y="-378.8" font-family="Arial" font-weight="bold" font-size="14.00">Event</text>
</g>
<!-- _6 -->
<g id="node6" class="node">
<title>_6</title>
<polygon fill="white" stroke="black" points="364,-407 174,-407 174,-371 364,-371 364,-407"/>
<text text-anchor="start" x="215.5" y="-392.8" font-family="Arial" font-weight="bold" font-size="14.00">Peripheral Event</text>
<text text-anchor="start" x="182" y="-378.8" font-family="Arial" font-style="italic" font-size="14.00" fill="#777777">kodi::addon::PeripheralEvent</text>
</g>
<!-- _2&#45;&gt;_6 -->
<g id="edge1" class="edge">
<title>_2&#45;&gt;_6</title>
<path fill="none" stroke="black" stroke-width="3" d="M91.24,-389C91.24,-389 163.73,-389 163.73,-389"/>
<polygon fill="black" stroke="black" stroke-width="3" points="163.73,-392.5 173.73,-389 163.73,-385.5 163.73,-392.5"/>
</g>
<!-- _3 -->
<g id="node3" class="node">
<title>_3</title>
<polygon fill="white" stroke="black" points="95,-299 16,-299 16,-263 95,-263 95,-299"/>
<text text-anchor="start" x="24" y="-278.3" font-family="Arial" font-weight="bold" font-size="14.00">Keyboard</text>
</g>
<!-- _4 -->
<g id="node4" class="node">
<title>_4</title>
<polygon fill="white" stroke="black" points="95,-191 16,-191 16,-155 95,-155 95,-191"/>
<text text-anchor="start" x="24" y="-176.8" font-family="Arial" font-weight="bold" font-size="14.00">Keyboard</text>
<text text-anchor="start" x="37" y="-162.8" font-family="Arial" font-weight="bold" font-size="14.00">Event</text>
</g>
<!-- _5 -->
<g id="node5" class="node">
<title>_5</title>
<polygon fill="white" stroke="black" points="306,-515 232,-515 232,-479 306,-479 306,-515"/>
<text text-anchor="start" x="241.5" y="-500.8" font-family="Arial" font-weight="bold" font-size="14.00">Joystick</text>
<text text-anchor="start" x="240" y="-486.8" font-family="Arial" font-style="italic" font-size="14.00" fill="#777777">CJoystick</text>
</g>
<!-- _9 -->
<g id="node9" class="node">
<title>_9</title>
<polygon fill="white" stroke="black" points="603.5,-407 448.5,-407 448.5,-371 603.5,-371 603.5,-407"/>
<text text-anchor="start" x="500" y="-392.8" font-family="Arial" font-weight="bold" font-size="14.00">C struct</text>
<text text-anchor="start" x="456.5" y="-378.8" font-family="Arial" font-style="italic" font-size="14.00" fill="#777777">PERIPHERAL_EVENT</text>
</g>
<!-- _6&#45;&gt;_9 -->
<g id="edge2" class="edge">
<title>_6&#45;&gt;_9</title>
<path fill="none" stroke="black" stroke-width="3" d="M364.33,-389C364.33,-389 438.45,-389 438.45,-389"/>
<polygon fill="black" stroke="black" stroke-width="3" points="438.45,-392.5 448.45,-389 438.45,-385.5 438.45,-392.5"/>
</g>
<!-- _7 -->
<g id="node7" class="node">
<title>_7</title>
<polygon fill="white" stroke="black" points="369,-299 169,-299 169,-263 369,-263 369,-299"/>
<text text-anchor="start" x="233" y="-284.8" font-family="Arial" font-weight="bold" font-size="14.00">ButtonMap</text>
<text text-anchor="start" x="177" y="-270.8" font-family="Arial" font-style="italic" font-size="14.00" fill="#777777">kodi::addon::JoystickFeatures*</text>
</g>
<!-- _10 -->
<g id="node10" class="node">
<title>_10</title>
<polygon fill="white" stroke="black" points="605,-299 447,-299 447,-263 605,-263 605,-299"/>
<text text-anchor="start" x="496.5" y="-284.8" font-family="Arial" font-weight="bold" font-size="14.00">C structs</text>
<text text-anchor="start" x="455" y="-270.8" font-family="Arial" font-style="italic" font-size="14.00" fill="#777777">JOYSTICK_FEATURE*</text>
</g>
<!-- _7&#45;&gt;_10 -->
<g id="edge3" class="edge">
<title>_7&#45;&gt;_10</title>
<path fill="none" stroke="black" stroke-width="3" d="M379.1,-281C379.1,-281 446.85,-281 446.85,-281"/>
<polygon fill="black" stroke="black" stroke-width="3" points="379.1,-277.5 369.1,-281 379.1,-284.5 379.1,-277.5"/>
</g>
<!-- _8 -->
<g id="node8" class="node">
<title>_8</title>
<polygon fill="white" stroke="black" points="588,-515 464,-515 464,-479 588,-479 588,-515"/>
<text text-anchor="start" x="500" y="-500.8" font-family="Arial" font-weight="bold" font-size="14.00">C struct</text>
<text text-anchor="start" x="472" y="-486.8" font-family="Arial" font-style="italic" font-size="14.00" fill="#777777">JOYSTICK_INFO</text>
</g>
<!-- _12 -->
<g id="node12" class="node">
<title>_12</title>
<polygon fill="white" stroke="black" points="882,-407 730,-407 730,-371 882,-371 882,-407"/>
<text text-anchor="start" x="756.5" y="-392.8" font-family="Arial" font-weight="bold" font-size="14.00">Event Handling</text>
<text text-anchor="start" x="738" y="-378.8" font-family="Arial" font-style="italic" font-size="14.00" fill="#777777">IJoystickDriverHandler</text>
</g>
<!-- _9&#45;&gt;_12 -->
<g id="edge5" class="edge">
<title>_9&#45;&gt;_12</title>
<path fill="none" stroke="black" stroke-width="3" d="M603.62,-389C603.62,-389 719.68,-389 719.68,-389"/>
<polygon fill="black" stroke="black" stroke-width="3" points="719.68,-392.5 729.68,-389 719.68,-385.5 719.68,-392.5"/>
</g>
<!-- _20 -->
<g id="node18" class="node">
<title>_20</title>
<polygon fill="white" stroke="black" points="1200.5,-83 1021.5,-83 1021.5,-47 1200.5,-47 1200.5,-83"/>
<text text-anchor="start" x="1073" y="-68.8" font-family="Arial" font-weight="bold" font-size="14.00">Button Map</text>
<text text-anchor="start" x="1029.5" y="-54.8" font-family="Arial" font-style="italic" font-size="14.00" fill="#777777">CAddonJoystickButtonMap</text>
</g>
<!-- _10&#45;&gt;_20 -->
<g id="edge4" class="edge">
<title>_10&#45;&gt;_20</title>
<path fill="none" stroke="black" stroke-width="3" d="M526,-252.73C526,-252.73 526,-119 526,-119 526,-119 1111,-119 1111,-119 1111,-119 1111,-98.95 1111,-83.28"/>
<polygon fill="black" stroke="black" stroke-width="3" points="522.5,-252.73 526,-262.73 529.5,-252.73 522.5,-252.73"/>
</g>
<!-- _11 -->
<g id="node11" class="node">
<title>_11</title>
<polygon fill="white" stroke="black" points="876,-515 736,-515 736,-479 876,-479 876,-515"/>
<text text-anchor="start" x="744" y="-500.8" font-family="Arial" font-weight="bold" font-size="14.00">Joystick Peripheral</text>
<text text-anchor="start" x="746" y="-486.8" font-family="Arial" font-style="italic" font-size="14.00" fill="#777777">CPeripheralJoystick</text>
</g>
<!-- _16 -->
<g id="node16" class="node">
<title>_16</title>
<polygon fill="white" stroke="black" points="1218,-407 1004,-407 1004,-371 1218,-371 1218,-407"/>
<text text-anchor="start" x="1059" y="-392.8" font-family="Arial" font-weight="bold" font-size="14.00">Button Mapping</text>
<text text-anchor="start" x="1012" y="-378.8" font-family="Arial" font-style="italic" font-size="14.00" fill="#777777">CGenericJoystickButtonMapping</text>
</g>
<!-- _12&#45;&gt;_16 -->
<g id="edge6" class="edge">
<title>_12&#45;&gt;_16</title>
<path fill="none" stroke="black" stroke-width="3" d="M882.18,-389C882.18,-389 993.89,-389 993.89,-389"/>
<polygon fill="black" stroke="black" stroke-width="3" points="993.89,-392.5 1003.89,-389 993.89,-385.5 993.89,-392.5"/>
</g>
<!-- _13 -->
<g id="node13" class="node">
<title>_13</title>
<polygon fill="white" stroke="black" points="880.5,-191 731.5,-191 731.5,-155 880.5,-155 880.5,-191"/>
<text text-anchor="start" x="739.5" y="-176.8" font-family="Arial" font-weight="bold" font-size="14.00">Keyboard Peripheral</text>
<text text-anchor="start" x="741" y="-162.8" font-family="Arial" font-style="italic" font-size="14.00" fill="#777777">CPeripheralKeyboard</text>
</g>
<!-- _14 -->
<g id="node14" class="node">
<title>_14</title>
<polygon fill="white" stroke="black" points="876,-83 736,-83 736,-47 876,-47 876,-83"/>
<text text-anchor="start" x="744" y="-68.8" font-family="Arial" font-weight="bold" font-size="14.00">Keyboard Handling</text>
<text text-anchor="start" x="751.5" y="-54.8" font-family="Arial" font-style="italic" font-size="14.00" fill="#777777">IKeyboardHandler</text>
</g>
<!-- _15 -->
<g id="node15" class="node">
<title>_15</title>
<polygon fill="white" stroke="black" points="1214,-515 1008,-515 1008,-479 1214,-479 1214,-515"/>
<text text-anchor="start" x="1063.5" y="-500.8" font-family="Arial" font-weight="bold" font-size="14.00">Input Handling</text>
<text text-anchor="start" x="1016" y="-486.8" font-family="Arial" font-style="italic" font-size="14.00" fill="#777777">CGenericJoystickInputHandling</text>
</g>
<!-- _23 -->
<g id="node19" class="node">
<title>_23</title>
<polygon fill="white" stroke="black" points="1468,-407 1290,-407 1290,-371 1468,-371 1468,-407"/>
<text text-anchor="start" x="1334.5" y="-392.8" font-family="Arial" font-weight="bold" font-size="14.00">Button Dialog</text>
<text text-anchor="start" x="1298" y="-378.8" font-family="Arial" font-style="italic" font-size="14.00" fill="#777777">CGUIDialogControllerInput</text>
</g>
<!-- _16&#45;&gt;_23 -->
<g id="edge7" class="edge">
<title>_16&#45;&gt;_23</title>
<path fill="none" stroke="black" stroke-width="3" d="M1228.08,-389C1228.08,-389 1279.75,-389 1279.75,-389"/>
<polygon fill="black" stroke="black" stroke-width="3" points="1279.75,-392.5 1289.75,-389 1279.75,-385.5 1279.75,-392.5"/>
<polygon fill="black" stroke="black" stroke-width="3" points="1228.08,-385.5 1218.08,-389 1228.08,-392.5 1228.08,-385.5"/>
</g>
<!-- _19 -->
<g id="node17" class="node">
<title>_19</title>
<polygon fill="white" stroke="black" points="1198.5,-191 1023.5,-191 1023.5,-155 1198.5,-155 1198.5,-191"/>
<text text-anchor="start" x="1053.5" y="-176.8" font-family="Arial" font-weight="bold" font-size="14.00">Joystick Imitation</text>
<text text-anchor="start" x="1031.5" y="-162.8" font-family="Arial" font-style="italic" font-size="14.00" fill="#777777">CGenericKeyboadHandler</text>
</g>
<!-- _20&#45;&gt;_16 -->
<g id="edge9" class="edge">
<title>_20&#45;&gt;_16</title>
<path fill="none" stroke="black" stroke-width="3" d="M1013.84,-65C1013.84,-65 1013,-65 1013,-65 1013,-65 1013,-302.11 1013,-370.65"/>
<polygon fill="black" stroke="black" stroke-width="3" points="1011.36,-68.5 1021.36,-65 1011.36,-61.5 1011.36,-68.5"/>
</g>
<!-- _24 -->
<g id="node20" class="node">
<title>_24</title>
<polygon fill="white" stroke="black" points="1722,-407 1540,-407 1540,-371 1722,-371 1722,-407"/>
<text text-anchor="start" x="1548" y="-392.8" font-family="Arial" font-weight="bold" font-size="14.00">Game Controller Add&#45;ons</text>
<text text-anchor="start" x="1577.5" y="-378.8" font-family="Arial" font-style="italic" font-size="14.00" fill="#777777">CGameController</text>
</g>
<!-- _23&#45;&gt;_24 -->
<g id="edge8" class="edge">
<title>_23&#45;&gt;_24</title>
<path fill="none" stroke="black" stroke-width="3" d="M1478.2,-389C1478.2,-389 1539.79,-389 1539.79,-389"/>
<polygon fill="black" stroke="black" stroke-width="3" points="1478.2,-385.5 1468.2,-389 1478.2,-392.5 1478.2,-385.5"/>
</g>
<g id="node21" class="node">
<title></title>
<polygon fill="none" stroke="red" points="833,-299 779,-299 779,-263 833,-263 833,-299"/>
</g>
<!-- &#45; -->
<g id="node22" class="node">
<title>&#45;</title>
<polygon fill="none" stroke="red" points="1138,-299 1084,-299 1084,-263 1138,-263 1138,-299"/>
<text text-anchor="middle" x="1111" y="-277.3" font-family="Arial" font-size="14.00" fill="red">&#45;</text>
</g>
</g>
</svg>
