<?xml version="1.0" encoding="UTF-8" standalone="no"?>
<!DOCTYPE svg PUBLIC "-//W3C//DTD SVG 1.1//EN"
 "http://www.w3.org/Graphics/SVG/1.1/DTD/svg11.dtd">
<!-- Generated by graphviz version 2.43.0 (0)
 -->
<!-- Title: D Pages: 1 -->
<svg width="1393pt" height="939pt"
 viewBox="0.00 0.00 1393.00 939.00" xmlns="http://www.w3.org/2000/svg" xmlns:xlink="http://www.w3.org/1999/xlink">
<g id="graph0" class="graph" transform="scale(1 1) rotate(0) translate(4 935)">
<title>D</title>
<polygon fill="white" stroke="transparent" points="-4,4 -4,-935 1389,-935 1389,4 -4,4"/>
<text text-anchor="middle" x="692.5" y="-7.8" font-family="Times,serif" font-size="14.00" fill="white">Orthogonal edges</text>
<g id="clust1" class="cluster">
<title>cluster_2</title>
<polygon fill="red" stroke="white" points="8,-617 8,-915 224,-915 224,-617 8,-617"/>
<text text-anchor="start" x="36" y="-896" font-family="Times,serif" font-weight="bold" font-size="20.00" fill="white">Peripheral Add&#45;on</text>
</g>
<g id="clust2" class="cluster">
<title>cluster_3</title>
<polygon fill="red" stroke="white" points="280,-617 280,-915 455,-915 455,-617 280,-617"/>
<text text-anchor="start" x="302.5" y="-896" font-family="Times,serif" font-weight="bold" font-size="20.00" fill="white">Peripheral API</text>
</g>
<g id="clust3" class="cluster">
<title>cluster_4</title>
<polygon fill="red" stroke="white" points="502,-31 502,-601 717,-601 717,-31 502,-31"/>
<text text-anchor="start" x="533" y="-582" font-family="Times,serif" font-weight="bold" font-size="20.00" fill="white">Peripheral Busses</text>
</g>
<g id="clust4" class="cluster">
<title>cluster_4_1</title>
<polygon fill="white" stroke="white" points="525.5,-363 525.5,-563 693.5,-563 693.5,-363 525.5,-363"/>
<text text-anchor="start" x="534.5" y="-545.6" font-family="Times,serif" font-weight="bold" font-size="18.00">Virtual Add&#45;on Bus</text>
<text text-anchor="start" x="547.5" y="-530.8" font-family="Times,serif" font-style="italic" font-size="14.00" fill="#777777">CPeripheralBusAddon</text>
</g>
<g id="clust5" class="cluster">
<title>cluster_4_2</title>
<polygon fill="red" stroke="red" points="574.5,-255 574.5,-307 644.5,-307 644.5,-255 574.5,-255"/>
</g>
<g id="clust6" class="cluster">
<title>cluster_4_3</title>
<polygon fill="white" stroke="white" points="510,-39 510,-239 709,-239 709,-39 510,-39"/>
<text text-anchor="start" x="518" y="-221.6" font-family="Times,serif" font-weight="bold" font-size="18.00">Virtual Application Bus</text>
<text text-anchor="start" x="534" y="-206.8" font-family="Times,serif" font-style="italic" font-size="14.00" fill="#777777">CPeripheralBusApplication</text>
</g>
<g id="clust11" class="cluster">
<title>cluster_8</title>
<polygon fill="red" stroke="white" points="1058,-725 1058,-807 1377,-807 1377,-725 1058,-725"/>
<text text-anchor="start" x="1172.5" y="-788" font-family="Times,serif" font-weight="bold" font-size="20.00" fill="white">Game API</text>
</g>
<g id="clust7" class="cluster">
<title>cluster_7</title>
<polygon fill="red" stroke="white" points="504,-609 504,-923 1010,-923 1010,-609 504,-609"/>
<text text-anchor="start" x="696.5" y="-904" font-family="Times,serif" font-weight="bold" font-size="20.00" fill="white">Input Library</text>
</g>
<g id="clust8" class="cluster">
<title>cluster_7_1</title>
<polygon fill="red" stroke="red" points="772,-617 772,-777 1002,-777 1002,-617 772,-617"/>
</g>
<g id="clust9" class="cluster">
<title>cluster_7_2</title>
<polygon fill="red" stroke="red" points="574.5,-833 574.5,-885 644.5,-885 644.5,-833 574.5,-833"/>
</g>
<g id="clust10" class="cluster">
<title>cluster_7_3</title>
<polygon fill="red" stroke="red" points="512,-617 512,-777 707,-777 707,-617 512,-617"/>
</g>
<!-- _5 -->
<g id="node1" class="node">
<title>_5</title>
<polygon fill="white" stroke="black" points="153,-877 79,-877 79,-841 153,-841 153,-877"/>
<text text-anchor="start" x="88.5" y="-862.8" font-family="Arial" font-weight="bold" font-size="14.00">Joystick</text>
<text text-anchor="start" x="87" y="-848.8" font-family="Arial" font-style="italic" font-size="14.00" fill="#777777">CJoystick</text>
</g>
<!-- _6 -->
<g id="node2" class="node">
<title>_6</title>
<polygon fill="white" stroke="black" points="211,-769 21,-769 21,-733 211,-733 211,-769"/>
<text text-anchor="start" x="62.5" y="-754.8" font-family="Arial" font-weight="bold" font-size="14.00">Peripheral Event</text>
<text text-anchor="start" x="29" y="-740.8" font-family="Arial" font-style="italic" font-size="14.00" fill="#777777">kodi::addon::PeripheralEvent</text>
</g>
<!-- _7 -->
<g id="node3" class="node">
<title>_7</title>
<polygon fill="white" stroke="black" points="216,-661 16,-661 16,-625 216,-625 216,-661"/>
<text text-anchor="start" x="80" y="-646.8" font-family="Arial" font-weight="bold" font-size="14.00">ButtonMap</text>
<text text-anchor="start" x="24" y="-632.8" font-family="Arial" font-style="italic" font-size="14.00" fill="#777777">kodi::addon::JoystickFeatures*</text>
</g>
<!-- _10 -->
<g id="node6" class="node">
<title>_10</title>
<polygon fill="white" stroke="black" points="447,-661 288,-661 288,-625 447,-625 447,-661"/>
<text text-anchor="start" x="338" y="-646.8" font-family="Arial" font-weight="bold" font-size="14.00">C structs</text>
<text text-anchor="start" x="296" y="-632.8" font-family="Arial" font-style="italic" font-size="14.00" fill="#777777">JOYSTICK_FEATURE*</text>
</g>
<!-- _7&#45;&gt;_10 -->
<g id="edge1" class="edge">
<title>_7&#45;&gt;_10</title>
<path fill="none" stroke="black" stroke-width="3" d="M216.12,-643C216.12,-643 277.85,-643 277.85,-643"/>
<polygon fill="black" stroke="black" stroke-width="3" points="277.85,-646.5 287.85,-643 277.85,-639.5 277.85,-646.5"/>
</g>
<!-- _8 -->
<g id="node4" class="node">
<title>_8</title>
<polygon fill="white" stroke="black" points="429.5,-877 305.5,-877 305.5,-841 429.5,-841 429.5,-877"/>
<text text-anchor="start" x="341.5" y="-862.8" font-family="Arial" font-weight="bold" font-size="14.00">C struct</text>
<text text-anchor="start" x="313.5" y="-848.8" font-family="Arial" font-style="italic" font-size="14.00" fill="#777777">JOYSTICK_INFO</text>
</g>
<!-- _9 -->
<g id="node5" class="node">
<title>_9</title>
<polygon fill="white" stroke="black" points="445,-769 290,-769 290,-733 445,-733 445,-769"/>
<text text-anchor="start" x="341.5" y="-754.8" font-family="Arial" font-weight="bold" font-size="14.00">C struct</text>
<text text-anchor="start" x="298" y="-740.8" font-family="Arial" font-style="italic" font-size="14.00" fill="#777777">PERIPHERAL_EVENT</text>
</g>
<!-- _20 -->
<g id="node14" class="node">
<title>_20</title>
<polygon fill="white" stroke="black" points="699,-661 520,-661 520,-625 699,-625 699,-661"/>
<text text-anchor="start" x="571.5" y="-646.8" font-family="Arial" font-weight="bold" font-size="14.00">Button Map</text>
<text text-anchor="start" x="528" y="-632.8" font-family="Arial" font-style="italic" font-size="14.00" fill="#777777">CAddonJoystickButtonMap</text>
</g>
<!-- _10&#45;&gt;_20 -->
<g id="edge2" class="edge">
<title>_10&#45;&gt;_20</title>
<path fill="none" stroke="black" stroke-width="3" d="M447.08,-643C447.08,-643 509.83,-643 509.83,-643"/>
<polygon fill="black" stroke="black" stroke-width="3" points="509.83,-646.5 519.83,-643 509.83,-639.5 509.83,-646.5"/>
</g>
<!-- _11 -->
<g id="node7" class="node">
<title>_11</title>
<polygon fill="white" stroke="black" points="679.5,-515 539.5,-515 539.5,-479 679.5,-479 679.5,-515"/>
<text text-anchor="start" x="547.5" y="-500.8" font-family="Arial" font-weight="bold" font-size="14.00">Joystick Peripheral</text>
<text text-anchor="start" x="549.5" y="-486.8" font-family="Arial" font-style="italic" font-size="14.00" fill="#777777">CPeripheralJoystick</text>
</g>
<!-- _12 -->
<g id="node8" class="node">
<title>_12</title>
<polygon fill="white" stroke="black" points="685.5,-407 533.5,-407 533.5,-371 685.5,-371 685.5,-407"/>
<text text-anchor="start" x="560" y="-392.8" font-family="Arial" font-weight="bold" font-size="14.00">Event Handling</text>
<text text-anchor="start" x="541.5" y="-378.8" font-family="Arial" font-style="italic" font-size="14.00" fill="#777777">IJoystickDriverHandler</text>
</g>
<!-- _15 -->
<g id="node11" class="node">
<title>_15</title>
<polygon fill="white" stroke="black" points="990,-769 784,-769 784,-733 990,-733 990,-769"/>
<text text-anchor="start" x="839.5" y="-754.8" font-family="Arial" font-weight="bold" font-size="14.00">Input Handling</text>
<text text-anchor="start" x="792" y="-740.8" font-family="Arial" font-style="italic" font-size="14.00" fill="#777777">CGenericJoystickInputHandling</text>
</g>
<!-- _12&#45;&gt;_15 -->
<g id="edge4" class="edge">
<title>_12&#45;&gt;_15</title>
<path fill="none" stroke="black" stroke-width="3" d="M685.87,-389C720.14,-389 753,-389 753,-389 753,-389 753,-745 753,-745 753,-745 773.74,-745 773.74,-745"/>
<polygon fill="black" stroke="black" stroke-width="3" points="773.74,-748.5 783.74,-745 773.74,-741.5 773.74,-748.5"/>
</g>
<!-- _13 -->
<g id="node9" class="node">
<title>_13</title>
<polygon fill="white" stroke="black" points="684,-191 535,-191 535,-155 684,-155 684,-191"/>
<text text-anchor="start" x="543" y="-176.8" font-family="Arial" font-weight="bold" font-size="14.00">Keyboard Peripheral</text>
<text text-anchor="start" x="544.5" y="-162.8" font-family="Arial" font-style="italic" font-size="14.00" fill="#777777">CPeripheralKeyboard</text>
</g>
<!-- _14 -->
<g id="node10" class="node">
<title>_14</title>
<polygon fill="white" stroke="black" points="679.5,-83 539.5,-83 539.5,-47 679.5,-47 679.5,-83"/>
<text text-anchor="start" x="547.5" y="-68.8" font-family="Arial" font-weight="bold" font-size="14.00">Keyboard Handling</text>
<text text-anchor="start" x="555" y="-54.8" font-family="Arial" font-style="italic" font-size="14.00" fill="#777777">IKeyboardHandler</text>
</g>
<!-- _21 -->
<g id="node15" class="node">
<title>_21</title>
<polygon fill="white" stroke="black" points="1190,-769 1066,-769 1066,-733 1190,-733 1190,-769"/>
<text text-anchor="start" x="1074" y="-754.8" font-family="Arial" font-weight="bold" font-size="14.00">Game Controller</text>
<text text-anchor="start" x="1078.5" y="-740.8" font-family="Arial" font-style="italic" font-size="14.00" fill="#777777">CControllerInput</text>
</g>
<!-- _15&#45;&gt;_21 -->
<g id="edge5" class="edge">
<title>_15&#45;&gt;_21</title>
<path fill="none" stroke="black" stroke-width="3" d="M990.25,-751C990.25,-751 1055.7,-751 1055.7,-751"/>
<polygon fill="black" stroke="black" stroke-width="3" points="1055.7,-754.5 1065.7,-751 1055.7,-747.5 1055.7,-754.5"/>
</g>
<!-- _16 -->
<g id="node12" class="node">
<title>_16</title>
<polygon fill="white" stroke="black" points="994,-661 780,-661 780,-625 994,-625 994,-661"/>
<text text-anchor="start" x="835" y="-646.8" font-family="Arial" font-weight="bold" font-size="14.00">Button Mapping</text>
<text text-anchor="start" x="788" y="-632.8" font-family="Arial" font-style="italic" font-size="14.00" fill="#777777">CGenericJoystickButtonMapping</text>
</g>
<!-- _19 -->
<g id="node13" class="node">
<title>_19</title>
<polygon fill="white" stroke="black" points="697,-769 522,-769 522,-733 697,-733 697,-769"/>
<text text-anchor="start" x="552" y="-754.8" font-family="Arial" font-weight="bold" font-size="14.00">Joystick Imitation</text>
<text text-anchor="start" x="530" y="-740.8" font-family="Arial" font-style="italic" font-size="14.00" fill="#777777">CGenericKeyboadHandler</text>
</g>
<!-- _20&#45;&gt;_15 -->
<g id="edge3" class="edge">
<title>_20&#45;&gt;_15</title>
<path fill="none" stroke="black" stroke-width="3" d="M699.27,-643C714.76,-643 726,-643 726,-643 726,-643 726,-757 726,-757 726,-757 773.67,-757 773.67,-757"/>
<polygon fill="black" stroke="black" stroke-width="3" points="773.67,-760.5 783.67,-757 773.67,-753.5 773.67,-760.5"/>
</g>
<!-- _22 -->
<g id="node16" class="node">
<title>_22</title>
<polygon fill="white" stroke="black" points="1369,-769 1262,-769 1262,-733 1369,-733 1369,-769"/>
<text text-anchor="start" x="1270" y="-754.8" font-family="Arial" font-weight="bold" font-size="14.00">Game Add&#45;on</text>
<text text-anchor="start" x="1274" y="-740.8" font-family="Arial" font-style="italic" font-size="14.00" fill="#777777">CGameClient</text>
</g>
<!-- _21&#45;&gt;_22 -->
<g id="edge6" class="edge">
<title>_21&#45;&gt;_22</title>
<path fill="none" stroke="black" stroke-width="3" d="M1190.17,-751C1190.17,-751 1251.97,-751 1251.97,-751"/>
<polygon fill="black" stroke="black" stroke-width="3" points="1251.97,-754.5 1261.97,-751 1251.97,-747.5 1251.97,-754.5"/>
</g>
<g id="node17" class="node">
<title></title>
<polygon fill="none" stroke="red" points="636.5,-299 582.5,-299 582.5,-263 636.5,-263 636.5,-299"/>
</g>
<!-- &#45; -->
<g id="node18" class="node">
<title>&#45;</title>
<polygon fill="none" stroke="red" points="636.5,-877 582.5,-877 582.5,-841 636.5,-841 636.5,-877"/>
<text text-anchor="middle" x="609.5" y="-855.3" font-family="Arial" font-size="14.00" fill="red">&#45;</text>
</g>
</g>
</svg>
