<?xml version="1.0" encoding="UTF-8" standalone="no"?>
<!DOCTYPE svg PUBLIC "-//W3C//DTD SVG 1.1//EN"
 "http://www.w3.org/Graphics/SVG/1.1/DTD/svg11.dtd">
<!-- Generated by graphviz version 2.43.0 (0)
 -->
<!-- Title: D Pages: 1 -->
<svg width="949pt" height="617pt"
 viewBox="0.00 0.00 948.50 617.00" xmlns="http://www.w3.org/2000/svg" xmlns:xlink="http://www.w3.org/1999/xlink">
<g id="graph0" class="graph" transform="scale(1 1) rotate(0) translate(4 613)">
<title>D</title>
<polygon fill="white" stroke="transparent" points="-4,4 -4,-613 944.5,-613 944.5,4 -4,4"/>
<text text-anchor="middle" x="470.25" y="-7.8" font-family="Times,serif" font-size="14.00" fill="white">Orthogonal edges</text>
<g id="clust1" class="cluster">
<title>cluster_1</title>
<polygon fill="red" stroke="white" points="8,-147 8,-553 103,-553 103,-147 8,-147"/>
<text text-anchor="start" x="39.5" y="-534" font-family="Times,serif" font-weight="bold" font-size="20.00" fill="white">OS</text>
</g>
<g id="clust2" class="cluster">
<title>cluster_2</title>
<polygon fill="red" stroke="white" points="159,-255 159,-553 380,-553 380,-255 159,-255"/>
<text text-anchor="start" x="167" y="-534" font-family="Times,serif" font-weight="bold" font-size="20.00" fill="white">Peripheral Add&#45;on</text>
</g>
<g id="clust3" class="cluster">
<title>cluster_3</title>
<polygon fill="red" stroke="white" points="436,-255 436,-553 616,-553 616,-255 436,-255"/>
<text text-anchor="start" x="444" y="-534" font-family="Times,serif" font-weight="bold" font-size="20.00" fill="white">Peripheral API</text>
</g>
<g id="clust4" class="cluster">
<title>cluster_4</title>
<polygon fill="red" stroke="white" points="671.5,-31 671.5,-601 940.5,-601 940.5,-31 671.5,-31"/>
<text text-anchor="start" x="705" y="-582" font-family="Times,serif" font-weight="bold" font-size="20.00" fill="white">Peripheral Busses</text>
</g>
<g id="clust5" class="cluster">
<title>cluster_4_1</title>
<polygon fill="white" stroke="white" points="702,-363 702,-563 911,-563 911,-363 702,-363"/>
<text text-anchor="start" x="710" y="-545.6" font-family="Times,serif" font-weight="bold" font-size="18.00">Virtual Add&#45;on Bus</text>
<text text-anchor="start" x="728" y="-530.8" font-family="Times,serif" font-style="italic" font-size="14.00" fill="#777777">CPeripheralBusAddon</text>
</g>
<g id="clust6" class="cluster">
<title>cluster_4_2</title>
<polygon fill="red" stroke="red" points="771,-255 771,-307 841,-307 841,-255 771,-255"/>
</g>
<g id="clust7" class="cluster">
<title>cluster_4_3</title>
<polygon fill="white" stroke="white" points="679.5,-39 679.5,-239 932.5,-239 932.5,-39 679.5,-39"/>
<text text-anchor="start" x="687.5" y="-221.6" font-family="Times,serif" font-weight="bold" font-size="18.00">Virtual Application Bus</text>
<text text-anchor="start" x="709.5" y="-206.8" font-family="Times,serif" font-style="italic" font-size="14.00" fill="#777777">CPeripheralBusApplication</text>
</g>
<!-- _1 -->
<g id="node1" class="node">
<title>_1</title>
<polygon fill="white" stroke="black" points="91,-515 20,-515 20,-479 91,-479 91,-515"/>
<text text-anchor="start" x="28" y="-494.3" font-family="Arial" font-weight="bold" font-size="14.00">Joystick</text>
</g>
<!-- _5 -->
<g id="node5" class="node">
<title>_5</title>
<polygon fill="white" stroke="black" points="306,-515 232,-515 232,-479 306,-479 306,-515"/>
<text text-anchor="start" x="241.5" y="-500.8" font-family="Arial" font-weight="bold" font-size="14.00">Joystick</text>
<text text-anchor="start" x="240" y="-486.8" font-family="Arial" font-style="italic" font-size="14.00" fill="#777777">CJoystick</text>
</g>
<!-- _1&#45;&gt;_5 -->
<g id="edge1" class="edge">
<title>_1&#45;&gt;_5</title>
<path fill="none" stroke="black" stroke-width="3" d="M91.24,-497C91.24,-497 221.71,-497 221.71,-497"/>
<polygon fill="black" stroke="black" stroke-width="3" points="221.71,-500.5 231.71,-497 221.71,-493.5 221.71,-500.5"/>
</g>
<!-- _2 -->
<g id="node2" class="node">
<title>_2</title>
<polygon fill="white" stroke="black" points="91,-407 20,-407 20,-371 91,-371 91,-407"/>
<text text-anchor="start" x="28" y="-392.8" font-family="Arial" font-weight="bold" font-size="14.00">Joystick</text>
<text text-anchor="start" x="37" y="-378.8" font-family="Arial" font-weight="bold" font-size="14.00">Event</text>
</g>
<!-- _3 -->
<g id="node3" class="node">
<title>_3</title>
<polygon fill="white" stroke="black" points="95,-299 16,-299 16,-263 95,-263 95,-299"/>
<text text-anchor="start" x="24" y="-278.3" font-family="Arial" font-weight="bold" font-size="14.00">Keyboard</text>
</g>
<!-- _13 -->
<g id="node13" class="node">
<title>_13</title>
<polygon fill="white" stroke="black" points="880.5,-191 731.5,-191 731.5,-155 880.5,-155 880.5,-191"/>
<text text-anchor="start" x="739.5" y="-176.8" font-family="Arial" font-weight="bold" font-size="14.00">Keyboard Peripheral</text>
<text text-anchor="start" x="741" y="-162.8" font-family="Arial" font-style="italic" font-size="14.00" fill="#777777">CPeripheralKeyboard</text>
</g>
<!-- _3&#45;&gt;_13 -->
<g id="edge2" class="edge">
<title>_3&#45;&gt;_13</title>
<path fill="none" stroke="black" stroke-width="3" d="M95.09,-281C113.76,-281 132,-281 132,-281 132,-281 132,-173 132,-173 132,-173 721.29,-173 721.29,-173"/>
<polygon fill="black" stroke="black" stroke-width="3" points="721.3,-176.5 731.29,-173 721.29,-169.5 721.3,-176.5"/>
</g>
<!-- _4 -->
<g id="node4" class="node">
<title>_4</title>
<polygon fill="white" stroke="black" points="95,-191 16,-191 16,-155 95,-155 95,-191"/>
<text text-anchor="start" x="24" y="-176.8" font-family="Arial" font-weight="bold" font-size="14.00">Keyboard</text>
<text text-anchor="start" x="37" y="-162.8" font-family="Arial" font-weight="bold" font-size="14.00">Event</text>
</g>
<!-- _8 -->
<g id="node8" class="node">
<title>_8</title>
<polygon fill="white" stroke="black" points="588,-515 464,-515 464,-479 588,-479 588,-515"/>
<text text-anchor="start" x="500" y="-500.8" font-family="Arial" font-weight="bold" font-size="14.00">C struct</text>
<text text-anchor="start" x="472" y="-486.8" font-family="Arial" font-style="italic" font-size="14.00" fill="#777777">JOYSTICK_INFO</text>
</g>
<!-- _5&#45;&gt;_8 -->
<g id="edge3" class="edge">
<title>_5&#45;&gt;_8</title>
<path fill="none" stroke="black" stroke-width="3" d="M306.1,-497C306.1,-497 453.58,-497 453.58,-497"/>
<polygon fill="black" stroke="black" stroke-width="3" points="453.58,-500.5 463.58,-497 453.58,-493.5 453.58,-500.5"/>
</g>
<!-- _6 -->
<g id="node6" class="node">
<title>_6</title>
<polygon fill="white" stroke="black" points="364,-407 174,-407 174,-371 364,-371 364,-407"/>
<text text-anchor="start" x="215.5" y="-392.8" font-family="Arial" font-weight="bold" font-size="14.00">Peripheral Event</text>
<text text-anchor="start" x="182" y="-378.8" font-family="Arial" font-style="italic" font-size="14.00" fill="#777777">kodi::addon::PeripheralEvent</text>
</g>
<!-- _7 -->
<g id="node7" class="node">
<title>_7</title>
<polygon fill="white" stroke="black" points="369,-299 169,-299 169,-263 369,-263 369,-299"/>
<text text-anchor="start" x="233" y="-284.8" font-family="Arial" font-weight="bold" font-size="14.00">ButtonMap</text>
<text text-anchor="start" x="177" y="-270.8" font-family="Arial" font-style="italic" font-size="14.00" fill="#777777">kodi::addon::JoystickFeatures*</text>
</g>
<!-- _11 -->
<g id="node11" class="node">
<title>_11</title>
<polygon fill="white" stroke="black" points="876,-515 736,-515 736,-479 876,-479 876,-515"/>
<text text-anchor="start" x="744" y="-500.8" font-family="Arial" font-weight="bold" font-size="14.00">Joystick Peripheral</text>
<text text-anchor="start" x="746" y="-486.8" font-family="Arial" font-style="italic" font-size="14.00" fill="#777777">CPeripheralJoystick</text>
</g>
<!-- _8&#45;&gt;_11 -->
<g id="edge4" class="edge">
<title>_8&#45;&gt;_11</title>
<path fill="none" stroke="black" stroke-width="3" d="M588.14,-497C588.14,-497 725.91,-497 725.91,-497"/>
<polygon fill="black" stroke="black" stroke-width="3" points="725.91,-500.5 735.91,-497 725.91,-493.5 725.91,-500.5"/>
</g>
<!-- _9 -->
<g id="node9" class="node">
<title>_9</title>
<polygon fill="white" stroke="black" points="603.5,-407 448.5,-407 448.5,-371 603.5,-371 603.5,-407"/>
<text text-anchor="start" x="500" y="-392.8" font-family="Arial" font-weight="bold" font-size="14.00">C struct</text>
<text text-anchor="start" x="456.5" y="-378.8" font-family="Arial" font-style="italic" font-size="14.00" fill="#777777">PERIPHERAL_EVENT</text>
</g>
<!-- _10 -->
<g id="node10" class="node">
<title>_10</title>
<polygon fill="white" stroke="black" points="605,-299 447,-299 447,-263 605,-263 605,-299"/>
<text text-anchor="start" x="496.5" y="-284.8" font-family="Arial" font-weight="bold" font-size="14.00">C structs</text>
<text text-anchor="start" x="455" y="-270.8" font-family="Arial" font-style="italic" font-size="14.00" fill="#777777">JOYSTICK_FEATURE*</text>
</g>
<!-- _12 -->
<g id="node12" class="node">
<title>_12</title>
<polygon fill="white" stroke="black" points="882,-407 730,-407 730,-371 882,-371 882,-407"/>
<text text-anchor="start" x="756.5" y="-392.8" font-family="Arial" font-weight="bold" font-size="14.00">Event Handling</text>
<text text-anchor="start" x="738" y="-378.8" font-family="Arial" font-style="italic" font-size="14.00" fill="#777777">IJoystickDriverHandler</text>
</g>
<!-- _14 -->
<g id="node14" class="node">
<title>_14</title>
<polygon fill="white" stroke="black" points="876,-83 736,-83 736,-47 876,-47 876,-83"/>
<text text-anchor="start" x="744" y="-68.8" font-family="Arial" font-weight="bold" font-size="14.00">Keyboard Handling</text>
<text text-anchor="start" x="751.5" y="-54.8" font-family="Arial" font-style="italic" font-size="14.00" fill="#777777">IKeyboardHandler</text>
</g>
<g id="node15" class="node">
<title></title>
<polygon fill="none" stroke="red" points="833,-299 779,-299 779,-263 833,-263 833,-299"/>
</g>
</g>
</svg>
