<?xml version="1.0" encoding="UTF-8" standalone="no"?>
<!DOCTYPE svg PUBLIC "-//W3C//DTD SVG 1.1//EN"
 "http://www.w3.org/Graphics/SVG/1.1/DTD/svg11.dtd">
<!-- Generated by graphviz version 2.43.0 (0)
 -->
<!-- Title: D Pages: 1 -->
<svg width="1666pt" height="617pt"
 viewBox="0.00 0.00 1666.00 617.00" xmlns="http://www.w3.org/2000/svg" xmlns:xlink="http://www.w3.org/1999/xlink">
<g id="graph0" class="graph" transform="scale(1 1) rotate(0) translate(4 613)">
<title>D</title>
<polygon fill="white" stroke="transparent" points="-4,4 -4,-613 1662,-613 1662,4 -4,4"/>
<text text-anchor="middle" x="829" y="-7.8" font-family="Times,serif" font-size="14.00" fill="white">Orthogonal edges</text>
<g id="clust1" class="cluster">
<title>cluster_1</title>
<polygon fill="red" stroke="white" points="8,-147 8,-553 103,-553 103,-147 8,-147"/>
<text text-anchor="start" x="41.5" y="-534" font-family="Times,serif" font-weight="bold" font-size="20.00" fill="white">OS</text>
</g>
<g id="clust2" class="cluster">
<title>cluster_2</title>
<polygon fill="red" stroke="white" points="159,-255 159,-553 375,-553 375,-255 159,-255"/>
<text text-anchor="start" x="187" y="-534" font-family="Times,serif" font-weight="bold" font-size="20.00" fill="white">Peripheral Add&#45;on</text>
</g>
<g id="clust3" class="cluster">
<title>cluster_3</title>
<polygon fill="red" stroke="white" points="431,-255 431,-553 606,-553 606,-255 431,-255"/>
<text text-anchor="start" x="453.5" y="-534" font-family="Times,serif" font-weight="bold" font-size="20.00" fill="white">Peripheral API</text>
</g>
<g id="clust4" class="cluster">
<title>cluster_4</title>
<polygon fill="red" stroke="white" points="653.5,-31 653.5,-601 868.5,-601 868.5,-31 653.5,-31"/>
<text text-anchor="start" x="684.5" y="-582" font-family="Times,serif" font-weight="bold" font-size="20.00" fill="white">Peripheral Busses</text>
</g>
<g id="clust5" class="cluster">
<title>cluster_4_1</title>
<polygon fill="white" stroke="white" points="677,-363 677,-563 845,-563 845,-363 677,-363"/>
<text text-anchor="start" x="686" y="-545.6" font-family="Times,serif" font-weight="bold" font-size="18.00">Virtual Add&#45;on Bus</text>
<text text-anchor="start" x="699" y="-530.8" font-family="Times,serif" font-style="italic" font-size="14.00" fill="#777777">CPeripheralBusAddon</text>
</g>
<g id="clust6" class="cluster">
<title>cluster_4_2</title>
<polygon fill="red" stroke="red" points="726,-255 726,-307 796,-307 796,-255 726,-255"/>
</g>
<g id="clust7" class="cluster">
<title>cluster_4_3</title>
<polygon fill="white" stroke="white" points="661.5,-39 661.5,-239 860.5,-239 860.5,-39 661.5,-39"/>
<text text-anchor="start" x="669.5" y="-221.6" font-family="Times,serif" font-weight="bold" font-size="18.00">Virtual Application Bus</text>
<text text-anchor="start" x="685.5" y="-206.8" font-family="Times,serif" font-style="italic" font-size="14.00" fill="#777777">CPeripheralBusApplication</text>
</g>
<g id="clust12" class="cluster">
<title>cluster_9</title>
<polygon fill="red" stroke="white" points="1202,-363 1202,-445 1650,-445 1650,-363 1202,-363"/>
<text text-anchor="start" x="1344.5" y="-426" font-family="Times,serif" font-weight="bold" font-size="20.00" fill="white">Configuration GUI</text>
</g>
<g id="clust8" class="cluster">
<title>cluster_7</title>
<polygon fill="red" stroke="white" points="908,-31 908,-561 1154,-561 1154,-31 908,-31"/>
<text text-anchor="start" x="970.5" y="-542" font-family="Times,serif" font-weight="bold" font-size="20.00" fill="white">Input Library</text>
</g>
<g id="clust9" class="cluster">
<title>cluster_7_1</title>
<polygon fill="red" stroke="red" points="916,-363 916,-523 1146,-523 1146,-363 916,-363"/>
</g>
<g id="clust10" class="cluster">
<title>cluster_7_2</title>
<polygon fill="red" stroke="red" points="996,-255 996,-307 1066,-307 1066,-255 996,-255"/>
</g>
<g id="clust11" class="cluster">
<title>cluster_7_3</title>
<polygon fill="red" stroke="red" points="933.5,-39 933.5,-199 1128.5,-199 1128.5,-39 933.5,-39"/>
</g>
<!-- _1 -->
<g id="node1" class="node">
<title>_1</title>
<polygon fill="white" stroke="black" points="91,-515 20,-515 20,-479 91,-479 91,-515"/>
<text text-anchor="start" x="28" y="-494.3" font-family="Arial" font-weight="bold" font-size="14.00">Joystick</text>
</g>
<!-- _2 -->
<g id="node2" class="node">
<title>_2</title>
<polygon fill="white" stroke="black" points="91,-407 20,-407 20,-371 91,-371 91,-407"/>
<text text-anchor="start" x="28" y="-392.8" font-family="Arial" font-weight="bold" font-size="14.00">Joystick</text>
<text text-anchor="start" x="37" y="-378.8" font-family="Arial" font-weight="bold" font-size="14.00">Event</text>
</g>
<!-- _6 -->
<g id="node6" class="node">
<title>_6</title>
<polygon fill="white" stroke="black" points="362,-407 172,-407 172,-371 362,-371 362,-407"/>
<text text-anchor="start" x="213.5" y="-392.8" font-family="Arial" font-weight="bold" font-size="14.00">Peripheral Event</text>
<text text-anchor="start" x="180" y="-378.8" font-family="Arial" font-style="italic" font-size="14.00" fill="#777777">kodi::addon::PeripheralEvent</text>
</g>
<!-- _2&#45;&gt;_6 -->
<g id="edge1" class="edge">
<title>_2&#45;&gt;_6</title>
<path fill="none" stroke="black" stroke-width="3" d="M91.38,-389C91.38,-389 161.64,-389 161.64,-389"/>
<polygon fill="black" stroke="black" stroke-width="3" points="161.64,-392.5 171.64,-389 161.64,-385.5 161.64,-392.5"/>
</g>
<!-- _3 -->
<g id="node3" class="node">
<title>_3</title>
<polygon fill="white" stroke="black" points="95,-299 16,-299 16,-263 95,-263 95,-299"/>
<text text-anchor="start" x="24" y="-278.3" font-family="Arial" font-weight="bold" font-size="14.00">Keyboard</text>
</g>
<!-- _4 -->
<g id="node4" class="node">
<title>_4</title>
<polygon fill="white" stroke="black" points="95,-191 16,-191 16,-155 95,-155 95,-191"/>
<text text-anchor="start" x="24" y="-176.8" font-family="Arial" font-weight="bold" font-size="14.00">Keyboard</text>
<text text-anchor="start" x="37" y="-162.8" font-family="Arial" font-weight="bold" font-size="14.00">Event</text>
</g>
<!-- _5 -->
<g id="node5" class="node">
<title>_5</title>
<polygon fill="white" stroke="black" points="304,-515 230,-515 230,-479 304,-479 304,-515"/>
<text text-anchor="start" x="239.5" y="-500.8" font-family="Arial" font-weight="bold" font-size="14.00">Joystick</text>
<text text-anchor="start" x="238" y="-486.8" font-family="Arial" font-style="italic" font-size="14.00" fill="#777777">CJoystick</text>
</g>
<!-- _9 -->
<g id="node9" class="node">
<title>_9</title>
<polygon fill="white" stroke="black" points="596,-407 441,-407 441,-371 596,-371 596,-407"/>
<text text-anchor="start" x="492.5" y="-392.8" font-family="Arial" font-weight="bold" font-size="14.00">C struct</text>
<text text-anchor="start" x="449" y="-378.8" font-family="Arial" font-style="italic" font-size="14.00" fill="#777777">PERIPHERAL_EVENT</text>
</g>
<!-- _6&#45;&gt;_9 -->
<g id="edge2" class="edge">
<title>_6&#45;&gt;_9</title>
<path fill="none" stroke="black" stroke-width="3" d="M362.08,-389C362.08,-389 430.88,-389 430.88,-389"/>
<polygon fill="black" stroke="black" stroke-width="3" points="430.88,-392.5 440.88,-389 430.88,-385.5 430.88,-392.5"/>
</g>
<!-- _7 -->
<g id="node7" class="node">
<title>_7</title>
<polygon fill="white" stroke="black" points="367,-299 167,-299 167,-263 367,-263 367,-299"/>
<text text-anchor="start" x="231" y="-284.8" font-family="Arial" font-weight="bold" font-size="14.00">ButtonMap</text>
<text text-anchor="start" x="175" y="-270.8" font-family="Arial" font-style="italic" font-size="14.00" fill="#777777">kodi::addon::JoystickFeatures*</text>
</g>
<!-- _10 -->
<g id="node10" class="node">
<title>_10</title>
<polygon fill="white" stroke="black" points="598,-299 439,-299 439,-263 598,-263 598,-299"/>
<text text-anchor="start" x="489" y="-284.8" font-family="Arial" font-weight="bold" font-size="14.00">C structs</text>
<text text-anchor="start" x="447" y="-270.8" font-family="Arial" font-style="italic" font-size="14.00" fill="#777777">JOYSTICK_FEATURE*</text>
</g>
<!-- _7&#45;&gt;_10 -->
<g id="edge3" class="edge">
<title>_7&#45;&gt;_10</title>
<path fill="none" stroke="black" stroke-width="3" d="M377.12,-281C377.12,-281 438.85,-281 438.85,-281"/>
<polygon fill="black" stroke="black" stroke-width="3" points="377.12,-277.5 367.12,-281 377.12,-284.5 377.12,-277.5"/>
</g>
<!-- _8 -->
<g id="node8" class="node">
<title>_8</title>
<polygon fill="white" stroke="black" points="580.5,-515 456.5,-515 456.5,-479 580.5,-479 580.5,-515"/>
<text text-anchor="start" x="492.5" y="-500.8" font-family="Arial" font-weight="bold" font-size="14.00">C struct</text>
<text text-anchor="start" x="464.5" y="-486.8" font-family="Arial" font-style="italic" font-size="14.00" fill="#777777">JOYSTICK_INFO</text>
</g>
<!-- _12 -->
<g id="node12" class="node">
<title>_12</title>
<polygon fill="white" stroke="black" points="837,-407 685,-407 685,-371 837,-371 837,-407"/>
<text text-anchor="start" x="711.5" y="-392.8" font-family="Arial" font-weight="bold" font-size="14.00">Event Handling</text>
<text text-anchor="start" x="693" y="-378.8" font-family="Arial" font-style="italic" font-size="14.00" fill="#777777">IJoystickDriverHandler</text>
</g>
<!-- _9&#45;&gt;_12 -->
<g id="edge5" class="edge">
<title>_9&#45;&gt;_12</title>
<path fill="none" stroke="black" stroke-width="3" d="M596.23,-389C596.23,-389 674.95,-389 674.95,-389"/>
<polygon fill="black" stroke="black" stroke-width="3" points="674.95,-392.5 684.95,-389 674.95,-385.5 674.95,-392.5"/>
</g>
<!-- _20 -->
<g id="node18" class="node">
<title>_20</title>
<polygon fill="white" stroke="black" points="1120.5,-83 941.5,-83 941.5,-47 1120.5,-47 1120.5,-83"/>
<text text-anchor="start" x="993" y="-68.8" font-family="Arial" font-weight="bold" font-size="14.00">Button Map</text>
<text text-anchor="start" x="949.5" y="-54.8" font-family="Arial" font-style="italic" font-size="14.00" fill="#777777">CAddonJoystickButtonMap</text>
</g>
<!-- _10&#45;&gt;_20 -->
<g id="edge4" class="edge">
<title>_10&#45;&gt;_20</title>
<path fill="none" stroke="black" stroke-width="3" d="M519,-252.73C519,-252.73 519,-119 519,-119 519,-119 1031,-119 1031,-119 1031,-119 1031,-98.95 1031,-83.28"/>
<polygon fill="black" stroke="black" stroke-width="3" points="515.5,-252.73 519,-262.73 522.5,-252.73 515.5,-252.73"/>
</g>
<!-- _11 -->
<g id="node11" class="node">
<title>_11</title>
<polygon fill="white" stroke="black" points="831,-515 691,-515 691,-479 831,-479 831,-515"/>
<text text-anchor="start" x="699" y="-500.8" font-family="Arial" font-weight="bold" font-size="14.00">Joystick Peripheral</text>
<text text-anchor="start" x="701" y="-486.8" font-family="Arial" font-style="italic" font-size="14.00" fill="#777777">CPeripheralJoystick</text>
</g>
<!-- _16 -->
<g id="node16" class="node">
<title>_16</title>
<polygon fill="white" stroke="black" points="1138,-407 924,-407 924,-371 1138,-371 1138,-407"/>
<text text-anchor="start" x="979" y="-392.8" font-family="Arial" font-weight="bold" font-size="14.00">Button Mapping</text>
<text text-anchor="start" x="932" y="-378.8" font-family="Arial" font-style="italic" font-size="14.00" fill="#777777">CGenericJoystickButtonMapping</text>
</g>
<!-- _12&#45;&gt;_16 -->
<g id="edge6" class="edge">
<title>_12&#45;&gt;_16</title>
<path fill="none" stroke="black" stroke-width="3" d="M837.29,-389C837.29,-389 913.92,-389 913.92,-389"/>
<polygon fill="black" stroke="black" stroke-width="3" points="913.92,-392.5 923.92,-389 913.92,-385.5 913.92,-392.5"/>
</g>
<!-- _13 -->
<g id="node13" class="node">
<title>_13</title>
<polygon fill="white" stroke="black" points="835.5,-191 686.5,-191 686.5,-155 835.5,-155 835.5,-191"/>
<text text-anchor="start" x="694.5" y="-176.8" font-family="Arial" font-weight="bold" font-size="14.00">Keyboard Peripheral</text>
<text text-anchor="start" x="696" y="-162.8" font-family="Arial" font-style="italic" font-size="14.00" fill="#777777">CPeripheralKeyboard</text>
</g>
<!-- _14 -->
<g id="node14" class="node">
<title>_14</title>
<polygon fill="white" stroke="black" points="831,-83 691,-83 691,-47 831,-47 831,-83"/>
<text text-anchor="start" x="699" y="-68.8" font-family="Arial" font-weight="bold" font-size="14.00">Keyboard Handling</text>
<text text-anchor="start" x="706.5" y="-54.8" font-family="Arial" font-style="italic" font-size="14.00" fill="#777777">IKeyboardHandler</text>
</g>
<!-- _15 -->
<g id="node15" class="node">
<title>_15</title>
<polygon fill="white" stroke="black" points="1134,-515 928,-515 928,-479 1134,-479 1134,-515"/>
<text text-anchor="start" x="983.5" y="-500.8" font-family="Arial" font-weight="bold" font-size="14.00">Input Handling</text>
<text text-anchor="start" x="936" y="-486.8" font-family="Arial" font-style="italic" font-size="14.00" fill="#777777">CGenericJoystickInputHandling</text>
</g>
<!-- _23 -->
<g id="node19" class="node">
<title>_23</title>
<polygon fill="white" stroke="black" points="1388,-407 1210,-407 1210,-371 1388,-371 1388,-407"/>
<text text-anchor="start" x="1254.5" y="-392.8" font-family="Arial" font-weight="bold" font-size="14.00">Button Dialog</text>
<text text-anchor="start" x="1218" y="-378.8" font-family="Arial" font-style="italic" font-size="14.00" fill="#777777">CGUIDialogControllerInput</text>
</g>
<!-- _16&#45;&gt;_23 -->
<g id="edge7" class="edge">
<title>_16&#45;&gt;_23</title>
<path fill="none" stroke="black" stroke-width="3" d="M1148.08,-389C1148.08,-389 1199.75,-389 1199.75,-389"/>
<polygon fill="black" stroke="black" stroke-width="3" points="1199.75,-392.5 1209.75,-389 1199.75,-385.5 1199.75,-392.5"/>
<polygon fill="black" stroke="black" stroke-width="3" points="1148.08,-385.5 1138.08,-389 1148.08,-392.5 1148.08,-385.5"/>
</g>
<!-- _19 -->
<g id="node17" class="node">
<title>_19</title>
<polygon fill="white" stroke="black" points="1118.5,-191 943.5,-191 943.5,-155 1118.5,-155 1118.5,-191"/>
<text text-anchor="start" x="973.5" y="-176.8" font-family="Arial" font-weight="bold" font-size="14.00">Joystick Imitation</text>
<text text-anchor="start" x="951.5" y="-162.8" font-family="Arial" font-style="italic" font-size="14.00" fill="#777777">CGenericKeyboadHandler</text>
</g>
<!-- _20&#45;&gt;_16 -->
<g id="edge9" class="edge">
<title>_20&#45;&gt;_16</title>
<path fill="none" stroke="black" stroke-width="3" d="M933.84,-65C933.84,-65 933,-65 933,-65 933,-65 933,-302.11 933,-370.65"/>
<polygon fill="black" stroke="black" stroke-width="3" points="931.36,-68.5 941.36,-65 931.36,-61.5 931.36,-68.5"/>
</g>
<!-- _24 -->
<g id="node20" class="node">
<title>_24</title>
<polygon fill="white" stroke="black" points="1642,-407 1460,-407 1460,-371 1642,-371 1642,-407"/>
<text text-anchor="start" x="1468" y="-392.8" font-family="Arial" font-weight="bold" font-size="14.00">Game Controller Add&#45;ons</text>
<text text-anchor="start" x="1497.5" y="-378.8" font-family="Arial" font-style="italic" font-size="14.00" fill="#777777">CGameController</text>
</g>
<!-- _23&#45;&gt;_24 -->
<g id="edge8" class="edge">
<title>_23&#45;&gt;_24</title>
<path fill="none" stroke="black" stroke-width="3" d="M1398.2,-389C1398.2,-389 1459.79,-389 1459.79,-389"/>
<polygon fill="black" stroke="black" stroke-width="3" points="1398.2,-385.5 1388.2,-389 1398.2,-392.5 1398.2,-385.5"/>
</g>
<g id="node21" class="node">
<title></title>
<polygon fill="none" stroke="red" points="788,-299 734,-299 734,-263 788,-263 788,-299"/>
</g>
<!-- &#45; -->
<g id="node22" class="node">
<title>&#45;</title>
<polygon fill="none" stroke="red" points="1058,-299 1004,-299 1004,-263 1058,-263 1058,-299"/>
<text text-anchor="middle" x="1031" y="-277.3" font-family="Arial" font-size="14.00" fill="red">&#45;</text>
</g>
</g>
</svg>
