<?xml version="1.0" encoding="UTF-8" standalone="no"?>
<!DOCTYPE svg PUBLIC "-//W3C//DTD SVG 1.1//EN"
 "http://www.w3.org/Graphics/SVG/1.1/DTD/svg11.dtd">
<!-- Generated by graphviz version 2.43.0 (0)
 -->
<!-- Title: D Pages: 1 -->
<svg width="674pt" height="577pt"
 viewBox="0.00 0.00 674.00 577.00" xmlns="http://www.w3.org/2000/svg" xmlns:xlink="http://www.w3.org/1999/xlink">
<g id="graph0" class="graph" transform="scale(1 1) rotate(0) translate(4 573)">
<title>D</title>
<polygon fill="white" stroke="transparent" points="-4,4 -4,-573 670,-573 670,4 -4,4"/>
<text text-anchor="middle" x="333" y="-7.8" font-family="Times,serif" font-size="14.00" fill="white">Orthogonal edges</text>
<g id="clust1" class="cluster">
<title>cluster_7</title>
<polygon fill="red" stroke="white" points="8,-31 8,-561 254,-561 254,-31 8,-31"/>
<text text-anchor="start" x="70.5" y="-542" font-family="Times,serif" font-weight="bold" font-size="20.00" fill="white">Input Library</text>
</g>
<g id="clust2" class="cluster">
<title>cluster_7_1</title>
<polygon fill="red" stroke="red" points="16,-363 16,-523 246,-523 246,-363 16,-363"/>
</g>
<g id="clust3" class="cluster">
<title>cluster_7_2</title>
<polygon fill="red" stroke="red" points="96,-255 96,-307 166,-307 166,-255 96,-255"/>
</g>
<g id="clust4" class="cluster">
<title>cluster_7_3</title>
<polygon fill="red" stroke="red" points="33.5,-39 33.5,-199 228.5,-199 228.5,-39 33.5,-39"/>
</g>
<g id="clust5" class="cluster">
<title>cluster_10</title>
<polygon fill="red" stroke="white" points="302,-471 302,-553 658,-553 658,-471 302,-471"/>
<text text-anchor="start" x="432" y="-534" font-family="Times,serif" font-weight="bold" font-size="20.00" fill="white">Kodi Input</text>
</g>
<!-- _15 -->
<g id="node1" class="node">
<title>_15</title>
<polygon fill="white" stroke="black" points="234,-515 28,-515 28,-479 234,-479 234,-515"/>
<text text-anchor="start" x="83.5" y="-500.8" font-family="Arial" font-weight="bold" font-size="14.00">Input Handling</text>
<text text-anchor="start" x="36" y="-486.8" font-family="Arial" font-style="italic" font-size="14.00" fill="#777777">CGenericJoystickInputHandling</text>
</g>
<!-- _25 -->
<g id="node5" class="node">
<title>_25</title>
<polygon fill="white" stroke="black" points="441,-515 310,-515 310,-479 441,-479 441,-515"/>
<text text-anchor="start" x="318" y="-500.8" font-family="Arial" font-weight="bold" font-size="14.00">Default Controller</text>
<text text-anchor="start" x="319.5" y="-486.8" font-family="Arial" font-style="italic" font-size="14.00" fill="#777777">CDefaultController</text>
</g>
<!-- _15&#45;&gt;_25 -->
<g id="edge1" class="edge">
<title>_15&#45;&gt;_25</title>
<path fill="none" stroke="black" stroke-width="3" d="M234.34,-497C234.34,-497 299.75,-497 299.75,-497"/>
<polygon fill="black" stroke="black" stroke-width="3" points="299.75,-500.5 309.75,-497 299.75,-493.5 299.75,-500.5"/>
</g>
<!-- _16 -->
<g id="node2" class="node">
<title>_16</title>
<polygon fill="white" stroke="black" points="238,-407 24,-407 24,-371 238,-371 238,-407"/>
<text text-anchor="start" x="79" y="-392.8" font-family="Arial" font-weight="bold" font-size="14.00">Button Mapping</text>
<text text-anchor="start" x="32" y="-378.8" font-family="Arial" font-style="italic" font-size="14.00" fill="#777777">CGenericJoystickButtonMapping</text>
</g>
<!-- _19 -->
<g id="node3" class="node">
<title>_19</title>
<polygon fill="white" stroke="black" points="218.5,-191 43.5,-191 43.5,-155 218.5,-155 218.5,-191"/>
<text text-anchor="start" x="73.5" y="-176.8" font-family="Arial" font-weight="bold" font-size="14.00">Joystick Imitation</text>
<text text-anchor="start" x="51.5" y="-162.8" font-family="Arial" font-style="italic" font-size="14.00" fill="#777777">CGenericKeyboadHandler</text>
</g>
<!-- _20 -->
<g id="node4" class="node">
<title>_20</title>
<polygon fill="white" stroke="black" points="220.5,-83 41.5,-83 41.5,-47 220.5,-47 220.5,-83"/>
<text text-anchor="start" x="93" y="-68.8" font-family="Arial" font-weight="bold" font-size="14.00">Button Map</text>
<text text-anchor="start" x="49.5" y="-54.8" font-family="Arial" font-style="italic" font-size="14.00" fill="#777777">CAddonJoystickButtonMap</text>
</g>
<!-- _26 -->
<g id="node6" class="node">
<title>_26</title>
<polygon fill="white" stroke="black" points="650,-515 513,-515 513,-479 650,-479 650,-515"/>
<text text-anchor="start" x="521" y="-500.8" font-family="Arial" font-weight="bold" font-size="14.00">Kodi Input Handler</text>
<text text-anchor="start" x="521.5" y="-486.8" font-family="Arial" font-style="italic" font-size="14.00" fill="#777777">CButtonKeyHandler</text>
</g>
<!-- _25&#45;&gt;_26 -->
<g id="edge2" class="edge">
<title>_25&#45;&gt;_26</title>
<path fill="none" stroke="black" stroke-width="3" d="M441.25,-497C441.25,-497 502.83,-497 502.83,-497"/>
<polygon fill="black" stroke="black" stroke-width="3" points="502.83,-500.5 512.83,-497 502.83,-493.5 502.83,-500.5"/>
</g>
<!-- &#45; -->
<g id="node7" class="node">
<title>&#45;</title>
<polygon fill="none" stroke="red" points="158,-299 104,-299 104,-263 158,-263 158,-299"/>
<text text-anchor="middle" x="131" y="-277.3" font-family="Arial" font-size="14.00" fill="red">&#45;</text>
</g>
</g>
</svg>
