<?xml version="1.0" encoding="UTF-8" standalone="no"?>
<!DOCTYPE svg PUBLIC "-//W3C//DTD SVG 1.1//EN"
 "http://www.w3.org/Graphics/SVG/1.1/DTD/svg11.dtd">
<!-- Generated by graphviz version 2.43.0 (0)
 -->
<!-- Title: D Pages: 1 -->
<!--zoomable 617 -->
<svg id="main" version="1.1" xmlns="http://www.w3.org/2000/svg" xmlns:xlink="http://www.w3.org/1999/xlink" xml:space="preserve" onload="init(evt)">
<style type="text/css"><![CDATA[
.edge:hover path { stroke: red; }
.edge:hover polygon { stroke: red; fill: red; }
]]></style>
<script type="text/javascript"><![CDATA[
var edges = document.getElementsByTagName('g');
if (edges && edges.length) {
  for (var i=0;i<edges.length;i++) {
    if (edges[i].id.substr(0,4)=='edge') {
      edges[i].setAttribute('class','edge');
    }
  }
}
]]></script>
        <defs>
                <circle id="rim" cx="0" cy="0" r="7"/>
                <circle id="rim2" cx="0" cy="0" r="3.5"/>
                <g id="zoomPlus">
                        <use xlink:href="#rim" fill="#404040">
                                <set attributeName="fill" to="#808080" begin="zoomplus.mouseover" end="zoomplus.mouseout"/>
                        </use>
                        <path d="M-4,0h8M0,-4v8" fill="none" stroke="white" stroke-width="1.5" pointer-events="none"/>
                </g>
                <g id="zoomMin">
                        <use xlink:href="#rim" fill="#404040">
                                <set attributeName="fill" to="#808080" begin="zoomminus.mouseover" end="zoomminus.mouseout"/>
                        </use>
                        <path d="M-4,0h8" fill="none" stroke="white" stroke-width="1.5" pointer-events="none"/>
                </g>
                <g id="dirArrow">
                        <path fill="none" stroke="white" stroke-width="1.5" d="M0,-3.0v7 M-2.5,-0.5L0,-3.0L2.5,-0.5"/>
                </g>
               <g id="resetDef">
                       <use xlink:href="#rim2" fill="#404040">
                               <set attributeName="fill" to="#808080" begin="reset.mouseover" end="reset.mouseout"/>
                       </use>
               </g>
        </defs>

<script type="text/javascript">
var viewWidth = 949;
var viewHeight = 617;
</script>
<script xlink:href="svgpan.js"/>
<svg id="graph" class="graph">
<g id="viewport">
<title>D</title>
<polygon fill="white" stroke="transparent" points="-4,4 -4,-613 944.5,-613 944.5,4 -4,4"/>
<text text-anchor="middle" x="470.25" y="-7.8" font-family="Times,serif" font-size="14.00" fill="white">Orthogonal edges</text>
<g id="clust1" class="cluster">
<title>cluster_1</title>
<polygon fill="red" stroke="white" points="8,-147 8,-553 103,-553 103,-147 8,-147"/>
<text text-anchor="start" x="39.5" y="-534" font-family="Times,serif" font-weight="bold" font-size="20.00" fill="white">OS</text>
</g>
<g id="clust2" class="cluster">
<title>cluster_2</title>
<polygon fill="red" stroke="white" points="159,-255 159,-553 380,-553 380,-255 159,-255"/>
<text text-anchor="start" x="167" y="-534" font-family="Times,serif" font-weight="bold" font-size="20.00" fill="white">Peripheral Add&#45;on</text>
</g>
<g id="clust3" class="cluster">
<title>cluster_3</title>
<polygon fill="red" stroke="white" points="436,-255 436,-553 616,-553 616,-255 436,-255"/>
<text text-anchor="start" x="444" y="-534" font-family="Times,serif" font-weight="bold" font-size="20.00" fill="white">Peripheral API</text>
</g>
<g id="clust4" class="cluster">
<title>cluster_4</title>
<polygon fill="red" stroke="white" points="671.5,-31 671.5,-601 940.5,-601 940.5,-31 671.5,-31"/>
<text text-anchor="start" x="705" y="-582" font-family="Times,serif" font-weight="bold" font-size="20.00" fill="white">Peripheral Busses</text>
</g>
<g id="clust5" class="cluster">
<title>cluster_4_1</title>
<polygon fill="white" stroke="white" points="702,-363 702,-563 911,-563 911,-363 702,-363"/>
<text text-anchor="start" x="710" y="-545.6" font-family="Times,serif" font-weight="bold" font-size="18.00">Virtual Add&#45;on Bus</text>
<text text-anchor="start" x="728" y="-530.8" font-family="Times,serif" font-style="italic" font-size="14.00" fill="#777777">CPeripheralBusAddon</text>
</g>
<g id="clust6" class="cluster">
<title>cluster_4_2</title>
<polygon fill="red" stroke="red" points="771,-255 771,-307 841,-307 841,-255 771,-255"/>
</g>
<g id="clust7" class="cluster">
<title>cluster_4_3</title>
<polygon fill="white" stroke="white" points="679.5,-39 679.5,-239 932.5,-239 932.5,-39 679.5,-39"/>
<text text-anchor="start" x="687.5" y="-221.6" font-family="Times,serif" font-weight="bold" font-size="18.00">Virtual Application Bus</text>
<text text-anchor="start" x="709.5" y="-206.8" font-family="Times,serif" font-style="italic" font-size="14.00" fill="#777777">CPeripheralBusApplication</text>
</g>
<!-- _1 -->
<g id="node1" class="node">
<title>_1</title>
<polygon fill="white" stroke="black" points="91,-515 20,-515 20,-479 91,-479 91,-515"/>
<text text-anchor="start" x="28" y="-494.3" font-family="Arial" font-weight="bold" font-size="14.00">Joystick</text>
</g>
<!-- _2 -->
<g id="node2" class="node">
<title>_2</title>
<polygon fill="white" stroke="black" points="91,-407 20,-407 20,-371 91,-371 91,-407"/>
<text text-anchor="start" x="28" y="-392.8" font-family="Arial" font-weight="bold" font-size="14.00">Joystick</text>
<text text-anchor="start" x="37" y="-378.8" font-family="Arial" font-weight="bold" font-size="14.00">Event</text>
</g>
<!-- _6 -->
<g id="node6" class="node">
<title>_6</title>
<polygon fill="white" stroke="black" points="364,-407 174,-407 174,-371 364,-371 364,-407"/>
<text text-anchor="start" x="215.5" y="-392.8" font-family="Arial" font-weight="bold" font-size="14.00">Peripheral Event</text>
<text text-anchor="start" x="182" y="-378.8" font-family="Arial" font-style="italic" font-size="14.00" fill="#777777">kodi::addon::PeripheralEvent</text>
</g>
<!-- _2&#45;&gt;_6 -->
<g id="edge1" class="edge">
<title>_2&#45;&gt;_6</title>
<path fill="none" stroke="black" stroke-width="3" d="M91.24,-389C91.24,-389 163.73,-389 163.73,-389"/>
<polygon fill="black" stroke="black" stroke-width="3" points="163.73,-392.5 173.73,-389 163.73,-385.5 163.73,-392.5"/>
</g>
<!-- _3 -->
<g id="node3" class="node">
<title>_3</title>
<polygon fill="white" stroke="black" points="95,-299 16,-299 16,-263 95,-263 95,-299"/>
<text text-anchor="start" x="24" y="-278.3" font-family="Arial" font-weight="bold" font-size="14.00">Keyboard</text>
</g>
<!-- _4 -->
<g id="node4" class="node">
<title>_4</title>
<polygon fill="white" stroke="black" points="95,-191 16,-191 16,-155 95,-155 95,-191"/>
<text text-anchor="start" x="24" y="-176.8" font-family="Arial" font-weight="bold" font-size="14.00">Keyboard</text>
<text text-anchor="start" x="37" y="-162.8" font-family="Arial" font-weight="bold" font-size="14.00">Event</text>
</g>
<!-- _5 -->
<g id="node5" class="node">
<title>_5</title>
<polygon fill="white" stroke="black" points="306,-515 232,-515 232,-479 306,-479 306,-515"/>
<text text-anchor="start" x="241.5" y="-500.8" font-family="Arial" font-weight="bold" font-size="14.00">Joystick</text>
<text text-anchor="start" x="240" y="-486.8" font-family="Arial" font-style="italic" font-size="14.00" fill="#777777">CJoystick</text>
</g>
<!-- _9 -->
<g id="node9" class="node">
<title>_9</title>
<polygon fill="white" stroke="black" points="603.5,-407 448.5,-407 448.5,-371 603.5,-371 603.5,-407"/>
<text text-anchor="start" x="500" y="-392.8" font-family="Arial" font-weight="bold" font-size="14.00">C struct</text>
<text text-anchor="start" x="456.5" y="-378.8" font-family="Arial" font-style="italic" font-size="14.00" fill="#777777">PERIPHERAL_EVENT</text>
</g>
<!-- _6&#45;&gt;_9 -->
<g id="edge2" class="edge">
<title>_6&#45;&gt;_9</title>
<path fill="none" stroke="black" stroke-width="3" d="M364.33,-389C364.33,-389 438.45,-389 438.45,-389"/>
<polygon fill="black" stroke="black" stroke-width="3" points="438.45,-392.5 448.45,-389 438.45,-385.5 438.45,-392.5"/>
</g>
<!-- _7 -->
<g id="node7" class="node">
<title>_7</title>
<polygon fill="white" stroke="black" points="369,-299 169,-299 169,-263 369,-263 369,-299"/>
<text text-anchor="start" x="233" y="-284.8" font-family="Arial" font-weight="bold" font-size="14.00">ButtonMap</text>
<text text-anchor="start" x="177" y="-270.8" font-family="Arial" font-style="italic" font-size="14.00" fill="#777777">kodi::addon::JoystickFeatures*</text>
</g>
<!-- _8 -->
<g id="node8" class="node">
<title>_8</title>
<polygon fill="white" stroke="black" points="588,-515 464,-515 464,-479 588,-479 588,-515"/>
<text text-anchor="start" x="500" y="-500.8" font-family="Arial" font-weight="bold" font-size="14.00">C struct</text>
<text text-anchor="start" x="472" y="-486.8" font-family="Arial" font-style="italic" font-size="14.00" fill="#777777">JOYSTICK_INFO</text>
</g>
<!-- _12 -->
<g id="node12" class="node">
<title>_12</title>
<polygon fill="white" stroke="black" points="882,-407 730,-407 730,-371 882,-371 882,-407"/>
<text text-anchor="start" x="756.5" y="-392.8" font-family="Arial" font-weight="bold" font-size="14.00">Event Handling</text>
<text text-anchor="start" x="738" y="-378.8" font-family="Arial" font-style="italic" font-size="14.00" fill="#777777">IJoystickDriverHandler</text>
</g>
<!-- _9&#45;&gt;_12 -->
<g id="edge3" class="edge">
<title>_9&#45;&gt;_12</title>
<path fill="none" stroke="black" stroke-width="3" d="M603.62,-389C603.62,-389 719.68,-389 719.68,-389"/>
<polygon fill="black" stroke="black" stroke-width="3" points="719.68,-392.5 729.68,-389 719.68,-385.5 719.68,-392.5"/>
</g>
<!-- _10 -->
<g id="node10" class="node">
<title>_10</title>
<polygon fill="white" stroke="black" points="605,-299 447,-299 447,-263 605,-263 605,-299"/>
<text text-anchor="start" x="496.5" y="-284.8" font-family="Arial" font-weight="bold" font-size="14.00">C structs</text>
<text text-anchor="start" x="455" y="-270.8" font-family="Arial" font-style="italic" font-size="14.00" fill="#777777">JOYSTICK_FEATURE*</text>
</g>
<!-- _11 -->
<g id="node11" class="node">
<title>_11</title>
<polygon fill="white" stroke="black" points="876,-515 736,-515 736,-479 876,-479 876,-515"/>
<text text-anchor="start" x="744" y="-500.8" font-family="Arial" font-weight="bold" font-size="14.00">Joystick Peripheral</text>
<text text-anchor="start" x="746" y="-486.8" font-family="Arial" font-style="italic" font-size="14.00" fill="#777777">CPeripheralJoystick</text>
</g>
<!-- _13 -->
<g id="node13" class="node">
<title>_13</title>
<polygon fill="white" stroke="black" points="880.5,-191 731.5,-191 731.5,-155 880.5,-155 880.5,-191"/>
<text text-anchor="start" x="739.5" y="-176.8" font-family="Arial" font-weight="bold" font-size="14.00">Keyboard Peripheral</text>
<text text-anchor="start" x="741" y="-162.8" font-family="Arial" font-style="italic" font-size="14.00" fill="#777777">CPeripheralKeyboard</text>
</g>
<!-- _14 -->
<g id="node14" class="node">
<title>_14</title>
<polygon fill="white" stroke="black" points="876,-83 736,-83 736,-47 876,-47 876,-83"/>
<text text-anchor="start" x="744" y="-68.8" font-family="Arial" font-weight="bold" font-size="14.00">Keyboard Handling</text>
<text text-anchor="start" x="751.5" y="-54.8" font-family="Arial" font-style="italic" font-size="14.00" fill="#777777">IKeyboardHandler</text>
</g>
<g id="node15" class="node">
<title></title>
<polygon fill="none" stroke="red" points="833,-299 779,-299 779,-263 833,-263 833,-299"/>
</g>
</g>
</svg>
        <g id="navigator" transform="translate(0 0)" fill="#404254">
                <rect fill="#f2f5e9" fill-opacity="0.5" stroke="#606060" stroke-width=".5" x="0" y="0" width="60" height="60"/>
                <use id="zoomplus" xlink:href="#zoomPlus" x="17" y="9" onmousedown="handleZoom(evt,'in')"/>
                <use id="zoomminus" xlink:href="#zoomMin" x="42" y="9" onmousedown="handleZoom(evt,'out')"/>
                <use id="reset" xlink:href="#resetDef" x="30" y="36" onmousedown="handleReset()"/>
                <g id="arrowUp" xlink:href="#dirArrow" transform="translate(30 24)" onmousedown="handlePan(0,-1)">
                  <use xlink:href="#rim" fill="#404040">
                        <set attributeName="fill" to="#808080" begin="arrowUp.mouseover" end="arrowUp.mouseout"/>
                  </use>
                  <path fill="none" stroke="white" stroke-width="1.5" d="M0,-3.0v7 M-2.5,-0.5L0,-3.0L2.5,-0.5"/>
                </g>
                <g id="arrowRight" xlink:href="#dirArrow" transform="rotate(90) translate(36 -43)" onmousedown="handlePan(1,0)">
                  <use xlink:href="#rim" fill="#404040">
                        <set attributeName="fill" to="#808080" begin="arrowRight.mouseover" end="arrowRight.mouseout"/>
                  </use>
                  <path fill="none" stroke="white" stroke-width="1.5" d="M0,-3.0v7 M-2.5,-0.5L0,-3.0L2.5,-0.5"/>
                </g>
                <g id="arrowDown" xlink:href="#dirArrow" transform="rotate(180) translate(-30 -48)" onmousedown="handlePan(0,1)">
                  <use xlink:href="#rim" fill="#404040">
                        <set attributeName="fill" to="#808080" begin="arrowDown.mouseover" end="arrowDown.mouseout"/>
                  </use>
                  <path fill="none" stroke="white" stroke-width="1.5" d="M0,-3.0v7 M-2.5,-0.5L0,-3.0L2.5,-0.5"/>
                </g>
                <g id="arrowLeft" xlink:href="#dirArrow" transform="rotate(270) translate(-36 17)" onmousedown="handlePan(-1,0)">
                  <use xlink:href="#rim" fill="#404040">
                        <set attributeName="fill" to="#808080" begin="arrowLeft.mouseover" end="arrowLeft.mouseout"/>
                  </use>
                  <path fill="none" stroke="white" stroke-width="1.5" d="M0,-3.0v7 M-2.5,-0.5L0,-3.0L2.5,-0.5"/>
                </g>
        </g>
        <svg viewBox="0 0 15 15" width="100%" height="30px" preserveAspectRatio="xMaxYMin meet">
         <g id="arrow_out" transform="scale(0.3 0.3)">
          <a xlink:href="dot_inline_dotgraph_3_org.svg" target="_base">
           <rect id="button" ry="5" rx="5" y="6" x="6" height="38" width="38"
                fill="#f2f5e9" fill-opacity="0.5" stroke="#606060" stroke-width="1.0"/>
           <path id="arrow"
             d="M 11.500037,31.436501 C 11.940474,20.09759 22.043105,11.32322 32.158766,21.979434 L 37.068811,17.246167 C 37.068811,17.246167 37.088388,32 37.088388,32 L 22.160133,31.978069 C 22.160133,31.978069 26.997745,27.140456 26.997745,27.140456 C 18.528582,18.264221 13.291696,25.230495 11.500037,31.436501 z"
             style="fill:#404040;"/>
          </a>
         </g>
        </svg>
</svg>
