<?xml version="1.0" encoding="UTF-8" standalone="no"?>
<!DOCTYPE svg PUBLIC "-//W3C//DTD SVG 1.1//EN"
 "http://www.w3.org/Graphics/SVG/1.1/DTD/svg11.dtd">
<!-- Generated by graphviz version 2.43.0 (0)
 -->
<!-- Title: D Pages: 1 -->
<svg width="517pt" height="617pt"
 viewBox="0.00 0.00 516.50 617.00" xmlns="http://www.w3.org/2000/svg" xmlns:xlink="http://www.w3.org/1999/xlink">
<g id="graph0" class="graph" transform="scale(1 1) rotate(0) translate(4 613)">
<title>D</title>
<polygon fill="white" stroke="transparent" points="-4,4 -4,-613 512.5,-613 512.5,4 -4,4"/>
<text text-anchor="middle" x="254.25" y="-7.8" font-family="Times,serif" font-size="14.00" fill="white">Orthogonal edges</text>
<g id="clust1" class="cluster">
<title>cluster_4</title>
<polygon fill="red" stroke="white" points="0,-31 0,-601 215,-601 215,-31 0,-31"/>
<text text-anchor="start" x="31" y="-582" font-family="Times,serif" font-weight="bold" font-size="20.00" fill="white">Peripheral Busses</text>
</g>
<g id="clust2" class="cluster">
<title>cluster_4_1</title>
<polygon fill="white" stroke="white" points="23.5,-363 23.5,-563 191.5,-563 191.5,-363 23.5,-363"/>
<text text-anchor="start" x="32.5" y="-545.6" font-family="Times,serif" font-weight="bold" font-size="18.00">Virtual Add&#45;on Bus</text>
<text text-anchor="start" x="45.5" y="-530.8" font-family="Times,serif" font-style="italic" font-size="14.00" fill="#777777">CPeripheralBusAddon</text>
</g>
<g id="clust3" class="cluster">
<title>cluster_4_2</title>
<polygon fill="red" stroke="red" points="72.5,-255 72.5,-307 142.5,-307 142.5,-255 72.5,-255"/>
</g>
<g id="clust4" class="cluster">
<title>cluster_4_3</title>
<polygon fill="white" stroke="white" points="8,-39 8,-239 207,-239 207,-39 8,-39"/>
<text text-anchor="start" x="16" y="-221.6" font-family="Times,serif" font-weight="bold" font-size="18.00">Virtual Application Bus</text>
<text text-anchor="start" x="32" y="-206.8" font-family="Times,serif" font-style="italic" font-size="14.00" fill="#777777">CPeripheralBusApplication</text>
</g>
<g id="clust5" class="cluster">
<title>cluster_7</title>
<polygon fill="red" stroke="white" points="254.5,-355 254.5,-561 500.5,-561 500.5,-355 254.5,-355"/>
<text text-anchor="start" x="317" y="-542" font-family="Times,serif" font-weight="bold" font-size="20.00" fill="white">Input Library</text>
</g>
<g id="clust6" class="cluster">
<title>cluster_7_1</title>
<polygon fill="red" stroke="red" points="262.5,-363 262.5,-523 492.5,-523 492.5,-363 262.5,-363"/>
</g>
<!-- _11 -->
<g id="node1" class="node">
<title>_11</title>
<polygon fill="white" stroke="black" points="177.5,-515 37.5,-515 37.5,-479 177.5,-479 177.5,-515"/>
<text text-anchor="start" x="45.5" y="-500.8" font-family="Arial" font-weight="bold" font-size="14.00">Joystick Peripheral</text>
<text text-anchor="start" x="47.5" y="-486.8" font-family="Arial" font-style="italic" font-size="14.00" fill="#777777">CPeripheralJoystick</text>
</g>
<!-- _12 -->
<g id="node2" class="node">
<title>_12</title>
<polygon fill="white" stroke="black" points="183.5,-407 31.5,-407 31.5,-371 183.5,-371 183.5,-407"/>
<text text-anchor="start" x="58" y="-392.8" font-family="Arial" font-weight="bold" font-size="14.00">Event Handling</text>
<text text-anchor="start" x="39.5" y="-378.8" font-family="Arial" font-style="italic" font-size="14.00" fill="#777777">IJoystickDriverHandler</text>
</g>
<!-- _15 -->
<g id="node5" class="node">
<title>_15</title>
<polygon fill="white" stroke="black" points="480.5,-515 274.5,-515 274.5,-479 480.5,-479 480.5,-515"/>
<text text-anchor="start" x="330" y="-500.8" font-family="Arial" font-weight="bold" font-size="14.00">Input Handling</text>
<text text-anchor="start" x="282.5" y="-486.8" font-family="Arial" font-style="italic" font-size="14.00" fill="#777777">CGenericJoystickInputHandling</text>
</g>
<!-- _12&#45;&gt;_15 -->
<g id="edge1" class="edge">
<title>_12&#45;&gt;_15</title>
<path fill="none" stroke="black" stroke-width="3" d="M183.84,-395C207.5,-395 227.5,-395 227.5,-395 227.5,-395 227.5,-497 227.5,-497 227.5,-497 264.14,-497 264.14,-497"/>
<polygon fill="black" stroke="black" stroke-width="3" points="264.14,-500.5 274.14,-497 264.14,-493.5 264.14,-500.5"/>
</g>
<!-- _16 -->
<g id="node6" class="node">
<title>_16</title>
<polygon fill="white" stroke="black" points="484.5,-407 270.5,-407 270.5,-371 484.5,-371 484.5,-407"/>
<text text-anchor="start" x="325.5" y="-392.8" font-family="Arial" font-weight="bold" font-size="14.00">Button Mapping</text>
<text text-anchor="start" x="278.5" y="-378.8" font-family="Arial" font-style="italic" font-size="14.00" fill="#777777">CGenericJoystickButtonMapping</text>
</g>
<!-- _12&#45;&gt;_16 -->
<g id="edge2" class="edge">
<title>_12&#45;&gt;_16</title>
<path fill="none" stroke="black" stroke-width="3" d="M183.79,-383C183.79,-383 260.42,-383 260.42,-383"/>
<polygon fill="black" stroke="black" stroke-width="3" points="260.42,-386.5 270.42,-383 260.42,-379.5 260.42,-386.5"/>
</g>
<!-- _13 -->
<g id="node3" class="node">
<title>_13</title>
<polygon fill="white" stroke="black" points="182,-191 33,-191 33,-155 182,-155 182,-191"/>
<text text-anchor="start" x="41" y="-176.8" font-family="Arial" font-weight="bold" font-size="14.00">Keyboard Peripheral</text>
<text text-anchor="start" x="42.5" y="-162.8" font-family="Arial" font-style="italic" font-size="14.00" fill="#777777">CPeripheralKeyboard</text>
</g>
<!-- _14 -->
<g id="node4" class="node">
<title>_14</title>
<polygon fill="white" stroke="black" points="177.5,-83 37.5,-83 37.5,-47 177.5,-47 177.5,-83"/>
<text text-anchor="start" x="45.5" y="-68.8" font-family="Arial" font-weight="bold" font-size="14.00">Keyboard Handling</text>
<text text-anchor="start" x="53" y="-54.8" font-family="Arial" font-style="italic" font-size="14.00" fill="#777777">IKeyboardHandler</text>
</g>
<g id="node7" class="node">
<title></title>
<polygon fill="none" stroke="red" points="134.5,-299 80.5,-299 80.5,-263 134.5,-263 134.5,-299"/>
</g>
</g>
</svg>
