<?xml version="1.0" encoding="UTF-8" standalone="no"?>
<!DOCTYPE svg PUBLIC "-//W3C//DTD SVG 1.1//EN"
 "http://www.w3.org/Graphics/SVG/1.1/DTD/svg11.dtd">
<!-- Generated by graphviz version 2.43.0 (0)
 -->
<!-- Title: D Pages: 1 -->
<svg width="737pt" height="617pt"
 viewBox="0.00 0.00 737.00 617.00" xmlns="http://www.w3.org/2000/svg" xmlns:xlink="http://www.w3.org/1999/xlink">
<g id="graph0" class="graph" transform="scale(1 1) rotate(0) translate(4 613)">
<title>D</title>
<polygon fill="white" stroke="transparent" points="-4,4 -4,-613 733,-613 733,4 -4,4"/>
<text text-anchor="middle" x="364.5" y="-7.8" font-family="Times,serif" font-size="14.00" fill="white">Orthogonal edges</text>
<g id="clust1" class="cluster">
<title>cluster_1</title>
<polygon fill="red" stroke="white" points="8,-35 8,-441 103,-441 103,-35 8,-35"/>
<text text-anchor="start" x="39.5" y="-422" font-family="Times,serif" font-weight="bold" font-size="20.00" fill="white">OS</text>
</g>
<g id="clust2" class="cluster">
<title>cluster_4</title>
<polygon fill="red" stroke="white" points="158.5,-31 158.5,-601 427.5,-601 427.5,-31 158.5,-31"/>
<text text-anchor="start" x="192" y="-582" font-family="Times,serif" font-weight="bold" font-size="20.00" fill="white">Peripheral Busses</text>
</g>
<g id="clust3" class="cluster">
<title>cluster_4_1</title>
<polygon fill="white" stroke="white" points="189,-363 189,-563 398,-563 398,-363 189,-363"/>
<text text-anchor="start" x="197" y="-545.6" font-family="Times,serif" font-weight="bold" font-size="18.00">Virtual Add&#45;on Bus</text>
<text text-anchor="start" x="215" y="-530.8" font-family="Times,serif" font-style="italic" font-size="14.00" fill="#777777">CPeripheralBusAddon</text>
</g>
<g id="clust4" class="cluster">
<title>cluster_4_2</title>
<polygon fill="red" stroke="red" points="258,-255 258,-307 328,-307 328,-255 258,-255"/>
</g>
<g id="clust5" class="cluster">
<title>cluster_4_3</title>
<polygon fill="white" stroke="white" points="166.5,-39 166.5,-239 419.5,-239 419.5,-39 166.5,-39"/>
<text text-anchor="start" x="174.5" y="-221.6" font-family="Times,serif" font-weight="bold" font-size="18.00">Virtual Application Bus</text>
<text text-anchor="start" x="196.5" y="-206.8" font-family="Times,serif" font-style="italic" font-size="14.00" fill="#777777">CPeripheralBusApplication</text>
</g>
<g id="clust6" class="cluster">
<title>cluster_7</title>
<polygon fill="red" stroke="white" points="475,-31 475,-561 721,-561 721,-31 475,-31"/>
<text text-anchor="start" x="523.5" y="-542" font-family="Times,serif" font-weight="bold" font-size="20.00" fill="white">Input Library</text>
</g>
<g id="clust7" class="cluster">
<title>cluster_7_1</title>
<polygon fill="red" stroke="red" points="483,-363 483,-523 713,-523 713,-363 483,-363"/>
</g>
<g id="clust8" class="cluster">
<title>cluster_7_2</title>
<polygon fill="red" stroke="red" points="563,-255 563,-307 633,-307 633,-255 563,-255"/>
</g>
<g id="clust9" class="cluster">
<title>cluster_7_3</title>
<polygon fill="red" stroke="red" points="500.5,-39 500.5,-199 695.5,-199 695.5,-39 500.5,-39"/>
</g>
<!-- _1 -->
<g id="node1" class="node">
<title>_1</title>
<polygon fill="white" stroke="black" points="91,-403 20,-403 20,-367 91,-367 91,-403"/>
<text text-anchor="start" x="28" y="-382.3" font-family="Arial" font-weight="bold" font-size="14.00">Joystick</text>
</g>
<!-- _2 -->
<g id="node2" class="node">
<title>_2</title>
<polygon fill="white" stroke="black" points="91,-295 20,-295 20,-259 91,-259 91,-295"/>
<text text-anchor="start" x="28" y="-280.8" font-family="Arial" font-weight="bold" font-size="14.00">Joystick</text>
<text text-anchor="start" x="37" y="-266.8" font-family="Arial" font-weight="bold" font-size="14.00">Event</text>
</g>
<!-- _3 -->
<g id="node3" class="node">
<title>_3</title>
<polygon fill="white" stroke="black" points="95,-187 16,-187 16,-151 95,-151 95,-187"/>
<text text-anchor="start" x="24" y="-166.3" font-family="Arial" font-weight="bold" font-size="14.00">Keyboard</text>
</g>
<!-- _4 -->
<g id="node4" class="node">
<title>_4</title>
<polygon fill="white" stroke="black" points="95,-79 16,-79 16,-43 95,-43 95,-79"/>
<text text-anchor="start" x="24" y="-64.8" font-family="Arial" font-weight="bold" font-size="14.00">Keyboard</text>
<text text-anchor="start" x="37" y="-50.8" font-family="Arial" font-weight="bold" font-size="14.00">Event</text>
</g>
<!-- _14 -->
<g id="node8" class="node">
<title>_14</title>
<polygon fill="white" stroke="black" points="363,-83 223,-83 223,-47 363,-47 363,-83"/>
<text text-anchor="start" x="231" y="-68.8" font-family="Arial" font-weight="bold" font-size="14.00">Keyboard Handling</text>
<text text-anchor="start" x="238.5" y="-54.8" font-family="Arial" font-style="italic" font-size="14.00" fill="#777777">IKeyboardHandler</text>
</g>
<!-- _4&#45;&gt;_14 -->
<g id="edge1" class="edge">
<title>_4&#45;&gt;_14</title>
<path fill="none" stroke="black" stroke-width="3" d="M95.25,-63C95.25,-63 212.82,-63 212.82,-63"/>
<polygon fill="black" stroke="black" stroke-width="3" points="212.82,-66.5 222.82,-63 212.82,-59.5 212.82,-66.5"/>
</g>
<!-- _11 -->
<g id="node5" class="node">
<title>_11</title>
<polygon fill="white" stroke="black" points="363,-515 223,-515 223,-479 363,-479 363,-515"/>
<text text-anchor="start" x="231" y="-500.8" font-family="Arial" font-weight="bold" font-size="14.00">Joystick Peripheral</text>
<text text-anchor="start" x="233" y="-486.8" font-family="Arial" font-style="italic" font-size="14.00" fill="#777777">CPeripheralJoystick</text>
</g>
<!-- _12 -->
<g id="node6" class="node">
<title>_12</title>
<polygon fill="white" stroke="black" points="369,-407 217,-407 217,-371 369,-371 369,-407"/>
<text text-anchor="start" x="243.5" y="-392.8" font-family="Arial" font-weight="bold" font-size="14.00">Event Handling</text>
<text text-anchor="start" x="225" y="-378.8" font-family="Arial" font-style="italic" font-size="14.00" fill="#777777">IJoystickDriverHandler</text>
</g>
<!-- _15 -->
<g id="node9" class="node">
<title>_15</title>
<polygon fill="white" stroke="black" points="701,-515 495,-515 495,-479 701,-479 701,-515"/>
<text text-anchor="start" x="550.5" y="-500.8" font-family="Arial" font-weight="bold" font-size="14.00">Input Handling</text>
<text text-anchor="start" x="503" y="-486.8" font-family="Arial" font-style="italic" font-size="14.00" fill="#777777">CGenericJoystickInputHandling</text>
</g>
<!-- _12&#45;&gt;_15 -->
<g id="edge4" class="edge">
<title>_12&#45;&gt;_15</title>
<path fill="none" stroke="black" stroke-width="3" d="M369.22,-398C409.63,-398 451,-398 451,-398 451,-398 451,-497 451,-497 451,-497 484.71,-497 484.71,-497"/>
<polygon fill="black" stroke="black" stroke-width="3" points="484.71,-500.5 494.71,-497 484.71,-493.5 484.71,-500.5"/>
</g>
<!-- _16 -->
<g id="node10" class="node">
<title>_16</title>
<polygon fill="white" stroke="black" points="705,-407 491,-407 491,-371 705,-371 705,-407"/>
<text text-anchor="start" x="546" y="-392.8" font-family="Arial" font-weight="bold" font-size="14.00">Button Mapping</text>
<text text-anchor="start" x="499" y="-378.8" font-family="Arial" font-style="italic" font-size="14.00" fill="#777777">CGenericJoystickButtonMapping</text>
</g>
<!-- _12&#45;&gt;_16 -->
<g id="edge5" class="edge">
<title>_12&#45;&gt;_16</title>
<path fill="none" stroke="black" stroke-width="3" d="M369.18,-389C369.18,-389 480.89,-389 480.89,-389"/>
<polygon fill="black" stroke="black" stroke-width="3" points="480.89,-392.5 490.89,-389 480.89,-385.5 480.89,-392.5"/>
</g>
<!-- _13 -->
<g id="node7" class="node">
<title>_13</title>
<polygon fill="white" stroke="black" points="367.5,-191 218.5,-191 218.5,-155 367.5,-155 367.5,-191"/>
<text text-anchor="start" x="226.5" y="-176.8" font-family="Arial" font-weight="bold" font-size="14.00">Keyboard Peripheral</text>
<text text-anchor="start" x="228" y="-162.8" font-family="Arial" font-style="italic" font-size="14.00" fill="#777777">CPeripheralKeyboard</text>
</g>
<!-- _19 -->
<g id="node11" class="node">
<title>_19</title>
<polygon fill="white" stroke="black" points="685.5,-191 510.5,-191 510.5,-155 685.5,-155 685.5,-191"/>
<text text-anchor="start" x="540.5" y="-176.8" font-family="Arial" font-weight="bold" font-size="14.00">Joystick Imitation</text>
<text text-anchor="start" x="518.5" y="-162.8" font-family="Arial" font-style="italic" font-size="14.00" fill="#777777">CGenericKeyboadHandler</text>
</g>
<!-- _14&#45;&gt;_19 -->
<g id="edge2" class="edge">
<title>_14&#45;&gt;_19</title>
<path fill="none" stroke="black" stroke-width="3" d="M363.08,-65C423.13,-65 500,-65 500,-65 500,-65 500,-167 500,-167 500,-167 501.05,-167 501.05,-167"/>
<polygon fill="black" stroke="black" stroke-width="3" points="500.49,-170.5 510.49,-167 500.49,-163.5 500.49,-170.5"/>
</g>
<!-- _19&#45;&gt;_12 -->
<g id="edge3" class="edge">
<title>_19&#45;&gt;_12</title>
<path fill="none" stroke="black" stroke-width="3" d="M510.33,-179C461.32,-179 410,-179 410,-179 410,-179 410,-380 410,-380 410,-380 379.08,-380 379.08,-380"/>
<polygon fill="black" stroke="black" stroke-width="3" points="379.08,-376.5 369.08,-380 379.08,-383.5 379.08,-376.5"/>
</g>
<!-- _20 -->
<g id="node12" class="node">
<title>_20</title>
<polygon fill="white" stroke="black" points="687.5,-83 508.5,-83 508.5,-47 687.5,-47 687.5,-83"/>
<text text-anchor="start" x="560" y="-68.8" font-family="Arial" font-weight="bold" font-size="14.00">Button Map</text>
<text text-anchor="start" x="516.5" y="-54.8" font-family="Arial" font-style="italic" font-size="14.00" fill="#777777">CAddonJoystickButtonMap</text>
</g>
<g id="node13" class="node">
<title></title>
<polygon fill="none" stroke="red" points="320,-299 266,-299 266,-263 320,-263 320,-299"/>
</g>
<!-- &#45; -->
<g id="node14" class="node">
<title>&#45;</title>
<polygon fill="none" stroke="red" points="625,-299 571,-299 571,-263 625,-263 625,-299"/>
<text text-anchor="middle" x="598" y="-277.3" font-family="Arial" font-size="14.00" fill="red">&#45;</text>
</g>
</g>
</svg>
