<?xml version="1.0" encoding="UTF-8" standalone="no"?>
<!DOCTYPE svg PUBLIC "-//W3C//DTD SVG 1.1//EN"
 "http://www.w3.org/Graphics/SVG/1.1/DTD/svg11.dtd">
<!-- Generated by graphviz version 2.43.0 (0)
 -->
<!-- Title: D Pages: 1 -->
<svg width="943pt" height="785pt"
 viewBox="0.00 0.00 943.00 785.00" xmlns="http://www.w3.org/2000/svg" xmlns:xlink="http://www.w3.org/1999/xlink">
<g id="graph0" class="graph" transform="scale(1 1) rotate(0) translate(4 781)">
<title>D</title>
<polygon fill="white" stroke="transparent" points="-4,4 -4,-781 939,-781 939,4 -4,4"/>
<text text-anchor="middle" x="467.5" y="-7.8" font-family="Times,serif" font-size="14.00" fill="white">Orthogonal edges</text>
<g id="clust1" class="cluster">
<title>cluster_7</title>
<polygon fill="red" stroke="white" points="8,-239 8,-769 254,-769 254,-239 8,-239"/>
<text text-anchor="start" x="56.5" y="-750" font-family="Times,serif" font-weight="bold" font-size="20.00" fill="white">Input Library</text>
</g>
<g id="clust2" class="cluster">
<title>cluster_7_1</title>
<polygon fill="red" stroke="red" points="16,-571 16,-731 246,-731 246,-571 16,-571"/>
</g>
<g id="clust3" class="cluster">
<title>cluster_7_2</title>
<polygon fill="red" stroke="red" points="96,-463 96,-515 166,-515 166,-463 96,-463"/>
</g>
<g id="clust4" class="cluster">
<title>cluster_7_3</title>
<polygon fill="red" stroke="red" points="33.5,-247 33.5,-407 228.5,-407 228.5,-247 33.5,-247"/>
</g>
<g id="clust7" class="cluster">
<title>cluster_11</title>
<polygon fill="red" stroke="white" points="676,-224 676,-522 935,-522 935,-224 676,-224"/>
<text text-anchor="start" x="684" y="-503" font-family="Times,serif" font-weight="bold" font-size="20.00" fill="white">Libretro API Wrapper</text>
</g>
<g id="clust6" class="cluster">
<title>cluster_9</title>
<polygon fill="red" stroke="white" points="21,-31 21,-221 242,-221 242,-31 21,-31"/>
<text text-anchor="start" x="29" y="-202" font-family="Times,serif" font-weight="bold" font-size="20.00" fill="white">Configuration GUI</text>
</g>
<g id="clust5" class="cluster">
<title>cluster_8</title>
<polygon fill="red" stroke="white" points="302,-332 302,-414 620,-414 620,-332 302,-332"/>
<text text-anchor="start" x="405.5" y="-395" font-family="Times,serif" font-weight="bold" font-size="20.00" fill="white">Game API</text>
</g>
<!-- _15 -->
<g id="node1" class="node">
<title>_15</title>
<polygon fill="white" stroke="black" points="234,-723 28,-723 28,-687 234,-687 234,-723"/>
<text text-anchor="start" x="83.5" y="-708.8" font-family="Arial" font-weight="bold" font-size="14.00">Input Handling</text>
<text text-anchor="start" x="36" y="-694.8" font-family="Arial" font-style="italic" font-size="14.00" fill="#777777">CGenericJoystickInputHandling</text>
</g>
<!-- _21 -->
<g id="node5" class="node">
<title>_21</title>
<polygon fill="white" stroke="black" points="434,-376 310,-376 310,-340 434,-340 434,-376"/>
<text text-anchor="start" x="318" y="-361.8" font-family="Arial" font-weight="bold" font-size="14.00">Game Controller</text>
<text text-anchor="start" x="322.5" y="-347.8" font-family="Arial" font-style="italic" font-size="14.00" fill="#777777">CControllerInput</text>
</g>
<!-- _15&#45;&gt;_21 -->
<g id="edge1" class="edge">
<title>_15&#45;&gt;_21</title>
<path fill="none" stroke="black" stroke-width="3" d="M234.25,-705C299.67,-705 372,-705 372,-705 372,-705 372,-386.17 372,-386.17"/>
<polygon fill="black" stroke="black" stroke-width="3" points="375.5,-386.17 372,-376.17 368.5,-386.17 375.5,-386.17"/>
</g>
<!-- _16 -->
<g id="node2" class="node">
<title>_16</title>
<polygon fill="white" stroke="black" points="238,-615 24,-615 24,-579 238,-579 238,-615"/>
<text text-anchor="start" x="79" y="-600.8" font-family="Arial" font-weight="bold" font-size="14.00">Button Mapping</text>
<text text-anchor="start" x="32" y="-586.8" font-family="Arial" font-style="italic" font-size="14.00" fill="#777777">CGenericJoystickButtonMapping</text>
</g>
<!-- _19 -->
<g id="node3" class="node">
<title>_19</title>
<polygon fill="white" stroke="black" points="218.5,-399 43.5,-399 43.5,-363 218.5,-363 218.5,-399"/>
<text text-anchor="start" x="73.5" y="-384.8" font-family="Arial" font-weight="bold" font-size="14.00">Joystick Imitation</text>
<text text-anchor="start" x="51.5" y="-370.8" font-family="Arial" font-style="italic" font-size="14.00" fill="#777777">CGenericKeyboadHandler</text>
</g>
<!-- _20 -->
<g id="node4" class="node">
<title>_20</title>
<polygon fill="white" stroke="black" points="220.5,-291 41.5,-291 41.5,-255 220.5,-255 220.5,-291"/>
<text text-anchor="start" x="93" y="-276.8" font-family="Arial" font-weight="bold" font-size="14.00">Button Map</text>
<text text-anchor="start" x="49.5" y="-262.8" font-family="Arial" font-style="italic" font-size="14.00" fill="#777777">CAddonJoystickButtonMap</text>
</g>
<!-- _22 -->
<g id="node6" class="node">
<title>_22</title>
<polygon fill="white" stroke="black" points="612,-376 506,-376 506,-340 612,-340 612,-376"/>
<text text-anchor="start" x="514" y="-361.8" font-family="Arial" font-weight="bold" font-size="14.00">Game Add&#45;on</text>
<text text-anchor="start" x="517.5" y="-347.8" font-family="Arial" font-style="italic" font-size="14.00" fill="#777777">CGameClient</text>
</g>
<!-- _21&#45;&gt;_22 -->
<g id="edge2" class="edge">
<title>_21&#45;&gt;_22</title>
<path fill="none" stroke="black" stroke-width="3" d="M434.01,-358C434.01,-358 495.92,-358 495.92,-358"/>
<polygon fill="black" stroke="black" stroke-width="3" points="495.92,-361.5 505.92,-358 495.92,-354.5 495.92,-361.5"/>
</g>
<!-- _28 -->
<g id="node10" class="node">
<title>_28</title>
<polygon fill="white" stroke="black" points="863,-376 748,-376 748,-340 863,-340 863,-376"/>
<text text-anchor="start" x="756" y="-361.8" font-family="Arial" font-weight="bold" font-size="14.00">Libretro Device</text>
<text text-anchor="start" x="757" y="-347.8" font-family="Arial" font-style="italic" font-size="14.00" fill="#777777">CLibretroDevice</text>
</g>
<!-- _22&#45;&gt;_28 -->
<g id="edge5" class="edge">
<title>_22&#45;&gt;_28</title>
<path fill="none" stroke="black" stroke-width="3" d="M612.18,-358C612.18,-358 737.68,-358 737.68,-358"/>
<polygon fill="black" stroke="black" stroke-width="3" points="737.68,-361.5 747.68,-358 737.68,-354.5 737.68,-361.5"/>
</g>
<!-- _23 -->
<g id="node7" class="node">
<title>_23</title>
<polygon fill="white" stroke="black" points="220,-183 42,-183 42,-147 220,-147 220,-183"/>
<text text-anchor="start" x="86.5" y="-168.8" font-family="Arial" font-weight="bold" font-size="14.00">Button Dialog</text>
<text text-anchor="start" x="50" y="-154.8" font-family="Arial" font-style="italic" font-size="14.00" fill="#777777">CGUIDialogControllerInput</text>
</g>
<!-- _24 -->
<g id="node8" class="node">
<title>_24</title>
<polygon fill="white" stroke="black" points="222,-75 40,-75 40,-39 222,-39 222,-75"/>
<text text-anchor="start" x="48" y="-60.8" font-family="Arial" font-weight="bold" font-size="14.00">Game Controller Add&#45;ons</text>
<text text-anchor="start" x="77.5" y="-46.8" font-family="Arial" font-style="italic" font-size="14.00" fill="#777777">CGameController</text>
</g>
<!-- _24&#45;&gt;_21 -->
<g id="edge6" class="edge">
<title>_24&#45;&gt;_21</title>
<path fill="none" stroke="black" stroke-width="3" d="M222.11,-57C290.36,-57 372,-57 372,-57 372,-57 372,-329.62 372,-329.62"/>
<polygon fill="black" stroke="black" stroke-width="3" points="368.5,-329.62 372,-339.62 375.5,-329.62 368.5,-329.62"/>
</g>
<!-- _27 -->
<g id="node9" class="node">
<title>_27</title>
<polygon fill="white" stroke="black" points="862,-484 749,-484 749,-448 862,-448 862,-484"/>
<text text-anchor="start" x="757" y="-469.8" font-family="Arial" font-weight="bold" font-size="14.00">Button Mapper</text>
<text text-anchor="start" x="757.5" y="-455.8" font-family="Arial" font-style="italic" font-size="14.00" fill="#777777">CButtonMapper</text>
</g>
<!-- _27&#45;&gt;_28 -->
<g id="edge3" class="edge">
<title>_27&#45;&gt;_28</title>
<path fill="none" stroke="black" stroke-width="3" d="M806,-447.68C806,-447.68 806,-386.05 806,-386.05"/>
<polygon fill="black" stroke="black" stroke-width="3" points="809.5,-386.05 806,-376.05 802.5,-386.05 809.5,-386.05"/>
</g>
<!-- _29 -->
<g id="node11" class="node">
<title>_29</title>
<polygon fill="white" stroke="black" points="856.5,-268 754.5,-268 754.5,-232 856.5,-232 856.5,-268"/>
<text text-anchor="start" x="762.5" y="-253.8" font-family="Arial" font-weight="bold" font-size="14.00">Libretro Core</text>
<text text-anchor="start" x="769.5" y="-239.8" font-family="Arial" font-style="italic" font-size="14.00" fill="#777777">CLibretroDll</text>
</g>
<!-- _28&#45;&gt;_29 -->
<g id="edge4" class="edge">
<title>_28&#45;&gt;_29</title>
<path fill="none" stroke="black" stroke-width="3" d="M806,-339.68C806,-339.68 806,-278.05 806,-278.05"/>
<polygon fill="black" stroke="black" stroke-width="3" points="809.5,-278.05 806,-268.05 802.5,-278.05 809.5,-278.05"/>
</g>
<!-- &#45; -->
<g id="node12" class="node">
<title>&#45;</title>
<polygon fill="none" stroke="red" points="158,-507 104,-507 104,-471 158,-471 158,-507"/>
<text text-anchor="middle" x="131" y="-485.3" font-family="Arial" font-size="14.00" fill="red">&#45;</text>
</g>
</g>
</svg>
