<?xml version="1.0" encoding="UTF-8" standalone="no"?>
<!DOCTYPE svg PUBLIC "-//W3C//DTD SVG 1.1//EN"
 "http://www.w3.org/Graphics/SVG/1.1/DTD/svg11.dtd">
<!-- Generated by graphviz version 2.43.0 (0)
 -->
<!-- Title: D Pages: 1 -->
<!--zoomable 577 -->
<svg id="main" version="1.1" xmlns="http://www.w3.org/2000/svg" xmlns:xlink="http://www.w3.org/1999/xlink" xml:space="preserve" onload="init(evt)">
<style type="text/css"><![CDATA[
.edge:hover path { stroke: red; }
.edge:hover polygon { stroke: red; fill: red; }
]]></style>
<script type="text/javascript"><![CDATA[
var edges = document.getElementsByTagName('g');
if (edges && edges.length) {
  for (var i=0;i<edges.length;i++) {
    if (edges[i].id.substr(0,4)=='edge') {
      edges[i].setAttribute('class','edge');
    }
  }
}
]]></script>
        <defs>
                <circle id="rim" cx="0" cy="0" r="7"/>
                <circle id="rim2" cx="0" cy="0" r="3.5"/>
                <g id="zoomPlus">
                        <use xlink:href="#rim" fill="#404040">
                                <set attributeName="fill" to="#808080" begin="zoomplus.mouseover" end="zoomplus.mouseout"/>
                        </use>
                        <path d="M-4,0h8M0,-4v8" fill="none" stroke="white" stroke-width="1.5" pointer-events="none"/>
                </g>
                <g id="zoomMin">
                        <use xlink:href="#rim" fill="#404040">
                                <set attributeName="fill" to="#808080" begin="zoomminus.mouseover" end="zoomminus.mouseout"/>
                        </use>
                        <path d="M-4,0h8" fill="none" stroke="white" stroke-width="1.5" pointer-events="none"/>
                </g>
                <g id="dirArrow">
                        <path fill="none" stroke="white" stroke-width="1.5" d="M0,-3.0v7 M-2.5,-0.5L0,-3.0L2.5,-0.5"/>
                </g>
               <g id="resetDef">
                       <use xlink:href="#rim2" fill="#404040">
                               <set attributeName="fill" to="#808080" begin="reset.mouseover" end="reset.mouseout"/>
                       </use>
               </g>
        </defs>

<script type="text/javascript">
var viewWidth = 674;
var viewHeight = 577;
</script>
<script xlink:href="svgpan.js"/>
<svg id="graph" class="graph">
<g id="viewport">
<title>D</title>
<polygon fill="white" stroke="transparent" points="-4,4 -4,-573 670,-573 670,4 -4,4"/>
<text text-anchor="middle" x="333" y="-7.8" font-family="Times,serif" font-size="14.00" fill="white">Orthogonal edges</text>
<g id="clust1" class="cluster">
<title>cluster_7</title>
<polygon fill="red" stroke="white" points="8,-31 8,-561 254,-561 254,-31 8,-31"/>
<text text-anchor="start" x="56.5" y="-542" font-family="Times,serif" font-weight="bold" font-size="20.00" fill="white">Input Library</text>
</g>
<g id="clust2" class="cluster">
<title>cluster_7_1</title>
<polygon fill="red" stroke="red" points="16,-363 16,-523 246,-523 246,-363 16,-363"/>
</g>
<g id="clust3" class="cluster">
<title>cluster_7_2</title>
<polygon fill="red" stroke="red" points="96,-255 96,-307 166,-307 166,-255 96,-255"/>
</g>
<g id="clust4" class="cluster">
<title>cluster_7_3</title>
<polygon fill="red" stroke="red" points="33.5,-39 33.5,-199 228.5,-199 228.5,-39 33.5,-39"/>
</g>
<g id="clust5" class="cluster">
<title>cluster_10</title>
<polygon fill="red" stroke="white" points="302,-471 302,-553 658,-553 658,-471 302,-471"/>
<text text-anchor="start" x="419.5" y="-534" font-family="Times,serif" font-weight="bold" font-size="20.00" fill="white">Kodi Input</text>
</g>
<!-- _15 -->
<g id="node1" class="node">
<title>_15</title>
<polygon fill="white" stroke="black" points="234,-515 28,-515 28,-479 234,-479 234,-515"/>
<text text-anchor="start" x="83.5" y="-500.8" font-family="Arial" font-weight="bold" font-size="14.00">Input Handling</text>
<text text-anchor="start" x="36" y="-486.8" font-family="Arial" font-style="italic" font-size="14.00" fill="#777777">CGenericJoystickInputHandling</text>
</g>
<!-- _25 -->
<g id="node5" class="node">
<title>_25</title>
<polygon fill="white" stroke="black" points="441,-515 310,-515 310,-479 441,-479 441,-515"/>
<text text-anchor="start" x="318" y="-500.8" font-family="Arial" font-weight="bold" font-size="14.00">Default Controller</text>
<text text-anchor="start" x="319.5" y="-486.8" font-family="Arial" font-style="italic" font-size="14.00" fill="#777777">CDefaultController</text>
</g>
<!-- _15&#45;&gt;_25 -->
<g id="edge1" class="edge">
<title>_15&#45;&gt;_25</title>
<path fill="none" stroke="black" stroke-width="3" d="M234.34,-497C234.34,-497 299.75,-497 299.75,-497"/>
<polygon fill="black" stroke="black" stroke-width="3" points="299.75,-500.5 309.75,-497 299.75,-493.5 299.75,-500.5"/>
</g>
<!-- _16 -->
<g id="node2" class="node">
<title>_16</title>
<polygon fill="white" stroke="black" points="238,-407 24,-407 24,-371 238,-371 238,-407"/>
<text text-anchor="start" x="79" y="-392.8" font-family="Arial" font-weight="bold" font-size="14.00">Button Mapping</text>
<text text-anchor="start" x="32" y="-378.8" font-family="Arial" font-style="italic" font-size="14.00" fill="#777777">CGenericJoystickButtonMapping</text>
</g>
<!-- _19 -->
<g id="node3" class="node">
<title>_19</title>
<polygon fill="white" stroke="black" points="218.5,-191 43.5,-191 43.5,-155 218.5,-155 218.5,-191"/>
<text text-anchor="start" x="73.5" y="-176.8" font-family="Arial" font-weight="bold" font-size="14.00">Joystick Imitation</text>
<text text-anchor="start" x="51.5" y="-162.8" font-family="Arial" font-style="italic" font-size="14.00" fill="#777777">CGenericKeyboadHandler</text>
</g>
<!-- _20 -->
<g id="node4" class="node">
<title>_20</title>
<polygon fill="white" stroke="black" points="220.5,-83 41.5,-83 41.5,-47 220.5,-47 220.5,-83"/>
<text text-anchor="start" x="93" y="-68.8" font-family="Arial" font-weight="bold" font-size="14.00">Button Map</text>
<text text-anchor="start" x="49.5" y="-54.8" font-family="Arial" font-style="italic" font-size="14.00" fill="#777777">CAddonJoystickButtonMap</text>
</g>
<!-- _26 -->
<g id="node6" class="node">
<title>_26</title>
<polygon fill="white" stroke="black" points="650,-515 513,-515 513,-479 650,-479 650,-515"/>
<text text-anchor="start" x="521" y="-500.8" font-family="Arial" font-weight="bold" font-size="14.00">Kodi Input Handler</text>
<text text-anchor="start" x="521.5" y="-486.8" font-family="Arial" font-style="italic" font-size="14.00" fill="#777777">CButtonKeyHandler</text>
</g>
<!-- _25&#45;&gt;_26 -->
<g id="edge2" class="edge">
<title>_25&#45;&gt;_26</title>
<path fill="none" stroke="black" stroke-width="3" d="M441.25,-497C441.25,-497 502.83,-497 502.83,-497"/>
<polygon fill="black" stroke="black" stroke-width="3" points="502.83,-500.5 512.83,-497 502.83,-493.5 502.83,-500.5"/>
</g>
<!-- &#45; -->
<g id="node7" class="node">
<title>&#45;</title>
<polygon fill="none" stroke="red" points="158,-299 104,-299 104,-263 158,-263 158,-299"/>
<text text-anchor="middle" x="131" y="-277.3" font-family="Arial" font-size="14.00" fill="red">&#45;</text>
</g>
</g>
</svg>
        <g id="navigator" transform="translate(0 0)" fill="#404254">
                <rect fill="#f2f5e9" fill-opacity="0.5" stroke="#606060" stroke-width=".5" x="0" y="0" width="60" height="60"/>
                <use id="zoomplus" xlink:href="#zoomPlus" x="17" y="9" onmousedown="handleZoom(evt,'in')"/>
                <use id="zoomminus" xlink:href="#zoomMin" x="42" y="9" onmousedown="handleZoom(evt,'out')"/>
                <use id="reset" xlink:href="#resetDef" x="30" y="36" onmousedown="handleReset()"/>
                <g id="arrowUp" xlink:href="#dirArrow" transform="translate(30 24)" onmousedown="handlePan(0,-1)">
                  <use xlink:href="#rim" fill="#404040">
                        <set attributeName="fill" to="#808080" begin="arrowUp.mouseover" end="arrowUp.mouseout"/>
                  </use>
                  <path fill="none" stroke="white" stroke-width="1.5" d="M0,-3.0v7 M-2.5,-0.5L0,-3.0L2.5,-0.5"/>
                </g>
                <g id="arrowRight" xlink:href="#dirArrow" transform="rotate(90) translate(36 -43)" onmousedown="handlePan(1,0)">
                  <use xlink:href="#rim" fill="#404040">
                        <set attributeName="fill" to="#808080" begin="arrowRight.mouseover" end="arrowRight.mouseout"/>
                  </use>
                  <path fill="none" stroke="white" stroke-width="1.5" d="M0,-3.0v7 M-2.5,-0.5L0,-3.0L2.5,-0.5"/>
                </g>
                <g id="arrowDown" xlink:href="#dirArrow" transform="rotate(180) translate(-30 -48)" onmousedown="handlePan(0,1)">
                  <use xlink:href="#rim" fill="#404040">
                        <set attributeName="fill" to="#808080" begin="arrowDown.mouseover" end="arrowDown.mouseout"/>
                  </use>
                  <path fill="none" stroke="white" stroke-width="1.5" d="M0,-3.0v7 M-2.5,-0.5L0,-3.0L2.5,-0.5"/>
                </g>
                <g id="arrowLeft" xlink:href="#dirArrow" transform="rotate(270) translate(-36 17)" onmousedown="handlePan(-1,0)">
                  <use xlink:href="#rim" fill="#404040">
                        <set attributeName="fill" to="#808080" begin="arrowLeft.mouseover" end="arrowLeft.mouseout"/>
                  </use>
                  <path fill="none" stroke="white" stroke-width="1.5" d="M0,-3.0v7 M-2.5,-0.5L0,-3.0L2.5,-0.5"/>
                </g>
        </g>
        <svg viewBox="0 0 15 15" width="100%" height="30px" preserveAspectRatio="xMaxYMin meet">
         <g id="arrow_out" transform="scale(0.3 0.3)">
          <a xlink:href="dot_inline_dotgraph_8_org.svg" target="_base">
           <rect id="button" ry="5" rx="5" y="6" x="6" height="38" width="38"
                fill="#f2f5e9" fill-opacity="0.5" stroke="#606060" stroke-width="1.0"/>
           <path id="arrow"
             d="M 11.500037,31.436501 C 11.940474,20.09759 22.043105,11.32322 32.158766,21.979434 L 37.068811,17.246167 C 37.068811,17.246167 37.088388,32 37.088388,32 L 22.160133,31.978069 C 22.160133,31.978069 26.997745,27.140456 26.997745,27.140456 C 18.528582,18.264221 13.291696,25.230495 11.500037,31.436501 z"
             style="fill:#404040;"/>
          </a>
         </g>
        </svg>
</svg>
