<?xml version="1.0" encoding="UTF-8" standalone="no"?>
<!DOCTYPE svg PUBLIC "-//W3C//DTD SVG 1.1//EN"
 "http://www.w3.org/Graphics/SVG/1.1/DTD/svg11.dtd">
<!-- Generated by graphviz version 2.43.0 (0)
 -->
<!-- Title: D Pages: 1 -->
<!--zoomable 785 -->
<svg id="main" version="1.1" xmlns="http://www.w3.org/2000/svg" xmlns:xlink="http://www.w3.org/1999/xlink" xml:space="preserve" onload="init(evt)">
<style type="text/css"><![CDATA[
.edge:hover path { stroke: red; }
.edge:hover polygon { stroke: red; fill: red; }
]]></style>
<script type="text/javascript"><![CDATA[
var edges = document.getElementsByTagName('g');
if (edges && edges.length) {
  for (var i=0;i<edges.length;i++) {
    if (edges[i].id.substr(0,4)=='edge') {
      edges[i].setAttribute('class','edge');
    }
  }
}
]]></script>
        <defs>
                <circle id="rim" cx="0" cy="0" r="7"/>
                <circle id="rim2" cx="0" cy="0" r="3.5"/>
                <g id="zoomPlus">
                        <use xlink:href="#rim" fill="#404040">
                                <set attributeName="fill" to="#808080" begin="zoomplus.mouseover" end="zoomplus.mouseout"/>
                        </use>
                        <path d="M-4,0h8M0,-4v8" fill="none" stroke="white" stroke-width="1.5" pointer-events="none"/>
                </g>
                <g id="zoomMin">
                        <use xlink:href="#rim" fill="#404040">
                                <set attributeName="fill" to="#808080" begin="zoomminus.mouseover" end="zoomminus.mouseout"/>
                        </use>
                        <path d="M-4,0h8" fill="none" stroke="white" stroke-width="1.5" pointer-events="none"/>
                </g>
                <g id="dirArrow">
                        <path fill="none" stroke="white" stroke-width="1.5" d="M0,-3.0v7 M-2.5,-0.5L0,-3.0L2.5,-0.5"/>
                </g>
               <g id="resetDef">
                       <use xlink:href="#rim2" fill="#404040">
                               <set attributeName="fill" to="#808080" begin="reset.mouseover" end="reset.mouseout"/>
                       </use>
               </g>
        </defs>

<script type="text/javascript">
var viewWidth = 897;
var viewHeight = 785;
</script>
<script xlink:href="svgpan.js"/>
<svg id="graph" class="graph">
<g id="viewport">
<title>D</title>
<polygon fill="white" stroke="transparent" points="-4,4 -4,-781 893,-781 893,4 -4,4"/>
<text text-anchor="middle" x="444.5" y="-7.8" font-family="Times,serif" font-size="14.00" fill="white">Orthogonal edges</text>
<g id="clust1" class="cluster">
<title>cluster_7</title>
<polygon fill="red" stroke="white" points="8,-239 8,-769 254,-769 254,-239 8,-239"/>
<text text-anchor="start" x="70.5" y="-750" font-family="Times,serif" font-weight="bold" font-size="20.00" fill="white">Input Library</text>
</g>
<g id="clust2" class="cluster">
<title>cluster_7_1</title>
<polygon fill="red" stroke="red" points="16,-571 16,-731 246,-731 246,-571 16,-571"/>
</g>
<g id="clust3" class="cluster">
<title>cluster_7_2</title>
<polygon fill="red" stroke="red" points="96,-463 96,-515 166,-515 166,-463 96,-463"/>
</g>
<g id="clust4" class="cluster">
<title>cluster_7_3</title>
<polygon fill="red" stroke="red" points="33.5,-247 33.5,-407 228.5,-407 228.5,-247 33.5,-247"/>
</g>
<g id="clust7" class="cluster">
<title>cluster_11</title>
<polygon fill="red" stroke="white" points="677,-224 677,-522 889,-522 889,-224 677,-224"/>
<text text-anchor="start" x="685" y="-503" font-family="Times,serif" font-weight="bold" font-size="20.00" fill="white">Libretro API Wrapper</text>
</g>
<g id="clust6" class="cluster">
<title>cluster_9</title>
<polygon fill="red" stroke="white" points="32,-31 32,-221 230,-221 230,-31 32,-31"/>
<text text-anchor="start" x="49.5" y="-202" font-family="Times,serif" font-weight="bold" font-size="20.00" fill="white">Configuration GUI</text>
</g>
<g id="clust5" class="cluster">
<title>cluster_8</title>
<polygon fill="red" stroke="white" points="302,-332 302,-414 621,-414 621,-332 302,-332"/>
<text text-anchor="start" x="416.5" y="-395" font-family="Times,serif" font-weight="bold" font-size="20.00" fill="white">Game API</text>
</g>
<!-- _15 -->
<g id="node1" class="node">
<title>_15</title>
<polygon fill="white" stroke="black" points="234,-723 28,-723 28,-687 234,-687 234,-723"/>
<text text-anchor="start" x="83.5" y="-708.8" font-family="Arial" font-weight="bold" font-size="14.00">Input Handling</text>
<text text-anchor="start" x="36" y="-694.8" font-family="Arial" font-style="italic" font-size="14.00" fill="#777777">CGenericJoystickInputHandling</text>
</g>
<!-- _21 -->
<g id="node5" class="node">
<title>_21</title>
<polygon fill="white" stroke="black" points="434,-376 310,-376 310,-340 434,-340 434,-376"/>
<text text-anchor="start" x="318" y="-361.8" font-family="Arial" font-weight="bold" font-size="14.00">Game Controller</text>
<text text-anchor="start" x="322.5" y="-347.8" font-family="Arial" font-style="italic" font-size="14.00" fill="#777777">CControllerInput</text>
</g>
<!-- _15&#45;&gt;_21 -->
<g id="edge1" class="edge">
<title>_15&#45;&gt;_21</title>
<path fill="none" stroke="black" stroke-width="3" d="M234.25,-705C299.67,-705 372,-705 372,-705 372,-705 372,-386.17 372,-386.17"/>
<polygon fill="black" stroke="black" stroke-width="3" points="375.5,-386.17 372,-376.17 368.5,-386.17 375.5,-386.17"/>
</g>
<!-- _16 -->
<g id="node2" class="node">
<title>_16</title>
<polygon fill="white" stroke="black" points="238,-615 24,-615 24,-579 238,-579 238,-615"/>
<text text-anchor="start" x="79" y="-600.8" font-family="Arial" font-weight="bold" font-size="14.00">Button Mapping</text>
<text text-anchor="start" x="32" y="-586.8" font-family="Arial" font-style="italic" font-size="14.00" fill="#777777">CGenericJoystickButtonMapping</text>
</g>
<!-- _19 -->
<g id="node3" class="node">
<title>_19</title>
<polygon fill="white" stroke="black" points="218.5,-399 43.5,-399 43.5,-363 218.5,-363 218.5,-399"/>
<text text-anchor="start" x="73.5" y="-384.8" font-family="Arial" font-weight="bold" font-size="14.00">Joystick Imitation</text>
<text text-anchor="start" x="51.5" y="-370.8" font-family="Arial" font-style="italic" font-size="14.00" fill="#777777">CGenericKeyboadHandler</text>
</g>
<!-- _20 -->
<g id="node4" class="node">
<title>_20</title>
<polygon fill="white" stroke="black" points="220.5,-291 41.5,-291 41.5,-255 220.5,-255 220.5,-291"/>
<text text-anchor="start" x="93" y="-276.8" font-family="Arial" font-weight="bold" font-size="14.00">Button Map</text>
<text text-anchor="start" x="49.5" y="-262.8" font-family="Arial" font-style="italic" font-size="14.00" fill="#777777">CAddonJoystickButtonMap</text>
</g>
<!-- _22 -->
<g id="node6" class="node">
<title>_22</title>
<polygon fill="white" stroke="black" points="613,-376 506,-376 506,-340 613,-340 613,-376"/>
<text text-anchor="start" x="514" y="-361.8" font-family="Arial" font-weight="bold" font-size="14.00">Game Add&#45;on</text>
<text text-anchor="start" x="518" y="-347.8" font-family="Arial" font-style="italic" font-size="14.00" fill="#777777">CGameClient</text>
</g>
<!-- _21&#45;&gt;_22 -->
<g id="edge2" class="edge">
<title>_21&#45;&gt;_22</title>
<path fill="none" stroke="black" stroke-width="3" d="M434.17,-358C434.17,-358 495.97,-358 495.97,-358"/>
<polygon fill="black" stroke="black" stroke-width="3" points="495.97,-361.5 505.97,-358 495.97,-354.5 495.97,-361.5"/>
</g>
<!-- _28 -->
<g id="node10" class="node">
<title>_28</title>
<polygon fill="white" stroke="black" points="840,-376 725,-376 725,-340 840,-340 840,-376"/>
<text text-anchor="start" x="733" y="-361.8" font-family="Arial" font-weight="bold" font-size="14.00">Libretro Device</text>
<text text-anchor="start" x="734" y="-347.8" font-family="Arial" font-style="italic" font-size="14.00" fill="#777777">CLibretroDevice</text>
</g>
<!-- _22&#45;&gt;_28 -->
<g id="edge5" class="edge">
<title>_22&#45;&gt;_28</title>
<path fill="none" stroke="black" stroke-width="3" d="M613.2,-358C613.2,-358 714.98,-358 714.98,-358"/>
<polygon fill="black" stroke="black" stroke-width="3" points="714.98,-361.5 724.98,-358 714.98,-354.5 714.98,-361.5"/>
</g>
<!-- _23 -->
<g id="node7" class="node">
<title>_23</title>
<polygon fill="white" stroke="black" points="220,-183 42,-183 42,-147 220,-147 220,-183"/>
<text text-anchor="start" x="86.5" y="-168.8" font-family="Arial" font-weight="bold" font-size="14.00">Button Dialog</text>
<text text-anchor="start" x="50" y="-154.8" font-family="Arial" font-style="italic" font-size="14.00" fill="#777777">CGUIDialogControllerInput</text>
</g>
<!-- _24 -->
<g id="node8" class="node">
<title>_24</title>
<polygon fill="white" stroke="black" points="222,-75 40,-75 40,-39 222,-39 222,-75"/>
<text text-anchor="start" x="48" y="-60.8" font-family="Arial" font-weight="bold" font-size="14.00">Game Controller Add&#45;ons</text>
<text text-anchor="start" x="77.5" y="-46.8" font-family="Arial" font-style="italic" font-size="14.00" fill="#777777">CGameController</text>
</g>
<!-- _24&#45;&gt;_21 -->
<g id="edge6" class="edge">
<title>_24&#45;&gt;_21</title>
<path fill="none" stroke="black" stroke-width="3" d="M222.11,-57C290.36,-57 372,-57 372,-57 372,-57 372,-329.62 372,-329.62"/>
<polygon fill="black" stroke="black" stroke-width="3" points="368.5,-329.62 372,-339.62 375.5,-329.62 368.5,-329.62"/>
</g>
<!-- _27 -->
<g id="node9" class="node">
<title>_27</title>
<polygon fill="white" stroke="black" points="839,-484 726,-484 726,-448 839,-448 839,-484"/>
<text text-anchor="start" x="734" y="-469.8" font-family="Arial" font-weight="bold" font-size="14.00">Button Mapper</text>
<text text-anchor="start" x="734.5" y="-455.8" font-family="Arial" font-style="italic" font-size="14.00" fill="#777777">CButtonMapper</text>
</g>
<!-- _27&#45;&gt;_28 -->
<g id="edge3" class="edge">
<title>_27&#45;&gt;_28</title>
<path fill="none" stroke="black" stroke-width="3" d="M783,-447.68C783,-447.68 783,-386.05 783,-386.05"/>
<polygon fill="black" stroke="black" stroke-width="3" points="786.5,-386.05 783,-376.05 779.5,-386.05 786.5,-386.05"/>
</g>
<!-- _29 -->
<g id="node11" class="node">
<title>_29</title>
<polygon fill="white" stroke="black" points="833.5,-268 731.5,-268 731.5,-232 833.5,-232 833.5,-268"/>
<text text-anchor="start" x="739.5" y="-253.8" font-family="Arial" font-weight="bold" font-size="14.00">Libretro Core</text>
<text text-anchor="start" x="746.5" y="-239.8" font-family="Arial" font-style="italic" font-size="14.00" fill="#777777">CLibretroDll</text>
</g>
<!-- _28&#45;&gt;_29 -->
<g id="edge4" class="edge">
<title>_28&#45;&gt;_29</title>
<path fill="none" stroke="black" stroke-width="3" d="M783,-339.68C783,-339.68 783,-278.05 783,-278.05"/>
<polygon fill="black" stroke="black" stroke-width="3" points="786.5,-278.05 783,-268.05 779.5,-278.05 786.5,-278.05"/>
</g>
<!-- &#45; -->
<g id="node12" class="node">
<title>&#45;</title>
<polygon fill="none" stroke="red" points="158,-507 104,-507 104,-471 158,-471 158,-507"/>
<text text-anchor="middle" x="131" y="-485.3" font-family="Arial" font-size="14.00" fill="red">&#45;</text>
</g>
</g>
</svg>
        <g id="navigator" transform="translate(0 0)" fill="#404254">
                <rect fill="#f2f5e9" fill-opacity="0.5" stroke="#606060" stroke-width=".5" x="0" y="0" width="60" height="60"/>
                <use id="zoomplus" xlink:href="#zoomPlus" x="17" y="9" onmousedown="handleZoom(evt,'in')"/>
                <use id="zoomminus" xlink:href="#zoomMin" x="42" y="9" onmousedown="handleZoom(evt,'out')"/>
                <use id="reset" xlink:href="#resetDef" x="30" y="36" onmousedown="handleReset()"/>
                <g id="arrowUp" xlink:href="#dirArrow" transform="translate(30 24)" onmousedown="handlePan(0,-1)">
                  <use xlink:href="#rim" fill="#404040">
                        <set attributeName="fill" to="#808080" begin="arrowUp.mouseover" end="arrowUp.mouseout"/>
                  </use>
                  <path fill="none" stroke="white" stroke-width="1.5" d="M0,-3.0v7 M-2.5,-0.5L0,-3.0L2.5,-0.5"/>
                </g>
                <g id="arrowRight" xlink:href="#dirArrow" transform="rotate(90) translate(36 -43)" onmousedown="handlePan(1,0)">
                  <use xlink:href="#rim" fill="#404040">
                        <set attributeName="fill" to="#808080" begin="arrowRight.mouseover" end="arrowRight.mouseout"/>
                  </use>
                  <path fill="none" stroke="white" stroke-width="1.5" d="M0,-3.0v7 M-2.5,-0.5L0,-3.0L2.5,-0.5"/>
                </g>
                <g id="arrowDown" xlink:href="#dirArrow" transform="rotate(180) translate(-30 -48)" onmousedown="handlePan(0,1)">
                  <use xlink:href="#rim" fill="#404040">
                        <set attributeName="fill" to="#808080" begin="arrowDown.mouseover" end="arrowDown.mouseout"/>
                  </use>
                  <path fill="none" stroke="white" stroke-width="1.5" d="M0,-3.0v7 M-2.5,-0.5L0,-3.0L2.5,-0.5"/>
                </g>
                <g id="arrowLeft" xlink:href="#dirArrow" transform="rotate(270) translate(-36 17)" onmousedown="handlePan(-1,0)">
                  <use xlink:href="#rim" fill="#404040">
                        <set attributeName="fill" to="#808080" begin="arrowLeft.mouseover" end="arrowLeft.mouseout"/>
                  </use>
                  <path fill="none" stroke="white" stroke-width="1.5" d="M0,-3.0v7 M-2.5,-0.5L0,-3.0L2.5,-0.5"/>
                </g>
        </g>
        <svg viewBox="0 0 15 15" width="100%" height="30px" preserveAspectRatio="xMaxYMin meet">
         <g id="arrow_out" transform="scale(0.3 0.3)">
          <a xlink:href="dot_inline_dotgraph_7_org.svg" target="_base">
           <rect id="button" ry="5" rx="5" y="6" x="6" height="38" width="38"
                fill="#f2f5e9" fill-opacity="0.5" stroke="#606060" stroke-width="1.0"/>
           <path id="arrow"
             d="M 11.500037,31.436501 C 11.940474,20.09759 22.043105,11.32322 32.158766,21.979434 L 37.068811,17.246167 C 37.068811,17.246167 37.088388,32 37.088388,32 L 22.160133,31.978069 C 22.160133,31.978069 26.997745,27.140456 26.997745,27.140456 C 18.528582,18.264221 13.291696,25.230495 11.500037,31.436501 z"
             style="fill:#404040;"/>
          </a>
         </g>
        </svg>
</svg>
