<?xml version="1.0" encoding="UTF-8" standalone="no"?>
<!DOCTYPE svg PUBLIC "-//W3C//DTD SVG 1.1//EN"
 "http://www.w3.org/Graphics/SVG/1.1/DTD/svg11.dtd">
<!-- Generated by graphviz version 2.43.0 (0)
 -->
<!-- Title: D Pages: 1 -->
<!--zoomable 617 -->
<svg id="main" version="1.1" xmlns="http://www.w3.org/2000/svg" xmlns:xlink="http://www.w3.org/1999/xlink" xml:space="preserve" onload="init(evt)">
<style type="text/css"><![CDATA[
.edge:hover path { stroke: red; }
.edge:hover polygon { stroke: red; fill: red; }
]]></style>
<script type="text/javascript"><![CDATA[
var edges = document.getElementsByTagName('g');
if (edges && edges.length) {
  for (var i=0;i<edges.length;i++) {
    if (edges[i].id.substr(0,4)=='edge') {
      edges[i].setAttribute('class','edge');
    }
  }
}
]]></script>
        <defs>
                <circle id="rim" cx="0" cy="0" r="7"/>
                <circle id="rim2" cx="0" cy="0" r="3.5"/>
                <g id="zoomPlus">
                        <use xlink:href="#rim" fill="#404040">
                                <set attributeName="fill" to="#808080" begin="zoomplus.mouseover" end="zoomplus.mouseout"/>
                        </use>
                        <path d="M-4,0h8M0,-4v8" fill="none" stroke="white" stroke-width="1.5" pointer-events="none"/>
                </g>
                <g id="zoomMin">
                        <use xlink:href="#rim" fill="#404040">
                                <set attributeName="fill" to="#808080" begin="zoomminus.mouseover" end="zoomminus.mouseout"/>
                        </use>
                        <path d="M-4,0h8" fill="none" stroke="white" stroke-width="1.5" pointer-events="none"/>
                </g>
                <g id="dirArrow">
                        <path fill="none" stroke="white" stroke-width="1.5" d="M0,-3.0v7 M-2.5,-0.5L0,-3.0L2.5,-0.5"/>
                </g>
               <g id="resetDef">
                       <use xlink:href="#rim2" fill="#404040">
                               <set attributeName="fill" to="#808080" begin="reset.mouseover" end="reset.mouseout"/>
                       </use>
               </g>
        </defs>

<script type="text/javascript">
var viewWidth = 2053;
var viewHeight = 617;
</script>
<script xlink:href="svgpan.js"/>
<svg id="graph" class="graph">
<g id="viewport">
<title>D</title>
<polygon fill="white" stroke="transparent" points="-4,4 -4,-613 2049,-613 2049,4 -4,4"/>
<text text-anchor="middle" x="1022.5" y="-7.8" font-family="Times,serif" font-size="14.00" fill="white">Orthogonal edges</text>
<g id="clust3" class="cluster">
<title>cluster_1</title>
<polygon fill="red" stroke="white" points="8,-39 8,-445 103,-445 103,-39 8,-39"/>
<text text-anchor="start" x="39.5" y="-426" font-family="Times,serif" font-weight="bold" font-size="20.00" fill="white">OS</text>
</g>
<g id="clust4" class="cluster">
<title>cluster_2</title>
<polygon fill="red" stroke="white" points="159,-274 159,-572 380,-572 380,-274 159,-274"/>
<text text-anchor="start" x="167" y="-553" font-family="Times,serif" font-weight="bold" font-size="20.00" fill="white">Peripheral Add&#45;on</text>
</g>
<g id="clust5" class="cluster">
<title>cluster_3</title>
<polygon fill="red" stroke="white" points="436,-274 436,-572 616,-572 616,-274 436,-274"/>
<text text-anchor="start" x="444" y="-553" font-family="Times,serif" font-weight="bold" font-size="20.00" fill="white">Peripheral API</text>
</g>
<g id="clust6" class="cluster">
<title>cluster_4</title>
<polygon fill="red" stroke="white" points="671.5,-31 671.5,-601 940.5,-601 940.5,-31 671.5,-31"/>
<text text-anchor="start" x="705" y="-582" font-family="Times,serif" font-weight="bold" font-size="20.00" fill="white">Peripheral Busses</text>
</g>
<g id="clust7" class="cluster">
<title>cluster_4_1</title>
<polygon fill="white" stroke="white" points="702,-363 702,-563 911,-563 911,-363 702,-363"/>
<text text-anchor="start" x="710" y="-545.6" font-family="Times,serif" font-weight="bold" font-size="18.00">Virtual Add&#45;on Bus</text>
<text text-anchor="start" x="728" y="-530.8" font-family="Times,serif" font-style="italic" font-size="14.00" fill="#777777">CPeripheralBusAddon</text>
</g>
<g id="clust8" class="cluster">
<title>cluster_4_2</title>
<polygon fill="red" stroke="red" points="771,-255 771,-307 841,-307 841,-255 771,-255"/>
</g>
<g id="clust9" class="cluster">
<title>cluster_4_3</title>
<polygon fill="white" stroke="white" points="679.5,-39 679.5,-239 932.5,-239 932.5,-39 679.5,-39"/>
<text text-anchor="start" x="687.5" y="-221.6" font-family="Times,serif" font-weight="bold" font-size="18.00">Virtual Application Bus</text>
<text text-anchor="start" x="709.5" y="-206.8" font-family="Times,serif" font-style="italic" font-size="14.00" fill="#777777">CPeripheralBusApplication</text>
</g>
<g id="clust17" class="cluster">
<title>cluster_11</title>
<polygon fill="red" stroke="white" points="1786,-167 1786,-465 2045,-465 2045,-167 1786,-167"/>
<text text-anchor="start" x="1794" y="-446" font-family="Times,serif" font-weight="bold" font-size="20.00" fill="white">Libretro API Wrapper</text>
</g>
<g id="clust16" class="cluster">
<title>cluster_10</title>
<polygon fill="red" stroke="white" points="1305.5,-275 1305.5,-357 1707.5,-357 1707.5,-275 1305.5,-275"/>
<text text-anchor="start" x="1446" y="-338" font-family="Times,serif" font-weight="bold" font-size="20.00" fill="white">Kodi Input</text>
</g>
<g id="clust15" class="cluster">
<title>cluster_9</title>
<polygon fill="red" stroke="white" points="1282,-383 1282,-465 1730,-465 1730,-383 1282,-383"/>
<text text-anchor="start" x="1403.5" y="-446" font-family="Times,serif" font-weight="bold" font-size="20.00" fill="white">Configuration GUI</text>
</g>
<g id="clust14" class="cluster">
<title>cluster_8</title>
<polygon fill="red" stroke="white" points="1309,-491 1309,-573 1692,-573 1692,-491 1309,-491"/>
<text text-anchor="start" x="1445" y="-554" font-family="Times,serif" font-weight="bold" font-size="20.00" fill="white">Game API</text>
</g>
<g id="clust10" class="cluster">
<title>cluster_7</title>
<polygon fill="red" stroke="white" points="988,-51 988,-581 1234,-581 1234,-51 988,-51"/>
<text text-anchor="start" x="1036.5" y="-562" font-family="Times,serif" font-weight="bold" font-size="20.00" fill="white">Input Library</text>
</g>
<g id="clust11" class="cluster">
<title>cluster_7_1</title>
<polygon fill="red" stroke="red" points="996,-383 996,-543 1226,-543 1226,-383 996,-383"/>
</g>
<g id="clust12" class="cluster">
<title>cluster_7_2</title>
<polygon fill="red" stroke="red" points="1076,-275 1076,-327 1146,-327 1146,-275 1076,-275"/>
</g>
<g id="clust13" class="cluster">
<title>cluster_7_3</title>
<polygon fill="red" stroke="red" points="1013.5,-59 1013.5,-219 1208.5,-219 1208.5,-59 1013.5,-59"/>
</g>
<!-- _1 -->
<g id="node1" class="node">
<title>_1</title>
<polygon fill="white" stroke="black" points="91,-407 20,-407 20,-371 91,-371 91,-407"/>
<text text-anchor="start" x="28" y="-386.3" font-family="Arial" font-weight="bold" font-size="14.00">Joystick</text>
</g>
<!-- _5 -->
<g id="node5" class="node">
<title>_5</title>
<polygon fill="white" stroke="black" points="306,-426 232,-426 232,-390 306,-390 306,-426"/>
<text text-anchor="start" x="241.5" y="-411.8" font-family="Arial" font-weight="bold" font-size="14.00">Joystick</text>
<text text-anchor="start" x="240" y="-397.8" font-family="Arial" font-style="italic" font-size="14.00" fill="#777777">CJoystick</text>
</g>
<!-- _1&#45;&gt;_5 -->
<g id="edge1" class="edge">
<title>_1&#45;&gt;_5</title>
<path fill="none" stroke="black" stroke-width="3" d="M91.24,-398.5C91.24,-398.5 221.71,-398.5 221.71,-398.5"/>
<polygon fill="black" stroke="black" stroke-width="3" points="221.71,-402 231.71,-398.5 221.71,-395 221.71,-402"/>
</g>
<!-- _2 -->
<g id="node2" class="node">
<title>_2</title>
<polygon fill="white" stroke="black" points="91,-299 20,-299 20,-263 91,-263 91,-299"/>
<text text-anchor="start" x="28" y="-284.8" font-family="Arial" font-weight="bold" font-size="14.00">Joystick</text>
<text text-anchor="start" x="37" y="-270.8" font-family="Arial" font-weight="bold" font-size="14.00">Event</text>
</g>
<!-- _6 -->
<g id="node6" class="node">
<title>_6</title>
<polygon fill="white" stroke="black" points="364,-318 174,-318 174,-282 364,-282 364,-318"/>
<text text-anchor="start" x="215.5" y="-303.8" font-family="Arial" font-weight="bold" font-size="14.00">Peripheral Event</text>
<text text-anchor="start" x="182" y="-289.8" font-family="Arial" font-style="italic" font-size="14.00" fill="#777777">kodi::addon::PeripheralEvent</text>
</g>
<!-- _2&#45;&gt;_6 -->
<g id="edge2" class="edge">
<title>_2&#45;&gt;_6</title>
<path fill="none" stroke="black" stroke-width="3" d="M91.24,-290.5C91.24,-290.5 163.73,-290.5 163.73,-290.5"/>
<polygon fill="black" stroke="black" stroke-width="3" points="163.73,-294 173.73,-290.5 163.73,-287 163.73,-294"/>
</g>
<!-- _3 -->
<g id="node3" class="node">
<title>_3</title>
<polygon fill="white" stroke="black" points="95,-191 16,-191 16,-155 95,-155 95,-191"/>
<text text-anchor="start" x="24" y="-170.3" font-family="Arial" font-weight="bold" font-size="14.00">Keyboard</text>
</g>
<!-- _13 -->
<g id="node13" class="node">
<title>_13</title>
<polygon fill="white" stroke="black" points="880.5,-191 731.5,-191 731.5,-155 880.5,-155 880.5,-191"/>
<text text-anchor="start" x="739.5" y="-176.8" font-family="Arial" font-weight="bold" font-size="14.00">Keyboard Peripheral</text>
<text text-anchor="start" x="741" y="-162.8" font-family="Arial" font-style="italic" font-size="14.00" fill="#777777">CPeripheralKeyboard</text>
</g>
<!-- _3&#45;&gt;_13 -->
<g id="edge3" class="edge">
<title>_3&#45;&gt;_13</title>
<path fill="none" stroke="black" stroke-width="3" d="M95.06,-173C95.06,-173 721.49,-173 721.49,-173"/>
<polygon fill="black" stroke="black" stroke-width="3" points="721.49,-176.5 731.49,-173 721.49,-169.5 721.49,-176.5"/>
</g>
<!-- _4 -->
<g id="node4" class="node">
<title>_4</title>
<polygon fill="white" stroke="black" points="95,-83 16,-83 16,-47 95,-47 95,-83"/>
<text text-anchor="start" x="24" y="-68.8" font-family="Arial" font-weight="bold" font-size="14.00">Keyboard</text>
<text text-anchor="start" x="37" y="-54.8" font-family="Arial" font-weight="bold" font-size="14.00">Event</text>
</g>
<!-- _14 -->
<g id="node14" class="node">
<title>_14</title>
<polygon fill="white" stroke="black" points="876,-83 736,-83 736,-47 876,-47 876,-83"/>
<text text-anchor="start" x="744" y="-68.8" font-family="Arial" font-weight="bold" font-size="14.00">Keyboard Handling</text>
<text text-anchor="start" x="751.5" y="-54.8" font-family="Arial" font-style="italic" font-size="14.00" fill="#777777">IKeyboardHandler</text>
</g>
<!-- _4&#45;&gt;_14 -->
<g id="edge4" class="edge">
<title>_4&#45;&gt;_14</title>
<path fill="none" stroke="black" stroke-width="3" d="M95.06,-65C95.06,-65 725.89,-65 725.89,-65"/>
<polygon fill="black" stroke="black" stroke-width="3" points="725.89,-68.5 735.89,-65 725.89,-61.5 725.89,-68.5"/>
</g>
<!-- _8 -->
<g id="node8" class="node">
<title>_8</title>
<polygon fill="white" stroke="black" points="588,-426 464,-426 464,-390 588,-390 588,-426"/>
<text text-anchor="start" x="500" y="-411.8" font-family="Arial" font-weight="bold" font-size="14.00">C struct</text>
<text text-anchor="start" x="472" y="-397.8" font-family="Arial" font-style="italic" font-size="14.00" fill="#777777">JOYSTICK_INFO</text>
</g>
<!-- _5&#45;&gt;_8 -->
<g id="edge5" class="edge">
<title>_5&#45;&gt;_8</title>
<path fill="none" stroke="black" stroke-width="3" d="M306.1,-408C306.1,-408 453.58,-408 453.58,-408"/>
<polygon fill="black" stroke="black" stroke-width="3" points="453.58,-411.5 463.58,-408 453.58,-404.5 453.58,-411.5"/>
</g>
<!-- _9 -->
<g id="node9" class="node">
<title>_9</title>
<polygon fill="white" stroke="black" points="603.5,-318 448.5,-318 448.5,-282 603.5,-282 603.5,-318"/>
<text text-anchor="start" x="500" y="-303.8" font-family="Arial" font-weight="bold" font-size="14.00">C struct</text>
<text text-anchor="start" x="456.5" y="-289.8" font-family="Arial" font-style="italic" font-size="14.00" fill="#777777">PERIPHERAL_EVENT</text>
</g>
<!-- _6&#45;&gt;_9 -->
<g id="edge6" class="edge">
<title>_6&#45;&gt;_9</title>
<path fill="none" stroke="black" stroke-width="3" d="M364.33,-300C364.33,-300 438.45,-300 438.45,-300"/>
<polygon fill="black" stroke="black" stroke-width="3" points="438.45,-303.5 448.45,-300 438.45,-296.5 438.45,-303.5"/>
</g>
<!-- _7 -->
<g id="node7" class="node">
<title>_7</title>
<polygon fill="white" stroke="black" points="369,-534 169,-534 169,-498 369,-498 369,-534"/>
<text text-anchor="start" x="233" y="-519.8" font-family="Arial" font-weight="bold" font-size="14.00">ButtonMap</text>
<text text-anchor="start" x="177" y="-505.8" font-family="Arial" font-style="italic" font-size="14.00" fill="#777777">kodi::addon::JoystickFeatures*</text>
</g>
<!-- _10 -->
<g id="node10" class="node">
<title>_10</title>
<polygon fill="white" stroke="black" points="605,-534 447,-534 447,-498 605,-498 605,-534"/>
<text text-anchor="start" x="496.5" y="-519.8" font-family="Arial" font-weight="bold" font-size="14.00">C structs</text>
<text text-anchor="start" x="455" y="-505.8" font-family="Arial" font-style="italic" font-size="14.00" fill="#777777">JOYSTICK_FEATURE*</text>
</g>
<!-- _7&#45;&gt;_10 -->
<g id="edge7" class="edge">
<title>_7&#45;&gt;_10</title>
<path fill="none" stroke="black" stroke-width="3" d="M379.1,-516C379.1,-516 436.85,-516 436.85,-516"/>
<polygon fill="black" stroke="black" stroke-width="3" points="436.85,-519.5 446.85,-516 436.85,-512.5 436.85,-519.5"/>
<polygon fill="black" stroke="black" stroke-width="3" points="379.1,-512.5 369.1,-516 379.1,-519.5 379.1,-512.5"/>
</g>
<!-- _11 -->
<g id="node11" class="node">
<title>_11</title>
<polygon fill="white" stroke="black" points="876,-515 736,-515 736,-479 876,-479 876,-515"/>
<text text-anchor="start" x="744" y="-500.8" font-family="Arial" font-weight="bold" font-size="14.00">Joystick Peripheral</text>
<text text-anchor="start" x="746" y="-486.8" font-family="Arial" font-style="italic" font-size="14.00" fill="#777777">CPeripheralJoystick</text>
</g>
<!-- _8&#45;&gt;_11 -->
<g id="edge9" class="edge">
<title>_8&#45;&gt;_11</title>
<path fill="none" stroke="black" stroke-width="3" d="M526,-426.27C526,-450.02 526,-488.5 526,-488.5 526,-488.5 725.71,-488.5 725.71,-488.5"/>
<polygon fill="black" stroke="black" stroke-width="3" points="725.71,-492 735.71,-488.5 725.71,-485 725.71,-492"/>
</g>
<!-- _12 -->
<g id="node12" class="node">
<title>_12</title>
<polygon fill="white" stroke="black" points="882,-407 730,-407 730,-371 882,-371 882,-407"/>
<text text-anchor="start" x="756.5" y="-392.8" font-family="Arial" font-weight="bold" font-size="14.00">Event Handling</text>
<text text-anchor="start" x="738" y="-378.8" font-family="Arial" font-style="italic" font-size="14.00" fill="#777777">IJoystickDriverHandler</text>
</g>
<!-- _9&#45;&gt;_12 -->
<g id="edge10" class="edge">
<title>_9&#45;&gt;_12</title>
<path fill="none" stroke="black" stroke-width="3" d="M596,-318.27C596,-342.02 596,-380.5 596,-380.5 596,-380.5 719.89,-380.5 719.89,-380.5"/>
<polygon fill="black" stroke="black" stroke-width="3" points="719.89,-384 729.89,-380.5 719.89,-377 719.89,-384"/>
</g>
<!-- _20 -->
<g id="node18" class="node">
<title>_20</title>
<polygon fill="white" stroke="black" points="1200.5,-211 1021.5,-211 1021.5,-175 1200.5,-175 1200.5,-211"/>
<text text-anchor="start" x="1073" y="-196.8" font-family="Arial" font-weight="bold" font-size="14.00">Button Map</text>
<text text-anchor="start" x="1029.5" y="-182.8" font-family="Arial" font-style="italic" font-size="14.00" fill="#777777">CAddonJoystickButtonMap</text>
</g>
<!-- _10&#45;&gt;_20 -->
<g id="edge8" class="edge">
<title>_10&#45;&gt;_20</title>
<path fill="none" stroke="black" stroke-width="3" d="M615.3,-506.5C615.3,-506.5 668,-506.5 668,-506.5 668,-506.5 668,-201 668,-201 668,-201 1011.35,-201 1011.35,-201"/>
<polygon fill="black" stroke="black" stroke-width="3" points="615.3,-503 605.3,-506.5 615.3,-510 615.3,-503"/>
<polygon fill="black" stroke="black" stroke-width="3" points="1011.35,-204.5 1021.35,-201 1011.35,-197.5 1011.35,-204.5"/>
</g>
<!-- _15 -->
<g id="node15" class="node">
<title>_15</title>
<polygon fill="white" stroke="black" points="1214,-535 1008,-535 1008,-499 1214,-499 1214,-535"/>
<text text-anchor="start" x="1063.5" y="-520.8" font-family="Arial" font-weight="bold" font-size="14.00">Input Handling</text>
<text text-anchor="start" x="1016" y="-506.8" font-family="Arial" font-style="italic" font-size="14.00" fill="#777777">CGenericJoystickInputHandling</text>
</g>
<!-- _12&#45;&gt;_15 -->
<g id="edge13" class="edge">
<title>_12&#45;&gt;_15</title>
<path fill="none" stroke="black" stroke-width="3" d="M882.11,-401.67C913.65,-401.67 943,-401.67 943,-401.67 943,-401.67 943,-507 943,-507 943,-507 997.95,-507 997.95,-507"/>
<polygon fill="black" stroke="black" stroke-width="3" points="997.95,-510.5 1007.95,-507 997.95,-503.5 997.95,-510.5"/>
</g>
<!-- _16 -->
<g id="node16" class="node">
<title>_16</title>
<polygon fill="white" stroke="black" points="1218,-427 1004,-427 1004,-391 1218,-391 1218,-427"/>
<text text-anchor="start" x="1059" y="-412.8" font-family="Arial" font-weight="bold" font-size="14.00">Button Mapping</text>
<text text-anchor="start" x="1012" y="-398.8" font-family="Arial" font-style="italic" font-size="14.00" fill="#777777">CGenericJoystickButtonMapping</text>
</g>
<!-- _12&#45;&gt;_16 -->
<g id="edge14" class="edge">
<title>_12&#45;&gt;_16</title>
<path fill="none" stroke="black" stroke-width="3" d="M882.18,-396.33C882.18,-396.33 993.89,-396.33 993.89,-396.33"/>
<polygon fill="black" stroke="black" stroke-width="3" points="993.89,-399.83 1003.89,-396.33 993.89,-392.83 993.89,-399.83"/>
</g>
<!-- _19 -->
<g id="node17" class="node">
<title>_19</title>
<polygon fill="white" stroke="black" points="1198.5,-103 1023.5,-103 1023.5,-67 1198.5,-67 1198.5,-103"/>
<text text-anchor="start" x="1053.5" y="-88.8" font-family="Arial" font-weight="bold" font-size="14.00">Joystick Imitation</text>
<text text-anchor="start" x="1031.5" y="-74.8" font-family="Arial" font-style="italic" font-size="14.00" fill="#777777">CGenericKeyboadHandler</text>
</g>
<!-- _14&#45;&gt;_19 -->
<g id="edge11" class="edge">
<title>_14&#45;&gt;_19</title>
<path fill="none" stroke="black" stroke-width="3" d="M876.36,-75C876.36,-75 1013.26,-75 1013.26,-75"/>
<polygon fill="black" stroke="black" stroke-width="3" points="1013.26,-78.5 1023.26,-75 1013.26,-71.5 1013.26,-78.5"/>
</g>
<!-- _21 -->
<g id="node19" class="node">
<title>_21</title>
<polygon fill="white" stroke="black" points="1441,-535 1317,-535 1317,-499 1441,-499 1441,-535"/>
<text text-anchor="start" x="1325" y="-520.8" font-family="Arial" font-weight="bold" font-size="14.00">Game Controller</text>
<text text-anchor="start" x="1329.5" y="-506.8" font-family="Arial" font-style="italic" font-size="14.00" fill="#777777">CControllerInput</text>
</g>
<!-- _15&#45;&gt;_21 -->
<g id="edge15" class="edge">
<title>_15&#45;&gt;_21</title>
<path fill="none" stroke="black" stroke-width="3" d="M1214.23,-526C1214.23,-526 1306.93,-526 1306.93,-526"/>
<polygon fill="black" stroke="black" stroke-width="3" points="1306.93,-529.5 1316.93,-526 1306.93,-522.5 1306.93,-529.5"/>
</g>
<!-- _25 -->
<g id="node23" class="node">
<title>_25</title>
<polygon fill="white" stroke="black" points="1444.5,-319 1313.5,-319 1313.5,-283 1444.5,-283 1444.5,-319"/>
<text text-anchor="start" x="1321.5" y="-304.8" font-family="Arial" font-weight="bold" font-size="14.00">Default Controller</text>
<text text-anchor="start" x="1323" y="-290.8" font-family="Arial" font-style="italic" font-size="14.00" fill="#777777">CDefaultController</text>
</g>
<!-- _15&#45;&gt;_25 -->
<g id="edge16" class="edge">
<title>_15&#45;&gt;_25</title>
<path fill="none" stroke="black" stroke-width="3" d="M1214.39,-517C1242.82,-517 1266,-517 1266,-517 1266,-517 1266,-301 1266,-301 1266,-301 1303.27,-301 1303.27,-301"/>
<polygon fill="black" stroke="black" stroke-width="3" points="1303.27,-304.5 1313.27,-301 1303.27,-297.5 1303.27,-304.5"/>
</g>
<!-- _23 -->
<g id="node21" class="node">
<title>_23</title>
<polygon fill="white" stroke="black" points="1468,-427 1290,-427 1290,-391 1468,-391 1468,-427"/>
<text text-anchor="start" x="1334.5" y="-412.8" font-family="Arial" font-weight="bold" font-size="14.00">Button Dialog</text>
<text text-anchor="start" x="1298" y="-398.8" font-family="Arial" font-style="italic" font-size="14.00" fill="#777777">CGUIDialogControllerInput</text>
</g>
<!-- _16&#45;&gt;_23 -->
<g id="edge17" class="edge">
<title>_16&#45;&gt;_23</title>
<path fill="none" stroke="black" stroke-width="3" d="M1228.08,-409C1228.08,-409 1279.75,-409 1279.75,-409"/>
<polygon fill="black" stroke="black" stroke-width="3" points="1279.75,-412.5 1289.75,-409 1279.75,-405.5 1279.75,-412.5"/>
<polygon fill="black" stroke="black" stroke-width="3" points="1228.08,-405.5 1218.08,-409 1228.08,-412.5 1228.08,-405.5"/>
</g>
<!-- _19&#45;&gt;_12 -->
<g id="edge12" class="edge">
<title>_19&#45;&gt;_12</title>
<path fill="none" stroke="black" stroke-width="3" d="M1023.49,-93C1017.04,-93 1013,-93 1013,-93 1013,-93 1013,-381 1013,-381 1013,-381 892.2,-381 892.2,-381"/>
<polygon fill="black" stroke="black" stroke-width="3" points="892.2,-377.5 882.2,-381 892.2,-384.5 892.2,-377.5"/>
</g>
<!-- _20&#45;&gt;_15 -->
<g id="edge25" class="edge">
<title>_20&#45;&gt;_15</title>
<path fill="none" stroke="black" stroke-width="3" d="M1200.55,-193C1223.58,-193 1242,-193 1242,-193 1242,-193 1242,-508 1242,-508 1242,-508 1224.22,-508 1224.22,-508"/>
<polygon fill="black" stroke="black" stroke-width="3" points="1224.22,-504.5 1214.22,-508 1224.22,-511.5 1224.22,-504.5"/>
</g>
<!-- _20&#45;&gt;_16 -->
<g id="edge26" class="edge">
<title>_20&#45;&gt;_16</title>
<path fill="none" stroke="black" stroke-width="3" d="M1170,-211.04C1170,-211.04 1170,-380.85 1170,-380.85"/>
<polygon fill="black" stroke="black" stroke-width="3" points="1166.5,-380.85 1170,-390.85 1173.5,-380.85 1166.5,-380.85"/>
</g>
<!-- _22 -->
<g id="node20" class="node">
<title>_22</title>
<polygon fill="white" stroke="black" points="1684,-535 1578,-535 1578,-499 1684,-499 1684,-535"/>
<text text-anchor="start" x="1586" y="-520.8" font-family="Arial" font-weight="bold" font-size="14.00">Game Add&#45;on</text>
<text text-anchor="start" x="1589.5" y="-506.8" font-family="Arial" font-style="italic" font-size="14.00" fill="#777777">CGameClient</text>
</g>
<!-- _21&#45;&gt;_22 -->
<g id="edge19" class="edge">
<title>_21&#45;&gt;_22</title>
<path fill="none" stroke="black" stroke-width="3" d="M1441.29,-523C1441.29,-523 1567.94,-523 1567.94,-523"/>
<polygon fill="black" stroke="black" stroke-width="3" points="1567.94,-526.5 1577.94,-523 1567.94,-519.5 1567.94,-526.5"/>
</g>
<!-- _28 -->
<g id="node26" class="node">
<title>_28</title>
<polygon fill="white" stroke="black" points="1973,-319 1858,-319 1858,-283 1973,-283 1973,-319"/>
<text text-anchor="start" x="1866" y="-304.8" font-family="Arial" font-weight="bold" font-size="14.00">Libretro Device</text>
<text text-anchor="start" x="1867" y="-290.8" font-family="Arial" font-style="italic" font-size="14.00" fill="#777777">CLibretroDevice</text>
</g>
<!-- _22&#45;&gt;_28 -->
<g id="edge23" class="edge">
<title>_22&#45;&gt;_28</title>
<path fill="none" stroke="black" stroke-width="3" d="M1684.39,-517C1730.58,-517 1790,-517 1790,-517 1790,-517 1790,-301 1790,-301 1790,-301 1847.89,-301 1847.89,-301"/>
<polygon fill="black" stroke="black" stroke-width="3" points="1847.89,-304.5 1857.89,-301 1847.89,-297.5 1847.89,-304.5"/>
</g>
<!-- _24 -->
<g id="node22" class="node">
<title>_24</title>
<polygon fill="white" stroke="black" points="1722,-427 1540,-427 1540,-391 1722,-391 1722,-427"/>
<text text-anchor="start" x="1548" y="-412.8" font-family="Arial" font-weight="bold" font-size="14.00">Game Controller Add&#45;ons</text>
<text text-anchor="start" x="1577.5" y="-398.8" font-family="Arial" font-style="italic" font-size="14.00" fill="#777777">CGameController</text>
</g>
<!-- _23&#45;&gt;_24 -->
<g id="edge18" class="edge">
<title>_23&#45;&gt;_24</title>
<path fill="none" stroke="black" stroke-width="3" d="M1478.2,-409C1478.2,-409 1539.79,-409 1539.79,-409"/>
<polygon fill="black" stroke="black" stroke-width="3" points="1478.2,-405.5 1468.2,-409 1478.2,-412.5 1478.2,-405.5"/>
</g>
<!-- _24&#45;&gt;_21 -->
<g id="edge24" class="edge">
<title>_24&#45;&gt;_21</title>
<path fill="none" stroke="black" stroke-width="3" d="M1559,-427.24C1559,-456.57 1559,-511 1559,-511 1559,-511 1451.2,-511 1451.2,-511"/>
<polygon fill="black" stroke="black" stroke-width="3" points="1451.2,-507.5 1441.2,-511 1451.2,-514.5 1451.2,-507.5"/>
</g>
<!-- _26 -->
<g id="node24" class="node">
<title>_26</title>
<polygon fill="white" stroke="black" points="1699.5,-319 1562.5,-319 1562.5,-283 1699.5,-283 1699.5,-319"/>
<text text-anchor="start" x="1570.5" y="-304.8" font-family="Arial" font-weight="bold" font-size="14.00">Kodi Input Handler</text>
<text text-anchor="start" x="1571" y="-290.8" font-family="Arial" font-style="italic" font-size="14.00" fill="#777777">CButtonKeyHandler</text>
</g>
<!-- _25&#45;&gt;_26 -->
<g id="edge20" class="edge">
<title>_25&#45;&gt;_26</title>
<path fill="none" stroke="black" stroke-width="3" d="M1444.55,-301C1444.55,-301 1552.25,-301 1552.25,-301"/>
<polygon fill="black" stroke="black" stroke-width="3" points="1552.25,-304.5 1562.25,-301 1552.25,-297.5 1552.25,-304.5"/>
</g>
<!-- _27 -->
<g id="node25" class="node">
<title>_27</title>
<polygon fill="white" stroke="black" points="1972,-427 1859,-427 1859,-391 1972,-391 1972,-427"/>
<text text-anchor="start" x="1867" y="-412.8" font-family="Arial" font-weight="bold" font-size="14.00">Button Mapper</text>
<text text-anchor="start" x="1867.5" y="-398.8" font-family="Arial" font-style="italic" font-size="14.00" fill="#777777">CButtonMapper</text>
</g>
<!-- _27&#45;&gt;_28 -->
<g id="edge21" class="edge">
<title>_27&#45;&gt;_28</title>
<path fill="none" stroke="black" stroke-width="3" d="M1916,-390.68C1916,-390.68 1916,-329.05 1916,-329.05"/>
<polygon fill="black" stroke="black" stroke-width="3" points="1919.5,-329.05 1916,-319.05 1912.5,-329.05 1919.5,-329.05"/>
</g>
<!-- _29 -->
<g id="node27" class="node">
<title>_29</title>
<polygon fill="white" stroke="black" points="1966.5,-211 1864.5,-211 1864.5,-175 1966.5,-175 1966.5,-211"/>
<text text-anchor="start" x="1872.5" y="-196.8" font-family="Arial" font-weight="bold" font-size="14.00">Libretro Core</text>
<text text-anchor="start" x="1879.5" y="-182.8" font-family="Arial" font-style="italic" font-size="14.00" fill="#777777">CLibretroDll</text>
</g>
<!-- _28&#45;&gt;_29 -->
<g id="edge22" class="edge">
<title>_28&#45;&gt;_29</title>
<path fill="none" stroke="black" stroke-width="3" d="M1916,-282.68C1916,-282.68 1916,-221.05 1916,-221.05"/>
<polygon fill="black" stroke="black" stroke-width="3" points="1919.5,-221.05 1916,-211.05 1912.5,-221.05 1919.5,-221.05"/>
</g>
<g id="node28" class="node">
<title></title>
<polygon fill="none" stroke="red" points="833,-299 779,-299 779,-263 833,-263 833,-299"/>
</g>
<!-- &#45; -->
<g id="node29" class="node">
<title>&#45;</title>
<polygon fill="none" stroke="red" points="1138,-319 1084,-319 1084,-283 1138,-283 1138,-319"/>
<text text-anchor="middle" x="1111" y="-297.3" font-family="Arial" font-size="14.00" fill="red">&#45;</text>
</g>
</g>
</svg>
        <g id="navigator" transform="translate(0 0)" fill="#404254">
                <rect fill="#f2f5e9" fill-opacity="0.5" stroke="#606060" stroke-width=".5" x="0" y="0" width="60" height="60"/>
                <use id="zoomplus" xlink:href="#zoomPlus" x="17" y="9" onmousedown="handleZoom(evt,'in')"/>
                <use id="zoomminus" xlink:href="#zoomMin" x="42" y="9" onmousedown="handleZoom(evt,'out')"/>
                <use id="reset" xlink:href="#resetDef" x="30" y="36" onmousedown="handleReset()"/>
                <g id="arrowUp" xlink:href="#dirArrow" transform="translate(30 24)" onmousedown="handlePan(0,-1)">
                  <use xlink:href="#rim" fill="#404040">
                        <set attributeName="fill" to="#808080" begin="arrowUp.mouseover" end="arrowUp.mouseout"/>
                  </use>
                  <path fill="none" stroke="white" stroke-width="1.5" d="M0,-3.0v7 M-2.5,-0.5L0,-3.0L2.5,-0.5"/>
                </g>
                <g id="arrowRight" xlink:href="#dirArrow" transform="rotate(90) translate(36 -43)" onmousedown="handlePan(1,0)">
                  <use xlink:href="#rim" fill="#404040">
                        <set attributeName="fill" to="#808080" begin="arrowRight.mouseover" end="arrowRight.mouseout"/>
                  </use>
                  <path fill="none" stroke="white" stroke-width="1.5" d="M0,-3.0v7 M-2.5,-0.5L0,-3.0L2.5,-0.5"/>
                </g>
                <g id="arrowDown" xlink:href="#dirArrow" transform="rotate(180) translate(-30 -48)" onmousedown="handlePan(0,1)">
                  <use xlink:href="#rim" fill="#404040">
                        <set attributeName="fill" to="#808080" begin="arrowDown.mouseover" end="arrowDown.mouseout"/>
                  </use>
                  <path fill="none" stroke="white" stroke-width="1.5" d="M0,-3.0v7 M-2.5,-0.5L0,-3.0L2.5,-0.5"/>
                </g>
                <g id="arrowLeft" xlink:href="#dirArrow" transform="rotate(270) translate(-36 17)" onmousedown="handlePan(-1,0)">
                  <use xlink:href="#rim" fill="#404040">
                        <set attributeName="fill" to="#808080" begin="arrowLeft.mouseover" end="arrowLeft.mouseout"/>
                  </use>
                  <path fill="none" stroke="white" stroke-width="1.5" d="M0,-3.0v7 M-2.5,-0.5L0,-3.0L2.5,-0.5"/>
                </g>
        </g>
        <svg viewBox="0 0 15 15" width="100%" height="30px" preserveAspectRatio="xMaxYMin meet">
         <g id="arrow_out" transform="scale(0.3 0.3)">
          <a xlink:href="dot_inline_dotgraph_1_org.svg" target="_base">
           <rect id="button" ry="5" rx="5" y="6" x="6" height="38" width="38"
                fill="#f2f5e9" fill-opacity="0.5" stroke="#606060" stroke-width="1.0"/>
           <path id="arrow"
             d="M 11.500037,31.436501 C 11.940474,20.09759 22.043105,11.32322 32.158766,21.979434 L 37.068811,17.246167 C 37.068811,17.246167 37.088388,32 37.088388,32 L 22.160133,31.978069 C 22.160133,31.978069 26.997745,27.140456 26.997745,27.140456 C 18.528582,18.264221 13.291696,25.230495 11.500037,31.436501 z"
             style="fill:#404040;"/>
          </a>
         </g>
        </svg>
</svg>
