<?xml version="1.0" encoding="UTF-8" standalone="no"?>
<!DOCTYPE svg PUBLIC "-//W3C//DTD SVG 1.1//EN"
 "http://www.w3.org/Graphics/SVG/1.1/DTD/svg11.dtd">
<!-- Generated by graphviz version 2.43.0 (0)
 -->
<!-- Title: D Pages: 1 -->
<svg width="945pt" height="617pt"
 viewBox="0.00 0.00 944.50 617.00" xmlns="http://www.w3.org/2000/svg" xmlns:xlink="http://www.w3.org/1999/xlink">
<g id="graph0" class="graph" transform="scale(1 1) rotate(0) translate(4 613)">
<title>D</title>
<polygon fill="white" stroke="transparent" points="-4,4 -4,-613 940.5,-613 940.5,4 -4,4"/>
<text text-anchor="middle" x="468.25" y="-7.8" font-family="Times,serif" font-size="14.00" fill="white">Orthogonal edges</text>
<g id="clust1" class="cluster">
<title>cluster_4</title>
<polygon fill="red" stroke="white" points="0,-31 0,-601 269,-601 269,-31 0,-31"/>
<text text-anchor="start" x="33.5" y="-582" font-family="Times,serif" font-weight="bold" font-size="20.00" fill="white">Peripheral Busses</text>
</g>
<g id="clust2" class="cluster">
<title>cluster_4_1</title>
<polygon fill="white" stroke="white" points="30.5,-363 30.5,-563 239.5,-563 239.5,-363 30.5,-363"/>
<text text-anchor="start" x="38.5" y="-545.6" font-family="Times,serif" font-weight="bold" font-size="18.00">Virtual Add&#45;on Bus</text>
<text text-anchor="start" x="56.5" y="-530.8" font-family="Times,serif" font-style="italic" font-size="14.00" fill="#777777">CPeripheralBusAddon</text>
</g>
<g id="clust3" class="cluster">
<title>cluster_4_2</title>
<polygon fill="red" stroke="red" points="99.5,-255 99.5,-307 169.5,-307 169.5,-255 99.5,-255"/>
</g>
<g id="clust4" class="cluster">
<title>cluster_4_3</title>
<polygon fill="white" stroke="white" points="8,-39 8,-239 261,-239 261,-39 8,-39"/>
<text text-anchor="start" x="16" y="-221.6" font-family="Times,serif" font-weight="bold" font-size="18.00">Virtual Application Bus</text>
<text text-anchor="start" x="38" y="-206.8" font-family="Times,serif" font-style="italic" font-size="14.00" fill="#777777">CPeripheralBusApplication</text>
</g>
<g id="clust5" class="cluster">
<title>cluster_7</title>
<polygon fill="red" stroke="white" points="316.5,-247 316.5,-453 562.5,-453 562.5,-247 316.5,-247"/>
<text text-anchor="start" x="365" y="-434" font-family="Times,serif" font-weight="bold" font-size="20.00" fill="white">Input Library</text>
</g>
<g id="clust6" class="cluster">
<title>cluster_7_1</title>
<polygon fill="red" stroke="red" points="324.5,-255 324.5,-415 554.5,-415 554.5,-255 324.5,-255"/>
</g>
<g id="clust7" class="cluster">
<title>cluster_8</title>
<polygon fill="red" stroke="white" points="610.5,-363 610.5,-445 928.5,-445 928.5,-363 610.5,-363"/>
<text text-anchor="start" x="714" y="-426" font-family="Times,serif" font-weight="bold" font-size="20.00" fill="white">Game API</text>
</g>
<!-- _11 -->
<g id="node1" class="node">
<title>_11</title>
<polygon fill="white" stroke="black" points="204.5,-515 64.5,-515 64.5,-479 204.5,-479 204.5,-515"/>
<text text-anchor="start" x="72.5" y="-500.8" font-family="Arial" font-weight="bold" font-size="14.00">Joystick Peripheral</text>
<text text-anchor="start" x="74.5" y="-486.8" font-family="Arial" font-style="italic" font-size="14.00" fill="#777777">CPeripheralJoystick</text>
</g>
<!-- _12 -->
<g id="node2" class="node">
<title>_12</title>
<polygon fill="white" stroke="black" points="210.5,-407 58.5,-407 58.5,-371 210.5,-371 210.5,-407"/>
<text text-anchor="start" x="85" y="-392.8" font-family="Arial" font-weight="bold" font-size="14.00">Event Handling</text>
<text text-anchor="start" x="66.5" y="-378.8" font-family="Arial" font-style="italic" font-size="14.00" fill="#777777">IJoystickDriverHandler</text>
</g>
<!-- _15 -->
<g id="node5" class="node">
<title>_15</title>
<polygon fill="white" stroke="black" points="542.5,-407 336.5,-407 336.5,-371 542.5,-371 542.5,-407"/>
<text text-anchor="start" x="392" y="-392.8" font-family="Arial" font-weight="bold" font-size="14.00">Input Handling</text>
<text text-anchor="start" x="344.5" y="-378.8" font-family="Arial" font-style="italic" font-size="14.00" fill="#777777">CGenericJoystickInputHandling</text>
</g>
<!-- _12&#45;&gt;_15 -->
<g id="edge1" class="edge">
<title>_12&#45;&gt;_15</title>
<path fill="none" stroke="black" stroke-width="3" d="M210.68,-389C210.68,-389 326.42,-389 326.42,-389"/>
<polygon fill="black" stroke="black" stroke-width="3" points="326.42,-392.5 336.42,-389 326.42,-385.5 326.42,-392.5"/>
</g>
<!-- _13 -->
<g id="node3" class="node">
<title>_13</title>
<polygon fill="white" stroke="black" points="209,-191 60,-191 60,-155 209,-155 209,-191"/>
<text text-anchor="start" x="68" y="-176.8" font-family="Arial" font-weight="bold" font-size="14.00">Keyboard Peripheral</text>
<text text-anchor="start" x="69.5" y="-162.8" font-family="Arial" font-style="italic" font-size="14.00" fill="#777777">CPeripheralKeyboard</text>
</g>
<!-- _14 -->
<g id="node4" class="node">
<title>_14</title>
<polygon fill="white" stroke="black" points="204.5,-83 64.5,-83 64.5,-47 204.5,-47 204.5,-83"/>
<text text-anchor="start" x="72.5" y="-68.8" font-family="Arial" font-weight="bold" font-size="14.00">Keyboard Handling</text>
<text text-anchor="start" x="80" y="-54.8" font-family="Arial" font-style="italic" font-size="14.00" fill="#777777">IKeyboardHandler</text>
</g>
<!-- _21 -->
<g id="node7" class="node">
<title>_21</title>
<polygon fill="white" stroke="black" points="742.5,-407 618.5,-407 618.5,-371 742.5,-371 742.5,-407"/>
<text text-anchor="start" x="626.5" y="-392.8" font-family="Arial" font-weight="bold" font-size="14.00">Game Controller</text>
<text text-anchor="start" x="631" y="-378.8" font-family="Arial" font-style="italic" font-size="14.00" fill="#777777">CControllerInput</text>
</g>
<!-- _15&#45;&gt;_21 -->
<g id="edge2" class="edge">
<title>_15&#45;&gt;_21</title>
<path fill="none" stroke="black" stroke-width="3" d="M542.75,-389C542.75,-389 608.2,-389 608.2,-389"/>
<polygon fill="black" stroke="black" stroke-width="3" points="608.2,-392.5 618.2,-389 608.2,-385.5 608.2,-392.5"/>
</g>
<!-- _16 -->
<g id="node6" class="node">
<title>_16</title>
<polygon fill="white" stroke="black" points="546.5,-299 332.5,-299 332.5,-263 546.5,-263 546.5,-299"/>
<text text-anchor="start" x="387.5" y="-284.8" font-family="Arial" font-weight="bold" font-size="14.00">Button Mapping</text>
<text text-anchor="start" x="340.5" y="-270.8" font-family="Arial" font-style="italic" font-size="14.00" fill="#777777">CGenericJoystickButtonMapping</text>
</g>
<!-- _22 -->
<g id="node8" class="node">
<title>_22</title>
<polygon fill="white" stroke="black" points="920.5,-407 814.5,-407 814.5,-371 920.5,-371 920.5,-407"/>
<text text-anchor="start" x="822.5" y="-392.8" font-family="Arial" font-weight="bold" font-size="14.00">Game Add&#45;on</text>
<text text-anchor="start" x="826" y="-378.8" font-family="Arial" font-style="italic" font-size="14.00" fill="#777777">CGameClient</text>
</g>
<!-- _21&#45;&gt;_22 -->
<g id="edge3" class="edge">
<title>_21&#45;&gt;_22</title>
<path fill="none" stroke="black" stroke-width="3" d="M742.51,-389C742.51,-389 804.42,-389 804.42,-389"/>
<polygon fill="black" stroke="black" stroke-width="3" points="804.42,-392.5 814.42,-389 804.42,-385.5 804.42,-392.5"/>
</g>
<g id="node9" class="node">
<title></title>
<polygon fill="none" stroke="red" points="161.5,-299 107.5,-299 107.5,-263 161.5,-263 161.5,-299"/>
</g>
</g>
</svg>
