<?xml version="1.0" encoding="UTF-8" standalone="no"?>
<!DOCTYPE svg PUBLIC "-//W3C//DTD SVG 1.1//EN"
 "http://www.w3.org/Graphics/SVG/1.1/DTD/svg11.dtd">
<!-- Generated by graphviz version 2.43.0 (0)
 -->
<!-- Title: D Pages: 1 -->
<svg width="1468pt" height="939pt"
 viewBox="0.00 0.00 1468.00 939.00" xmlns="http://www.w3.org/2000/svg" xmlns:xlink="http://www.w3.org/1999/xlink">
<g id="graph0" class="graph" transform="scale(1 1) rotate(0) translate(4 935)">
<title>D</title>
<polygon fill="white" stroke="transparent" points="-4,4 -4,-935 1464,-935 1464,4 -4,4"/>
<text text-anchor="middle" x="730" y="-7.8" font-family="Times,serif" font-size="14.00" fill="white">Orthogonal edges</text>
<g id="clust1" class="cluster">
<title>cluster_2</title>
<polygon fill="red" stroke="white" points="6,-617 6,-915 227,-915 227,-617 6,-617"/>
<text text-anchor="start" x="14" y="-896" font-family="Times,serif" font-weight="bold" font-size="20.00" fill="white">Peripheral Add&#45;on</text>
</g>
<g id="clust2" class="cluster">
<title>cluster_3</title>
<polygon fill="red" stroke="white" points="283,-617 283,-915 463,-915 463,-617 283,-617"/>
<text text-anchor="start" x="291" y="-896" font-family="Times,serif" font-weight="bold" font-size="20.00" fill="white">Peripheral API</text>
</g>
<g id="clust3" class="cluster">
<title>cluster_4</title>
<polygon fill="red" stroke="white" points="516,-31 516,-601 785,-601 785,-31 516,-31"/>
<text text-anchor="start" x="549.5" y="-582" font-family="Times,serif" font-weight="bold" font-size="20.00" fill="white">Peripheral Busses</text>
</g>
<g id="clust4" class="cluster">
<title>cluster_4_1</title>
<polygon fill="white" stroke="white" points="546.5,-363 546.5,-563 755.5,-563 755.5,-363 546.5,-363"/>
<text text-anchor="start" x="554.5" y="-545.6" font-family="Times,serif" font-weight="bold" font-size="18.00">Virtual Add&#45;on Bus</text>
<text text-anchor="start" x="572.5" y="-530.8" font-family="Times,serif" font-style="italic" font-size="14.00" fill="#777777">CPeripheralBusAddon</text>
</g>
<g id="clust5" class="cluster">
<title>cluster_4_2</title>
<polygon fill="red" stroke="red" points="615.5,-255 615.5,-307 685.5,-307 685.5,-255 615.5,-255"/>
</g>
<g id="clust6" class="cluster">
<title>cluster_4_3</title>
<polygon fill="white" stroke="white" points="524,-39 524,-239 777,-239 777,-39 524,-39"/>
<text text-anchor="start" x="532" y="-221.6" font-family="Times,serif" font-weight="bold" font-size="18.00">Virtual Application Bus</text>
<text text-anchor="start" x="554" y="-206.8" font-family="Times,serif" font-style="italic" font-size="14.00" fill="#777777">CPeripheralBusApplication</text>
</g>
<g id="clust11" class="cluster">
<title>cluster_8</title>
<polygon fill="red" stroke="white" points="1134,-725 1134,-807 1452,-807 1452,-725 1134,-725"/>
<text text-anchor="start" x="1237.5" y="-788" font-family="Times,serif" font-weight="bold" font-size="20.00" fill="white">Game API</text>
</g>
<g id="clust7" class="cluster">
<title>cluster_7</title>
<polygon fill="red" stroke="white" points="545,-609 545,-923 1086,-923 1086,-609 545,-609"/>
<text text-anchor="start" x="741" y="-904" font-family="Times,serif" font-weight="bold" font-size="20.00" fill="white">Input Library</text>
</g>
<g id="clust8" class="cluster">
<title>cluster_7_1</title>
<polygon fill="red" stroke="red" points="848,-617 848,-777 1078,-777 1078,-617 848,-617"/>
</g>
<g id="clust9" class="cluster">
<title>cluster_7_2</title>
<polygon fill="red" stroke="red" points="615.5,-833 615.5,-885 685.5,-885 685.5,-833 615.5,-833"/>
</g>
<g id="clust10" class="cluster">
<title>cluster_7_3</title>
<polygon fill="red" stroke="red" points="553,-617 553,-777 748,-777 748,-617 553,-617"/>
</g>
<!-- _5 -->
<g id="node1" class="node">
<title>_5</title>
<polygon fill="white" stroke="black" points="153,-877 79,-877 79,-841 153,-841 153,-877"/>
<text text-anchor="start" x="88.5" y="-862.8" font-family="Arial" font-weight="bold" font-size="14.00">Joystick</text>
<text text-anchor="start" x="87" y="-848.8" font-family="Arial" font-style="italic" font-size="14.00" fill="#777777">CJoystick</text>
</g>
<!-- _6 -->
<g id="node2" class="node">
<title>_6</title>
<polygon fill="white" stroke="black" points="211,-769 21,-769 21,-733 211,-733 211,-769"/>
<text text-anchor="start" x="62.5" y="-754.8" font-family="Arial" font-weight="bold" font-size="14.00">Peripheral Event</text>
<text text-anchor="start" x="29" y="-740.8" font-family="Arial" font-style="italic" font-size="14.00" fill="#777777">kodi::addon::PeripheralEvent</text>
</g>
<!-- _7 -->
<g id="node3" class="node">
<title>_7</title>
<polygon fill="white" stroke="black" points="216,-661 16,-661 16,-625 216,-625 216,-661"/>
<text text-anchor="start" x="80" y="-646.8" font-family="Arial" font-weight="bold" font-size="14.00">ButtonMap</text>
<text text-anchor="start" x="24" y="-632.8" font-family="Arial" font-style="italic" font-size="14.00" fill="#777777">kodi::addon::JoystickFeatures*</text>
</g>
<!-- _10 -->
<g id="node6" class="node">
<title>_10</title>
<polygon fill="white" stroke="black" points="452,-661 294,-661 294,-625 452,-625 452,-661"/>
<text text-anchor="start" x="343.5" y="-646.8" font-family="Arial" font-weight="bold" font-size="14.00">C structs</text>
<text text-anchor="start" x="302" y="-632.8" font-family="Arial" font-style="italic" font-size="14.00" fill="#777777">JOYSTICK_FEATURE*</text>
</g>
<!-- _7&#45;&gt;_10 -->
<g id="edge1" class="edge">
<title>_7&#45;&gt;_10</title>
<path fill="none" stroke="black" stroke-width="3" d="M216.1,-643C216.1,-643 283.85,-643 283.85,-643"/>
<polygon fill="black" stroke="black" stroke-width="3" points="283.85,-646.5 293.85,-643 283.85,-639.5 283.85,-646.5"/>
</g>
<!-- _8 -->
<g id="node4" class="node">
<title>_8</title>
<polygon fill="white" stroke="black" points="435,-877 311,-877 311,-841 435,-841 435,-877"/>
<text text-anchor="start" x="347" y="-862.8" font-family="Arial" font-weight="bold" font-size="14.00">C struct</text>
<text text-anchor="start" x="319" y="-848.8" font-family="Arial" font-style="italic" font-size="14.00" fill="#777777">JOYSTICK_INFO</text>
</g>
<!-- _9 -->
<g id="node5" class="node">
<title>_9</title>
<polygon fill="white" stroke="black" points="450.5,-769 295.5,-769 295.5,-733 450.5,-733 450.5,-769"/>
<text text-anchor="start" x="347" y="-754.8" font-family="Arial" font-weight="bold" font-size="14.00">C struct</text>
<text text-anchor="start" x="303.5" y="-740.8" font-family="Arial" font-style="italic" font-size="14.00" fill="#777777">PERIPHERAL_EVENT</text>
</g>
<!-- _20 -->
<g id="node14" class="node">
<title>_20</title>
<polygon fill="white" stroke="black" points="740,-661 561,-661 561,-625 740,-625 740,-661"/>
<text text-anchor="start" x="612.5" y="-646.8" font-family="Arial" font-weight="bold" font-size="14.00">Button Map</text>
<text text-anchor="start" x="569" y="-632.8" font-family="Arial" font-style="italic" font-size="14.00" fill="#777777">CAddonJoystickButtonMap</text>
</g>
<!-- _10&#45;&gt;_20 -->
<g id="edge2" class="edge">
<title>_10&#45;&gt;_20</title>
<path fill="none" stroke="black" stroke-width="3" d="M452.15,-643C452.15,-643 550.99,-643 550.99,-643"/>
<polygon fill="black" stroke="black" stroke-width="3" points="550.99,-646.5 560.99,-643 550.99,-639.5 550.99,-646.5"/>
</g>
<!-- _11 -->
<g id="node7" class="node">
<title>_11</title>
<polygon fill="white" stroke="black" points="720.5,-515 580.5,-515 580.5,-479 720.5,-479 720.5,-515"/>
<text text-anchor="start" x="588.5" y="-500.8" font-family="Arial" font-weight="bold" font-size="14.00">Joystick Peripheral</text>
<text text-anchor="start" x="590.5" y="-486.8" font-family="Arial" font-style="italic" font-size="14.00" fill="#777777">CPeripheralJoystick</text>
</g>
<!-- _12 -->
<g id="node8" class="node">
<title>_12</title>
<polygon fill="white" stroke="black" points="726.5,-407 574.5,-407 574.5,-371 726.5,-371 726.5,-407"/>
<text text-anchor="start" x="601" y="-392.8" font-family="Arial" font-weight="bold" font-size="14.00">Event Handling</text>
<text text-anchor="start" x="582.5" y="-378.8" font-family="Arial" font-style="italic" font-size="14.00" fill="#777777">IJoystickDriverHandler</text>
</g>
<!-- _15 -->
<g id="node11" class="node">
<title>_15</title>
<polygon fill="white" stroke="black" points="1066,-769 860,-769 860,-733 1066,-733 1066,-769"/>
<text text-anchor="start" x="915.5" y="-754.8" font-family="Arial" font-weight="bold" font-size="14.00">Input Handling</text>
<text text-anchor="start" x="868" y="-740.8" font-family="Arial" font-style="italic" font-size="14.00" fill="#777777">CGenericJoystickInputHandling</text>
</g>
<!-- _12&#45;&gt;_15 -->
<g id="edge4" class="edge">
<title>_12&#45;&gt;_15</title>
<path fill="none" stroke="black" stroke-width="3" d="M726.9,-389C771.07,-389 818,-389 818,-389 818,-389 818,-745 818,-745 818,-745 849.94,-745 849.94,-745"/>
<polygon fill="black" stroke="black" stroke-width="3" points="849.94,-748.5 859.94,-745 849.94,-741.5 849.94,-748.5"/>
</g>
<!-- _13 -->
<g id="node9" class="node">
<title>_13</title>
<polygon fill="white" stroke="black" points="725,-191 576,-191 576,-155 725,-155 725,-191"/>
<text text-anchor="start" x="584" y="-176.8" font-family="Arial" font-weight="bold" font-size="14.00">Keyboard Peripheral</text>
<text text-anchor="start" x="585.5" y="-162.8" font-family="Arial" font-style="italic" font-size="14.00" fill="#777777">CPeripheralKeyboard</text>
</g>
<!-- _14 -->
<g id="node10" class="node">
<title>_14</title>
<polygon fill="white" stroke="black" points="720.5,-83 580.5,-83 580.5,-47 720.5,-47 720.5,-83"/>
<text text-anchor="start" x="588.5" y="-68.8" font-family="Arial" font-weight="bold" font-size="14.00">Keyboard Handling</text>
<text text-anchor="start" x="596" y="-54.8" font-family="Arial" font-style="italic" font-size="14.00" fill="#777777">IKeyboardHandler</text>
</g>
<!-- _21 -->
<g id="node15" class="node">
<title>_21</title>
<polygon fill="white" stroke="black" points="1266,-769 1142,-769 1142,-733 1266,-733 1266,-769"/>
<text text-anchor="start" x="1150" y="-754.8" font-family="Arial" font-weight="bold" font-size="14.00">Game Controller</text>
<text text-anchor="start" x="1154.5" y="-740.8" font-family="Arial" font-style="italic" font-size="14.00" fill="#777777">CControllerInput</text>
</g>
<!-- _15&#45;&gt;_21 -->
<g id="edge5" class="edge">
<title>_15&#45;&gt;_21</title>
<path fill="none" stroke="black" stroke-width="3" d="M1066.25,-751C1066.25,-751 1131.7,-751 1131.7,-751"/>
<polygon fill="black" stroke="black" stroke-width="3" points="1131.7,-754.5 1141.7,-751 1131.7,-747.5 1131.7,-754.5"/>
</g>
<!-- _16 -->
<g id="node12" class="node">
<title>_16</title>
<polygon fill="white" stroke="black" points="1070,-661 856,-661 856,-625 1070,-625 1070,-661"/>
<text text-anchor="start" x="911" y="-646.8" font-family="Arial" font-weight="bold" font-size="14.00">Button Mapping</text>
<text text-anchor="start" x="864" y="-632.8" font-family="Arial" font-style="italic" font-size="14.00" fill="#777777">CGenericJoystickButtonMapping</text>
</g>
<!-- _19 -->
<g id="node13" class="node">
<title>_19</title>
<polygon fill="white" stroke="black" points="738,-769 563,-769 563,-733 738,-733 738,-769"/>
<text text-anchor="start" x="593" y="-754.8" font-family="Arial" font-weight="bold" font-size="14.00">Joystick Imitation</text>
<text text-anchor="start" x="571" y="-740.8" font-family="Arial" font-style="italic" font-size="14.00" fill="#777777">CGenericKeyboadHandler</text>
</g>
<!-- _20&#45;&gt;_15 -->
<g id="edge3" class="edge">
<title>_20&#45;&gt;_15</title>
<path fill="none" stroke="black" stroke-width="3" d="M740.1,-643C761.86,-643 779,-643 779,-643 779,-643 779,-757 779,-757 779,-757 849.97,-757 849.97,-757"/>
<polygon fill="black" stroke="black" stroke-width="3" points="849.97,-760.5 859.97,-757 849.97,-753.5 849.97,-760.5"/>
</g>
<!-- _22 -->
<g id="node16" class="node">
<title>_22</title>
<polygon fill="white" stroke="black" points="1444,-769 1338,-769 1338,-733 1444,-733 1444,-769"/>
<text text-anchor="start" x="1346" y="-754.8" font-family="Arial" font-weight="bold" font-size="14.00">Game Add&#45;on</text>
<text text-anchor="start" x="1349.5" y="-740.8" font-family="Arial" font-style="italic" font-size="14.00" fill="#777777">CGameClient</text>
</g>
<!-- _21&#45;&gt;_22 -->
<g id="edge6" class="edge">
<title>_21&#45;&gt;_22</title>
<path fill="none" stroke="black" stroke-width="3" d="M1266.01,-751C1266.01,-751 1327.92,-751 1327.92,-751"/>
<polygon fill="black" stroke="black" stroke-width="3" points="1327.92,-754.5 1337.92,-751 1327.92,-747.5 1327.92,-754.5"/>
</g>
<g id="node17" class="node">
<title></title>
<polygon fill="none" stroke="red" points="677.5,-299 623.5,-299 623.5,-263 677.5,-263 677.5,-299"/>
</g>
<!-- &#45; -->
<g id="node18" class="node">
<title>&#45;</title>
<polygon fill="none" stroke="red" points="677.5,-877 623.5,-877 623.5,-841 677.5,-841 677.5,-877"/>
<text text-anchor="middle" x="650.5" y="-855.3" font-family="Arial" font-size="14.00" fill="red">&#45;</text>
</g>
</g>
</svg>
