<?xml version="1.0" encoding="UTF-8" standalone="no"?>
<!DOCTYPE svg PUBLIC "-//W3C//DTD SVG 1.1//EN"
 "http://www.w3.org/Graphics/SVG/1.1/DTD/svg11.dtd">
<!-- Generated by graphviz version 2.43.0 (0)
 -->
<!-- Title: D Pages: 1 -->
<!--zoomable 617 -->
<svg id="main" version="1.1" xmlns="http://www.w3.org/2000/svg" xmlns:xlink="http://www.w3.org/1999/xlink" xml:space="preserve" onload="init(evt)">
<style type="text/css"><![CDATA[
.edge:hover path { stroke: red; }
.edge:hover polygon { stroke: red; fill: red; }
]]></style>
<script type="text/javascript"><![CDATA[
var edges = document.getElementsByTagName('g');
if (edges && edges.length) {
  for (var i=0;i<edges.length;i++) {
    if (edges[i].id.substr(0,4)=='edge') {
      edges[i].setAttribute('class','edge');
    }
  }
}
]]></script>
        <defs>
                <circle id="rim" cx="0" cy="0" r="7"/>
                <circle id="rim2" cx="0" cy="0" r="3.5"/>
                <g id="zoomPlus">
                        <use xlink:href="#rim" fill="#404040">
                                <set attributeName="fill" to="#808080" begin="zoomplus.mouseover" end="zoomplus.mouseout"/>
                        </use>
                        <path d="M-4,0h8M0,-4v8" fill="none" stroke="white" stroke-width="1.5" pointer-events="none"/>
                </g>
                <g id="zoomMin">
                        <use xlink:href="#rim" fill="#404040">
                                <set attributeName="fill" to="#808080" begin="zoomminus.mouseover" end="zoomminus.mouseout"/>
                        </use>
                        <path d="M-4,0h8" fill="none" stroke="white" stroke-width="1.5" pointer-events="none"/>
                </g>
                <g id="dirArrow">
                        <path fill="none" stroke="white" stroke-width="1.5" d="M0,-3.0v7 M-2.5,-0.5L0,-3.0L2.5,-0.5"/>
                </g>
               <g id="resetDef">
                       <use xlink:href="#rim2" fill="#404040">
                               <set attributeName="fill" to="#808080" begin="reset.mouseover" end="reset.mouseout"/>
                       </use>
               </g>
        </defs>

<script type="text/javascript">
var viewWidth = 884;
var viewHeight = 617;
</script>
<script xlink:href="svgpan.js"/>
<svg id="graph" class="graph">
<g id="viewport">
<title>D</title>
<polygon fill="white" stroke="transparent" points="-4,4 -4,-613 879.5,-613 879.5,4 -4,4"/>
<text text-anchor="middle" x="437.75" y="-7.8" font-family="Times,serif" font-size="14.00" fill="white">Orthogonal edges</text>
<g id="clust1" class="cluster">
<title>cluster_4</title>
<polygon fill="red" stroke="white" points="0,-31 0,-601 215,-601 215,-31 0,-31"/>
<text text-anchor="start" x="31" y="-582" font-family="Times,serif" font-weight="bold" font-size="20.00" fill="white">Peripheral Busses</text>
</g>
<g id="clust2" class="cluster">
<title>cluster_4_1</title>
<polygon fill="white" stroke="white" points="23.5,-363 23.5,-563 191.5,-563 191.5,-363 23.5,-363"/>
<text text-anchor="start" x="32.5" y="-545.6" font-family="Times,serif" font-weight="bold" font-size="18.00">Virtual Add&#45;on Bus</text>
<text text-anchor="start" x="45.5" y="-530.8" font-family="Times,serif" font-style="italic" font-size="14.00" fill="#777777">CPeripheralBusAddon</text>
</g>
<g id="clust3" class="cluster">
<title>cluster_4_2</title>
<polygon fill="red" stroke="red" points="72.5,-255 72.5,-307 142.5,-307 142.5,-255 72.5,-255"/>
</g>
<g id="clust4" class="cluster">
<title>cluster_4_3</title>
<polygon fill="white" stroke="white" points="8,-39 8,-239 207,-239 207,-39 8,-39"/>
<text text-anchor="start" x="16" y="-221.6" font-family="Times,serif" font-weight="bold" font-size="18.00">Virtual Application Bus</text>
<text text-anchor="start" x="32" y="-206.8" font-family="Times,serif" font-style="italic" font-size="14.00" fill="#777777">CPeripheralBusApplication</text>
</g>
<g id="clust5" class="cluster">
<title>cluster_7</title>
<polygon fill="red" stroke="white" points="254.5,-247 254.5,-453 500.5,-453 500.5,-247 254.5,-247"/>
<text text-anchor="start" x="317" y="-434" font-family="Times,serif" font-weight="bold" font-size="20.00" fill="white">Input Library</text>
</g>
<g id="clust6" class="cluster">
<title>cluster_7_1</title>
<polygon fill="red" stroke="red" points="262.5,-255 262.5,-415 492.5,-415 492.5,-255 262.5,-255"/>
</g>
<g id="clust7" class="cluster">
<title>cluster_8</title>
<polygon fill="red" stroke="white" points="548.5,-363 548.5,-445 867.5,-445 867.5,-363 548.5,-363"/>
<text text-anchor="start" x="663" y="-426" font-family="Times,serif" font-weight="bold" font-size="20.00" fill="white">Game API</text>
</g>
<!-- _11 -->
<g id="node1" class="node">
<title>_11</title>
<polygon fill="white" stroke="black" points="177.5,-515 37.5,-515 37.5,-479 177.5,-479 177.5,-515"/>
<text text-anchor="start" x="45.5" y="-500.8" font-family="Arial" font-weight="bold" font-size="14.00">Joystick Peripheral</text>
<text text-anchor="start" x="47.5" y="-486.8" font-family="Arial" font-style="italic" font-size="14.00" fill="#777777">CPeripheralJoystick</text>
</g>
<!-- _12 -->
<g id="node2" class="node">
<title>_12</title>
<polygon fill="white" stroke="black" points="183.5,-407 31.5,-407 31.5,-371 183.5,-371 183.5,-407"/>
<text text-anchor="start" x="58" y="-392.8" font-family="Arial" font-weight="bold" font-size="14.00">Event Handling</text>
<text text-anchor="start" x="39.5" y="-378.8" font-family="Arial" font-style="italic" font-size="14.00" fill="#777777">IJoystickDriverHandler</text>
</g>
<!-- _15 -->
<g id="node5" class="node">
<title>_15</title>
<polygon fill="white" stroke="black" points="480.5,-407 274.5,-407 274.5,-371 480.5,-371 480.5,-407"/>
<text text-anchor="start" x="330" y="-392.8" font-family="Arial" font-weight="bold" font-size="14.00">Input Handling</text>
<text text-anchor="start" x="282.5" y="-378.8" font-family="Arial" font-style="italic" font-size="14.00" fill="#777777">CGenericJoystickInputHandling</text>
</g>
<!-- _12&#45;&gt;_15 -->
<g id="edge1" class="edge">
<title>_12&#45;&gt;_15</title>
<path fill="none" stroke="black" stroke-width="3" d="M183.79,-389C183.79,-389 264.44,-389 264.44,-389"/>
<polygon fill="black" stroke="black" stroke-width="3" points="264.44,-392.5 274.44,-389 264.44,-385.5 264.44,-392.5"/>
</g>
<!-- _13 -->
<g id="node3" class="node">
<title>_13</title>
<polygon fill="white" stroke="black" points="182,-191 33,-191 33,-155 182,-155 182,-191"/>
<text text-anchor="start" x="41" y="-176.8" font-family="Arial" font-weight="bold" font-size="14.00">Keyboard Peripheral</text>
<text text-anchor="start" x="42.5" y="-162.8" font-family="Arial" font-style="italic" font-size="14.00" fill="#777777">CPeripheralKeyboard</text>
</g>
<!-- _14 -->
<g id="node4" class="node">
<title>_14</title>
<polygon fill="white" stroke="black" points="177.5,-83 37.5,-83 37.5,-47 177.5,-47 177.5,-83"/>
<text text-anchor="start" x="45.5" y="-68.8" font-family="Arial" font-weight="bold" font-size="14.00">Keyboard Handling</text>
<text text-anchor="start" x="53" y="-54.8" font-family="Arial" font-style="italic" font-size="14.00" fill="#777777">IKeyboardHandler</text>
</g>
<!-- _21 -->
<g id="node7" class="node">
<title>_21</title>
<polygon fill="white" stroke="black" points="680.5,-407 556.5,-407 556.5,-371 680.5,-371 680.5,-407"/>
<text text-anchor="start" x="564.5" y="-392.8" font-family="Arial" font-weight="bold" font-size="14.00">Game Controller</text>
<text text-anchor="start" x="569" y="-378.8" font-family="Arial" font-style="italic" font-size="14.00" fill="#777777">CControllerInput</text>
</g>
<!-- _15&#45;&gt;_21 -->
<g id="edge2" class="edge">
<title>_15&#45;&gt;_21</title>
<path fill="none" stroke="black" stroke-width="3" d="M480.75,-389C480.75,-389 546.2,-389 546.2,-389"/>
<polygon fill="black" stroke="black" stroke-width="3" points="546.2,-392.5 556.2,-389 546.2,-385.5 546.2,-392.5"/>
</g>
<!-- _16 -->
<g id="node6" class="node">
<title>_16</title>
<polygon fill="white" stroke="black" points="484.5,-299 270.5,-299 270.5,-263 484.5,-263 484.5,-299"/>
<text text-anchor="start" x="325.5" y="-284.8" font-family="Arial" font-weight="bold" font-size="14.00">Button Mapping</text>
<text text-anchor="start" x="278.5" y="-270.8" font-family="Arial" font-style="italic" font-size="14.00" fill="#777777">CGenericJoystickButtonMapping</text>
</g>
<!-- _22 -->
<g id="node8" class="node">
<title>_22</title>
<polygon fill="white" stroke="black" points="859.5,-407 752.5,-407 752.5,-371 859.5,-371 859.5,-407"/>
<text text-anchor="start" x="760.5" y="-392.8" font-family="Arial" font-weight="bold" font-size="14.00">Game Add&#45;on</text>
<text text-anchor="start" x="764.5" y="-378.8" font-family="Arial" font-style="italic" font-size="14.00" fill="#777777">CGameClient</text>
</g>
<!-- _21&#45;&gt;_22 -->
<g id="edge3" class="edge">
<title>_21&#45;&gt;_22</title>
<path fill="none" stroke="black" stroke-width="3" d="M680.67,-389C680.67,-389 742.47,-389 742.47,-389"/>
<polygon fill="black" stroke="black" stroke-width="3" points="742.47,-392.5 752.47,-389 742.47,-385.5 742.47,-392.5"/>
</g>
<g id="node9" class="node">
<title></title>
<polygon fill="none" stroke="red" points="134.5,-299 80.5,-299 80.5,-263 134.5,-263 134.5,-299"/>
</g>
</g>
</svg>
        <g id="navigator" transform="translate(0 0)" fill="#404254">
                <rect fill="#f2f5e9" fill-opacity="0.5" stroke="#606060" stroke-width=".5" x="0" y="0" width="60" height="60"/>
                <use id="zoomplus" xlink:href="#zoomPlus" x="17" y="9" onmousedown="handleZoom(evt,'in')"/>
                <use id="zoomminus" xlink:href="#zoomMin" x="42" y="9" onmousedown="handleZoom(evt,'out')"/>
                <use id="reset" xlink:href="#resetDef" x="30" y="36" onmousedown="handleReset()"/>
                <g id="arrowUp" xlink:href="#dirArrow" transform="translate(30 24)" onmousedown="handlePan(0,-1)">
                  <use xlink:href="#rim" fill="#404040">
                        <set attributeName="fill" to="#808080" begin="arrowUp.mouseover" end="arrowUp.mouseout"/>
                  </use>
                  <path fill="none" stroke="white" stroke-width="1.5" d="M0,-3.0v7 M-2.5,-0.5L0,-3.0L2.5,-0.5"/>
                </g>
                <g id="arrowRight" xlink:href="#dirArrow" transform="rotate(90) translate(36 -43)" onmousedown="handlePan(1,0)">
                  <use xlink:href="#rim" fill="#404040">
                        <set attributeName="fill" to="#808080" begin="arrowRight.mouseover" end="arrowRight.mouseout"/>
                  </use>
                  <path fill="none" stroke="white" stroke-width="1.5" d="M0,-3.0v7 M-2.5,-0.5L0,-3.0L2.5,-0.5"/>
                </g>
                <g id="arrowDown" xlink:href="#dirArrow" transform="rotate(180) translate(-30 -48)" onmousedown="handlePan(0,1)">
                  <use xlink:href="#rim" fill="#404040">
                        <set attributeName="fill" to="#808080" begin="arrowDown.mouseover" end="arrowDown.mouseout"/>
                  </use>
                  <path fill="none" stroke="white" stroke-width="1.5" d="M0,-3.0v7 M-2.5,-0.5L0,-3.0L2.5,-0.5"/>
                </g>
                <g id="arrowLeft" xlink:href="#dirArrow" transform="rotate(270) translate(-36 17)" onmousedown="handlePan(-1,0)">
                  <use xlink:href="#rim" fill="#404040">
                        <set attributeName="fill" to="#808080" begin="arrowLeft.mouseover" end="arrowLeft.mouseout"/>
                  </use>
                  <path fill="none" stroke="white" stroke-width="1.5" d="M0,-3.0v7 M-2.5,-0.5L0,-3.0L2.5,-0.5"/>
                </g>
        </g>
        <svg viewBox="0 0 15 15" width="100%" height="30px" preserveAspectRatio="xMaxYMin meet">
         <g id="arrow_out" transform="scale(0.3 0.3)">
          <a xlink:href="dot_inline_dotgraph_5_org.svg" target="_base">
           <rect id="button" ry="5" rx="5" y="6" x="6" height="38" width="38"
                fill="#f2f5e9" fill-opacity="0.5" stroke="#606060" stroke-width="1.0"/>
           <path id="arrow"
             d="M 11.500037,31.436501 C 11.940474,20.09759 22.043105,11.32322 32.158766,21.979434 L 37.068811,17.246167 C 37.068811,17.246167 37.088388,32 37.088388,32 L 22.160133,31.978069 C 22.160133,31.978069 26.997745,27.140456 26.997745,27.140456 C 18.528582,18.264221 13.291696,25.230495 11.500037,31.436501 z"
             style="fill:#404040;"/>
          </a>
         </g>
        </svg>
</svg>
