<?xml version="1.0" encoding="UTF-8" standalone="no"?>
<!DOCTYPE svg PUBLIC "-//W3C//DTD SVG 1.1//EN"
 "http://www.w3.org/Graphics/SVG/1.1/DTD/svg11.dtd">
<!-- Generated by graphviz version 2.43.0 (0)
 -->
<!-- Title: D Pages: 1 -->
<!--zoomable 617 -->
<svg id="main" version="1.1" xmlns="http://www.w3.org/2000/svg" xmlns:xlink="http://www.w3.org/1999/xlink" xml:space="preserve" onload="init(evt)">
<style type="text/css"><![CDATA[
.edge:hover path { stroke: red; }
.edge:hover polygon { stroke: red; fill: red; }
]]></style>
<script type="text/javascript"><![CDATA[
var edges = document.getElementsByTagName('g');
if (edges && edges.length) {
  for (var i=0;i<edges.length;i++) {
    if (edges[i].id.substr(0,4)=='edge') {
      edges[i].setAttribute('class','edge');
    }
  }
}
]]></script>
        <defs>
                <circle id="rim" cx="0" cy="0" r="7"/>
                <circle id="rim2" cx="0" cy="0" r="3.5"/>
                <g id="zoomPlus">
                        <use xlink:href="#rim" fill="#404040">
                                <set attributeName="fill" to="#808080" begin="zoomplus.mouseover" end="zoomplus.mouseout"/>
                        </use>
                        <path d="M-4,0h8M0,-4v8" fill="none" stroke="white" stroke-width="1.5" pointer-events="none"/>
                </g>
                <g id="zoomMin">
                        <use xlink:href="#rim" fill="#404040">
                                <set attributeName="fill" to="#808080" begin="zoomminus.mouseover" end="zoomminus.mouseout"/>
                        </use>
                        <path d="M-4,0h8" fill="none" stroke="white" stroke-width="1.5" pointer-events="none"/>
                </g>
                <g id="dirArrow">
                        <path fill="none" stroke="white" stroke-width="1.5" d="M0,-3.0v7 M-2.5,-0.5L0,-3.0L2.5,-0.5"/>
                </g>
               <g id="resetDef">
                       <use xlink:href="#rim2" fill="#404040">
                               <set attributeName="fill" to="#808080" begin="reset.mouseover" end="reset.mouseout"/>
                       </use>
               </g>
        </defs>

<script type="text/javascript">
var viewWidth = 667;
var viewHeight = 617;
</script>
<script xlink:href="svgpan.js"/>
<svg id="graph" class="graph">
<g id="viewport">
<title>D</title>
<polygon fill="white" stroke="transparent" points="-4,4 -4,-613 663,-613 663,4 -4,4"/>
<text text-anchor="middle" x="329.5" y="-7.8" font-family="Times,serif" font-size="14.00" fill="white">Orthogonal edges</text>
<g id="clust1" class="cluster">
<title>cluster_1</title>
<polygon fill="red" stroke="white" points="8,-35 8,-441 103,-441 103,-35 8,-35"/>
<text text-anchor="start" x="41.5" y="-422" font-family="Times,serif" font-weight="bold" font-size="20.00" fill="white">OS</text>
</g>
<g id="clust2" class="cluster">
<title>cluster_4</title>
<polygon fill="red" stroke="white" points="150.5,-31 150.5,-601 365.5,-601 365.5,-31 150.5,-31"/>
<text text-anchor="start" x="181.5" y="-582" font-family="Times,serif" font-weight="bold" font-size="20.00" fill="white">Peripheral Busses</text>
</g>
<g id="clust3" class="cluster">
<title>cluster_4_1</title>
<polygon fill="white" stroke="white" points="174,-363 174,-563 342,-563 342,-363 174,-363"/>
<text text-anchor="start" x="183" y="-545.6" font-family="Times,serif" font-weight="bold" font-size="18.00">Virtual Add&#45;on Bus</text>
<text text-anchor="start" x="196" y="-530.8" font-family="Times,serif" font-style="italic" font-size="14.00" fill="#777777">CPeripheralBusAddon</text>
</g>
<g id="clust4" class="cluster">
<title>cluster_4_2</title>
<polygon fill="red" stroke="red" points="223,-255 223,-307 293,-307 293,-255 223,-255"/>
</g>
<g id="clust5" class="cluster">
<title>cluster_4_3</title>
<polygon fill="white" stroke="white" points="158.5,-39 158.5,-239 357.5,-239 357.5,-39 158.5,-39"/>
<text text-anchor="start" x="166.5" y="-221.6" font-family="Times,serif" font-weight="bold" font-size="18.00">Virtual Application Bus</text>
<text text-anchor="start" x="182.5" y="-206.8" font-family="Times,serif" font-style="italic" font-size="14.00" fill="#777777">CPeripheralBusApplication</text>
</g>
<g id="clust6" class="cluster">
<title>cluster_7</title>
<polygon fill="red" stroke="white" points="405,-31 405,-561 651,-561 651,-31 405,-31"/>
<text text-anchor="start" x="467.5" y="-542" font-family="Times,serif" font-weight="bold" font-size="20.00" fill="white">Input Library</text>
</g>
<g id="clust7" class="cluster">
<title>cluster_7_1</title>
<polygon fill="red" stroke="red" points="413,-363 413,-523 643,-523 643,-363 413,-363"/>
</g>
<g id="clust8" class="cluster">
<title>cluster_7_2</title>
<polygon fill="red" stroke="red" points="493,-255 493,-307 563,-307 563,-255 493,-255"/>
</g>
<g id="clust9" class="cluster">
<title>cluster_7_3</title>
<polygon fill="red" stroke="red" points="430.5,-39 430.5,-199 625.5,-199 625.5,-39 430.5,-39"/>
</g>
<!-- _1 -->
<g id="node1" class="node">
<title>_1</title>
<polygon fill="white" stroke="black" points="91,-403 20,-403 20,-367 91,-367 91,-403"/>
<text text-anchor="start" x="28" y="-382.3" font-family="Arial" font-weight="bold" font-size="14.00">Joystick</text>
</g>
<!-- _2 -->
<g id="node2" class="node">
<title>_2</title>
<polygon fill="white" stroke="black" points="91,-295 20,-295 20,-259 91,-259 91,-295"/>
<text text-anchor="start" x="28" y="-280.8" font-family="Arial" font-weight="bold" font-size="14.00">Joystick</text>
<text text-anchor="start" x="37" y="-266.8" font-family="Arial" font-weight="bold" font-size="14.00">Event</text>
</g>
<!-- _3 -->
<g id="node3" class="node">
<title>_3</title>
<polygon fill="white" stroke="black" points="95,-187 16,-187 16,-151 95,-151 95,-187"/>
<text text-anchor="start" x="24" y="-166.3" font-family="Arial" font-weight="bold" font-size="14.00">Keyboard</text>
</g>
<!-- _4 -->
<g id="node4" class="node">
<title>_4</title>
<polygon fill="white" stroke="black" points="95,-79 16,-79 16,-43 95,-43 95,-79"/>
<text text-anchor="start" x="24" y="-64.8" font-family="Arial" font-weight="bold" font-size="14.00">Keyboard</text>
<text text-anchor="start" x="37" y="-50.8" font-family="Arial" font-weight="bold" font-size="14.00">Event</text>
</g>
<!-- _14 -->
<g id="node8" class="node">
<title>_14</title>
<polygon fill="white" stroke="black" points="328,-83 188,-83 188,-47 328,-47 328,-83"/>
<text text-anchor="start" x="196" y="-68.8" font-family="Arial" font-weight="bold" font-size="14.00">Keyboard Handling</text>
<text text-anchor="start" x="203.5" y="-54.8" font-family="Arial" font-style="italic" font-size="14.00" fill="#777777">IKeyboardHandler</text>
</g>
<!-- _4&#45;&gt;_14 -->
<g id="edge1" class="edge">
<title>_4&#45;&gt;_14</title>
<path fill="none" stroke="black" stroke-width="3" d="M95.02,-63C95.02,-63 177.83,-63 177.83,-63"/>
<polygon fill="black" stroke="black" stroke-width="3" points="177.83,-66.5 187.83,-63 177.83,-59.5 177.83,-66.5"/>
</g>
<!-- _11 -->
<g id="node5" class="node">
<title>_11</title>
<polygon fill="white" stroke="black" points="328,-515 188,-515 188,-479 328,-479 328,-515"/>
<text text-anchor="start" x="196" y="-500.8" font-family="Arial" font-weight="bold" font-size="14.00">Joystick Peripheral</text>
<text text-anchor="start" x="198" y="-486.8" font-family="Arial" font-style="italic" font-size="14.00" fill="#777777">CPeripheralJoystick</text>
</g>
<!-- _12 -->
<g id="node6" class="node">
<title>_12</title>
<polygon fill="white" stroke="black" points="334,-407 182,-407 182,-371 334,-371 334,-407"/>
<text text-anchor="start" x="208.5" y="-392.8" font-family="Arial" font-weight="bold" font-size="14.00">Event Handling</text>
<text text-anchor="start" x="190" y="-378.8" font-family="Arial" font-style="italic" font-size="14.00" fill="#777777">IJoystickDriverHandler</text>
</g>
<!-- _15 -->
<g id="node9" class="node">
<title>_15</title>
<polygon fill="white" stroke="black" points="631,-515 425,-515 425,-479 631,-479 631,-515"/>
<text text-anchor="start" x="480.5" y="-500.8" font-family="Arial" font-weight="bold" font-size="14.00">Input Handling</text>
<text text-anchor="start" x="433" y="-486.8" font-family="Arial" font-style="italic" font-size="14.00" fill="#777777">CGenericJoystickInputHandling</text>
</g>
<!-- _12&#45;&gt;_15 -->
<g id="edge4" class="edge">
<title>_12&#45;&gt;_15</title>
<path fill="none" stroke="black" stroke-width="3" d="M334.4,-398C368.01,-398 400,-398 400,-398 400,-398 400,-497 400,-497 400,-497 414.98,-497 414.98,-497"/>
<polygon fill="black" stroke="black" stroke-width="3" points="414.98,-500.5 424.98,-497 414.98,-493.5 414.98,-500.5"/>
</g>
<!-- _16 -->
<g id="node10" class="node">
<title>_16</title>
<polygon fill="white" stroke="black" points="635,-407 421,-407 421,-371 635,-371 635,-407"/>
<text text-anchor="start" x="476" y="-392.8" font-family="Arial" font-weight="bold" font-size="14.00">Button Mapping</text>
<text text-anchor="start" x="429" y="-378.8" font-family="Arial" font-style="italic" font-size="14.00" fill="#777777">CGenericJoystickButtonMapping</text>
</g>
<!-- _12&#45;&gt;_16 -->
<g id="edge5" class="edge">
<title>_12&#45;&gt;_16</title>
<path fill="none" stroke="black" stroke-width="3" d="M334.29,-389C334.29,-389 410.92,-389 410.92,-389"/>
<polygon fill="black" stroke="black" stroke-width="3" points="410.92,-392.5 420.92,-389 410.92,-385.5 410.92,-392.5"/>
</g>
<!-- _13 -->
<g id="node7" class="node">
<title>_13</title>
<polygon fill="white" stroke="black" points="332.5,-191 183.5,-191 183.5,-155 332.5,-155 332.5,-191"/>
<text text-anchor="start" x="191.5" y="-176.8" font-family="Arial" font-weight="bold" font-size="14.00">Keyboard Peripheral</text>
<text text-anchor="start" x="193" y="-162.8" font-family="Arial" font-style="italic" font-size="14.00" fill="#777777">CPeripheralKeyboard</text>
</g>
<!-- _19 -->
<g id="node11" class="node">
<title>_19</title>
<polygon fill="white" stroke="black" points="615.5,-191 440.5,-191 440.5,-155 615.5,-155 615.5,-191"/>
<text text-anchor="start" x="470.5" y="-176.8" font-family="Arial" font-weight="bold" font-size="14.00">Joystick Imitation</text>
<text text-anchor="start" x="448.5" y="-162.8" font-family="Arial" font-style="italic" font-size="14.00" fill="#777777">CGenericKeyboadHandler</text>
</g>
<!-- _14&#45;&gt;_19 -->
<g id="edge2" class="edge">
<title>_14&#45;&gt;_19</title>
<path fill="none" stroke="black" stroke-width="3" d="M328.15,-65C354.41,-65 378,-65 378,-65 378,-65 378,-167 378,-167 378,-167 430.31,-167 430.31,-167"/>
<polygon fill="black" stroke="black" stroke-width="3" points="430.31,-170.5 440.31,-167 430.31,-163.5 430.31,-170.5"/>
</g>
<!-- _19&#45;&gt;_12 -->
<g id="edge3" class="edge">
<title>_19&#45;&gt;_12</title>
<path fill="none" stroke="black" stroke-width="3" d="M440.49,-179C398,-179 356,-179 356,-179 356,-179 356,-380 356,-380 356,-380 344.25,-380 344.25,-380"/>
<polygon fill="black" stroke="black" stroke-width="3" points="344.25,-376.5 334.25,-380 344.25,-383.5 344.25,-376.5"/>
</g>
<!-- _20 -->
<g id="node12" class="node">
<title>_20</title>
<polygon fill="white" stroke="black" points="617.5,-83 438.5,-83 438.5,-47 617.5,-47 617.5,-83"/>
<text text-anchor="start" x="490" y="-68.8" font-family="Arial" font-weight="bold" font-size="14.00">Button Map</text>
<text text-anchor="start" x="446.5" y="-54.8" font-family="Arial" font-style="italic" font-size="14.00" fill="#777777">CAddonJoystickButtonMap</text>
</g>
<g id="node13" class="node">
<title></title>
<polygon fill="none" stroke="red" points="285,-299 231,-299 231,-263 285,-263 285,-299"/>
</g>
<!-- &#45; -->
<g id="node14" class="node">
<title>&#45;</title>
<polygon fill="none" stroke="red" points="555,-299 501,-299 501,-263 555,-263 555,-299"/>
<text text-anchor="middle" x="528" y="-277.3" font-family="Arial" font-size="14.00" fill="red">&#45;</text>
</g>
</g>
</svg>
        <g id="navigator" transform="translate(0 0)" fill="#404254">
                <rect fill="#f2f5e9" fill-opacity="0.5" stroke="#606060" stroke-width=".5" x="0" y="0" width="60" height="60"/>
                <use id="zoomplus" xlink:href="#zoomPlus" x="17" y="9" onmousedown="handleZoom(evt,'in')"/>
                <use id="zoomminus" xlink:href="#zoomMin" x="42" y="9" onmousedown="handleZoom(evt,'out')"/>
                <use id="reset" xlink:href="#resetDef" x="30" y="36" onmousedown="handleReset()"/>
                <g id="arrowUp" xlink:href="#dirArrow" transform="translate(30 24)" onmousedown="handlePan(0,-1)">
                  <use xlink:href="#rim" fill="#404040">
                        <set attributeName="fill" to="#808080" begin="arrowUp.mouseover" end="arrowUp.mouseout"/>
                  </use>
                  <path fill="none" stroke="white" stroke-width="1.5" d="M0,-3.0v7 M-2.5,-0.5L0,-3.0L2.5,-0.5"/>
                </g>
                <g id="arrowRight" xlink:href="#dirArrow" transform="rotate(90) translate(36 -43)" onmousedown="handlePan(1,0)">
                  <use xlink:href="#rim" fill="#404040">
                        <set attributeName="fill" to="#808080" begin="arrowRight.mouseover" end="arrowRight.mouseout"/>
                  </use>
                  <path fill="none" stroke="white" stroke-width="1.5" d="M0,-3.0v7 M-2.5,-0.5L0,-3.0L2.5,-0.5"/>
                </g>
                <g id="arrowDown" xlink:href="#dirArrow" transform="rotate(180) translate(-30 -48)" onmousedown="handlePan(0,1)">
                  <use xlink:href="#rim" fill="#404040">
                        <set attributeName="fill" to="#808080" begin="arrowDown.mouseover" end="arrowDown.mouseout"/>
                  </use>
                  <path fill="none" stroke="white" stroke-width="1.5" d="M0,-3.0v7 M-2.5,-0.5L0,-3.0L2.5,-0.5"/>
                </g>
                <g id="arrowLeft" xlink:href="#dirArrow" transform="rotate(270) translate(-36 17)" onmousedown="handlePan(-1,0)">
                  <use xlink:href="#rim" fill="#404040">
                        <set attributeName="fill" to="#808080" begin="arrowLeft.mouseover" end="arrowLeft.mouseout"/>
                  </use>
                  <path fill="none" stroke="white" stroke-width="1.5" d="M0,-3.0v7 M-2.5,-0.5L0,-3.0L2.5,-0.5"/>
                </g>
        </g>
        <svg viewBox="0 0 15 15" width="100%" height="30px" preserveAspectRatio="xMaxYMin meet">
         <g id="arrow_out" transform="scale(0.3 0.3)">
          <a xlink:href="dot_inline_dotgraph_10_org.svg" target="_base">
           <rect id="button" ry="5" rx="5" y="6" x="6" height="38" width="38"
                fill="#f2f5e9" fill-opacity="0.5" stroke="#606060" stroke-width="1.0"/>
           <path id="arrow"
             d="M 11.500037,31.436501 C 11.940474,20.09759 22.043105,11.32322 32.158766,21.979434 L 37.068811,17.246167 C 37.068811,17.246167 37.088388,32 37.088388,32 L 22.160133,31.978069 C 22.160133,31.978069 26.997745,27.140456 26.997745,27.140456 C 18.528582,18.264221 13.291696,25.230495 11.500037,31.436501 z"
             style="fill:#404040;"/>
          </a>
         </g>
        </svg>
</svg>
